OpenSans-CondensedMediumItalic.ufo
<glyph name="exclam" format="2">
  <advance width="481"/>
  <unicode hex="0021"/>
  <outline>
    <contour>
      <point x="125" y="408" type="line"/>
      <point x="254" y="408" type="line"/>
      <point x="512" y="1462" type="line"/>
      <point x="326" y="1462" type="line"/>
    </contour>
    <contour>
      <point x="106" y="-16" type="curve" smooth="yes"/>
      <point x="180" y="-16"/>
      <point x="236" y="53"/>
      <point x="236" y="145" type="curve" smooth="yes"/>
      <point x="236" y="201"/>
      <point x="205" y="236"/>
      <point x="156" y="236" type="curve" smooth="yes"/>
      <point x="68" y="236"/>
      <point x="20" y="158"/>
      <point x="20" y="72" type="curve" smooth="yes"/>
      <point x="20" y="14"/>
      <point x="55" y="-16"/>
    </contour>
  </outline>
</glyph>
<glyph name="quotedbl" format="2">
  <advance width="692"/>
  <unicode hex="0022"/>
  <outline>
    <contour>
      <point x="512" y="934" type="line"/>
      <point x="633" y="934" type="line"/>
      <point x="774" y="1462" type="line"/>
      <point x="598" y="1462" type="line"/>
    </contour>
    <contour>
      <point x="203" y="934" type="line"/>
      <point x="324" y="934" type="line"/>
      <point x="463" y="1462" type="line"/>
      <point x="287" y="1462" type="line"/>
    </contour>
  </outline>
</glyph>
<glyph name="numbersign" format="2">
  <advance width="866"/>
  <unicode hex="0023"/>
  <outline>
    <contour>
      <point x="8" y="0" type="line"/>
      <point x="133" y="0" type="line"/>
      <point x="270" y="446" type="line"/>
      <point x="455" y="446" type="line"/>
      <point x="313" y="0" type="line"/>
      <point x="438" y="0" type="line"/>
      <point x="578" y="446" type="line"/>
      <point x="754" y="446" type="line"/>
      <point x="776" y="573" type="line"/>
      <point x="616" y="573" type="line"/>
      <point x="727" y="924" type="line"/>
      <point x="893" y="924" type="line"/>
      <point x="918" y="1051" type="line"/>
      <point x="768" y="1051" type="line"/>
      <point x="895" y="1462" type="line"/>
      <point x="772" y="1462" type="line"/>
      <point x="643" y="1051" type="line"/>
      <point x="461" y="1051" type="line"/>
      <point x="590" y="1462" type="line"/>
      <point x="465" y="1462" type="line"/>
      <point x="338" y="1051" type="line"/>
      <point x="162" y="1051" type="line"/>
      <point x="139" y="924" type="line"/>
      <point x="297" y="924" type="line"/>
      <point x="186" y="573" type="line"/>
      <point x="23" y="573" type="line"/>
      <point x="0" y="446" type="line"/>
      <point x="147" y="446" type="line"/>
    </contour>
    <contour>
      <point x="311" y="573" type="line"/>
      <point x="422" y="924" type="line"/>
      <point x="604" y="924" type="line"/>
      <point x="494" y="573" type="line"/>
    </contour>
  </outline>
</glyph>
<glyph name="dollar" format="2">
  <advance width="801"/>
  <unicode hex="0024"/>
  <outline>
    <contour>
      <point x="201" y="-119" type="line"/>
      <point x="285" y="-119" type="line"/>
      <point x="330" y="98" type="line"/>
      <point x="541" y="119"/>
      <point x="686" y="248"/>
      <point x="686" y="473" type="curve" smooth="yes"/>
      <point x="686" y="637"/>
      <point x="596" y="723"/>
      <point x="481" y="811" type="curve"/>
      <point x="573" y="1249" type="line"/>
      <point x="649" y="1243"/>
      <point x="709" y="1217"/>
      <point x="766" y="1180" type="curve"/>
      <point x="838" y="1313" type="line"/>
      <point x="778" y="1350"/>
      <point x="709" y="1380"/>
      <point x="604" y="1386" type="curve"/>
      <point x="639" y="1556" type="line"/>
      <point x="557" y="1556" type="line"/>
      <point x="520" y="1386" type="line"/>
      <point x="317" y="1370"/>
      <point x="174" y="1249"/>
      <point x="174" y="1018" type="curve" smooth="yes"/>
      <point x="174" y="862"/>
      <point x="274" y="778"/>
      <point x="375" y="700" type="curve"/>
      <point x="279" y="238" type="line"/>
      <point x="168" y="244"/>
      <point x="76" y="285"/>
      <point x="20" y="328" type="curve"/>
      <point x="0" y="166" type="line"/>
      <point x="53" y="131"/>
      <point x="139" y="102"/>
      <point x="248" y="98" type="curve"/>
    </contour>
    <contour>
      <point x="360" y="244" type="curve"/>
      <point x="444" y="645" type="line"/>
      <point x="518" y="575"/>
      <point x="541" y="526"/>
      <point x="541" y="451" type="curve" smooth="yes"/>
      <point x="541" y="344"/>
      <point x="487" y="260"/>
    </contour>
    <contour>
      <point x="412" y="868" type="line"/>
      <point x="342" y="932"/>
      <point x="317" y="977"/>
      <point x="317" y="1040" type="curve" smooth="yes"/>
      <point x="317" y="1151"/>
      <point x="375" y="1231"/>
      <point x="492" y="1247" type="curve"/>
    </contour>
  </outline>
</glyph>
<glyph name="quotesingle" format="2">
  <advance width="383"/>
  <unicode hex="0027"/>
  <outline>
    <contour>
      <point x="211" y="934" type="line"/>
      <point x="332" y="934" type="line"/>
      <point x="471" y="1462" type="line"/>
      <point x="295" y="1462" type="line"/>
    </contour>
  </outline>
</glyph>
<glyph name="comma" format="2">
  <advance width="414"/>
  <unicode hex="002C"/>
  <outline>
    <contour>
      <point x="-92" y="-270" type="curve"/>
      <point x="31" y="-270" type="line"/>
      <point x="119" y="-123"/>
      <point x="203" y="45"/>
      <point x="266" y="209" type="curve"/>
      <point x="260" y="229" type="line"/>
      <point x="94" y="229" type="line"/>
      <point x="55" y="84"/>
      <point x="-35" y="-133"/>
    </contour>
  </outline>
</glyph>
<glyph name="hyphen" format="2">
  <advance width="530"/>
  <unicode hex="002D"/>
  <outline>
    <contour>
      <point x="31" y="475" type="line"/>
      <point x="459" y="475" type="line"/>
      <point x="489" y="631" type="line"/>
      <point x="61" y="631" type="line"/>
    </contour>
  </outline>
</glyph>
<glyph name="one" format="2">
  <advance width="801"/>
  <unicode hex="0031"/>
  <outline>
    <contour>
      <point x="254" y="0" type="line"/>
      <point x="416" y="0" type="line"/>
      <point x="725" y="1462" type="line"/>
      <point x="575" y="1462" type="line"/>
      <point x="213" y="1141" type="line"/>
      <point x="289" y="1036" type="line"/>
      <point x="457" y="1182" type="line" smooth="yes"/>
      <point x="483" y="1204"/>
      <point x="504" y="1227"/>
      <point x="524" y="1249" type="curve"/>
      <point x="492" y="1124"/>
      <point x="487" y="1106"/>
      <point x="471" y="1026" type="curve" smooth="yes"/>
    </contour>
  </outline>
</glyph>
<glyph name="two" format="2">
  <advance width="801"/>
  <unicode hex="0032"/>
  <outline>
    <contour>
      <point x="-68" y="0" type="line"/>
      <point x="573" y="0" type="line"/>
      <point x="604" y="145" type="line"/>
      <point x="152" y="145" type="line"/>
      <point x="152" y="152" type="line"/>
      <point x="449" y="504" type="line" smooth="yes"/>
      <point x="649" y="735"/>
      <point x="803" y="961"/>
      <point x="803" y="1196" type="curve" smooth="yes"/>
      <point x="803" y="1374"/>
      <point x="694" y="1483"/>
      <point x="528" y="1483" type="curve" smooth="yes"/>
      <point x="403" y="1483"/>
      <point x="305" y="1432"/>
      <point x="217" y="1348" type="curve"/>
      <point x="279" y="1229" type="line"/>
      <point x="350" y="1286"/>
      <point x="414" y="1337"/>
      <point x="496" y="1337" type="curve" smooth="yes"/>
      <point x="588" y="1337"/>
      <point x="635" y="1278"/>
      <point x="635" y="1169" type="curve" smooth="yes"/>
      <point x="635" y="950"/>
      <point x="477" y="754"/>
      <point x="309" y="547" type="curve" smooth="yes"/>
      <point x="-45" y="121" type="line"/>
    </contour>
  </outline>
</glyph>
<glyph name="six" format="2">
  <advance width="801"/>
  <unicode hex="0036"/>
  <outline>
    <contour>
      <point x="317" y="-20" type="curve" smooth="yes"/>
      <point x="610" y="-20"/>
      <point x="733" y="352"/>
      <point x="733" y="618" type="curve" smooth="yes"/>
      <point x="733" y="795"/>
      <point x="664" y="924"/>
      <point x="516" y="924" type="curve" smooth="yes"/>
      <point x="412" y="924"/>
      <point x="324" y="864"/>
      <point x="264" y="770" type="curve"/>
      <point x="258" y="770" type="line"/>
      <point x="352" y="1145"/>
      <point x="494" y="1339"/>
      <point x="686" y="1339" type="curve" smooth="yes"/>
      <point x="733" y="1339"/>
      <point x="778" y="1331"/>
      <point x="815" y="1317" type="curve"/>
      <point x="852" y="1462" type="line"/>
      <point x="809" y="1475"/>
      <point x="758" y="1483"/>
      <point x="686" y="1483" type="curve" smooth="yes"/>
      <point x="508" y="1483"/>
      <point x="375" y="1354"/>
      <point x="291" y="1225" type="curve" smooth="yes"/>
      <point x="141" y="1008"/>
      <point x="51" y="653"/>
      <point x="51" y="348" type="curve" smooth="yes"/>
      <point x="51" y="129"/>
      <point x="131" y="-20"/>
    </contour>
    <contour>
      <point x="328" y="125" type="curve" smooth="yes"/>
      <point x="254" y="125"/>
      <point x="209" y="201"/>
      <point x="209" y="340" type="curve" smooth="yes"/>
      <point x="209" y="444"/>
      <point x="223" y="545"/>
      <point x="254" y="608" type="curve" smooth="yes"/>
      <point x="289" y="705"/>
      <point x="358" y="780"/>
      <point x="455" y="780" type="curve" smooth="yes"/>
      <point x="526" y="780"/>
      <point x="569" y="715"/>
      <point x="569" y="602" type="curve" smooth="yes"/>
      <point x="569" y="436"/>
      <point x="502" y="125"/>
    </contour>
  </outline>
</glyph>
<glyph name="eight" format="2">
  <advance width="801"/>
  <unicode hex="0038"/>
  <outline>
    <contour>
      <point x="309" y="-20" type="curve" smooth="yes"/>
      <point x="547" y="-20"/>
      <point x="692" y="178"/>
      <point x="692" y="395" type="curve" smooth="yes"/>
      <point x="692" y="535"/>
      <point x="643" y="649"/>
      <point x="526" y="764" type="curve"/>
      <point x="715" y="866"/>
      <point x="825" y="1018"/>
      <point x="825" y="1204" type="curve" smooth="yes"/>
      <point x="825" y="1374"/>
      <point x="719" y="1483"/>
      <point x="551" y="1483" type="curve" smooth="yes"/>
      <point x="322" y="1483"/>
      <point x="186" y="1313"/>
      <point x="186" y="1098" type="curve" smooth="yes"/>
      <point x="186" y="975"/>
      <point x="229" y="868"/>
      <point x="315" y="772" type="curve"/>
      <point x="109" y="657"/>
      <point x="-14" y="516"/>
      <point x="-14" y="293" type="curve" smooth="yes"/>
      <point x="-14" y="98"/>
      <point x="104" y="-20"/>
    </contour>
    <contour>
      <point x="311" y="117" type="curve" smooth="yes"/>
      <point x="207" y="117"/>
      <point x="145" y="201"/>
      <point x="145" y="305" type="curve" smooth="yes"/>
      <point x="145" y="492"/>
      <point x="254" y="602"/>
      <point x="401" y="684" type="curve"/>
      <point x="481" y="598"/>
      <point x="535" y="504"/>
      <point x="535" y="387" type="curve" smooth="yes"/>
      <point x="532" y="242"/>
      <point x="461" y="117"/>
    </contour>
    <contour>
      <point x="442" y="850" type="curve"/>
      <point x="379" y="920"/>
      <point x="342" y="999"/>
      <point x="342" y="1102" type="curve" smooth="yes"/>
      <point x="342" y="1253"/>
      <point x="416" y="1346"/>
      <point x="532" y="1346" type="curve" smooth="yes"/>
      <point x="614" y="1346"/>
      <point x="668" y="1286"/>
      <point x="668" y="1180" type="curve" smooth="yes"/>
      <point x="668" y="1047"/>
      <point x="592" y="930"/>
    </contour>
  </outline>
</glyph>
<glyph name="nine" format="2">
  <advance width="801"/>
  <unicode hex="0039"/>
  <outline>
    <contour>
      <point x="170" y="-20" type="curve" smooth="yes"/>
      <point x="379" y="-20"/>
      <point x="522" y="133"/>
      <point x="616" y="328" type="curve" smooth="yes"/>
      <point x="731" y="545"/>
      <point x="793" y="858"/>
      <point x="793" y="1122" type="curve" smooth="yes"/>
      <point x="793" y="1358"/>
      <point x="702" y="1483"/>
      <point x="535" y="1483" type="curve" smooth="yes"/>
      <point x="236" y="1483"/>
      <point x="113" y="1108"/>
      <point x="113" y="848" type="curve" smooth="yes"/>
      <point x="113" y="674"/>
      <point x="180" y="539"/>
      <point x="330" y="539" type="curve" smooth="yes"/>
      <point x="430" y="539"/>
      <point x="520" y="600"/>
      <point x="582" y="692" type="curve"/>
      <point x="588" y="692" type="line"/>
      <point x="500" y="317"/>
      <point x="360" y="123"/>
      <point x="164" y="123" type="curve" smooth="yes"/>
      <point x="98" y="123"/>
      <point x="39" y="133"/>
      <point x="-2" y="150" type="curve"/>
      <point x="-2" y="2" type="line"/>
      <point x="43" y="-10"/>
      <point x="96" y="-20"/>
    </contour>
    <contour>
      <point x="391" y="684" type="curve" smooth="yes"/>
      <point x="317" y="684"/>
      <point x="274" y="750"/>
      <point x="274" y="870" type="curve" smooth="yes"/>
      <point x="274" y="1053"/>
      <point x="358" y="1337"/>
      <point x="518" y="1337" type="curve" smooth="yes"/>
      <point x="594" y="1337"/>
      <point x="635" y="1264"/>
      <point x="635" y="1126" type="curve" smooth="yes"/>
      <point x="635" y="979"/>
      <point x="606" y="860"/>
      <point x="547" y="786" type="curve" smooth="yes"/>
      <point x="510" y="725"/>
      <point x="457" y="684"/>
    </contour>
  </outline>
</glyph>
<glyph name="colon" format="2">
  <advance width="418"/>
  <unicode hex="003A"/>
  <outline>
    <contour>
      <point x="276" y="854" type="curve" smooth="yes"/>
      <point x="350" y="854"/>
      <point x="406" y="924"/>
      <point x="406" y="1016" type="curve" smooth="yes"/>
      <point x="406" y="1067"/>
      <point x="377" y="1106"/>
      <point x="324" y="1106" type="curve" smooth="yes"/>
      <point x="240" y="1106"/>
      <point x="190" y="1028"/>
      <point x="190" y="942" type="curve" smooth="yes"/>
      <point x="190" y="885"/>
      <point x="225" y="854"/>
    </contour>
    <contour>
      <point x="90" y="-16" type="curve" smooth="yes"/>
      <point x="162" y="-16"/>
      <point x="219" y="53"/>
      <point x="219" y="145" type="curve" smooth="yes"/>
      <point x="219" y="201"/>
      <point x="188" y="236"/>
      <point x="137" y="236" type="curve" smooth="yes"/>
      <point x="51" y="236"/>
      <point x="4" y="158"/>
      <point x="4" y="72" type="curve" smooth="yes"/>
      <point x="4" y="14"/>
      <point x="39" y="-16"/>
    </contour>
  </outline>
</glyph>
<glyph name="semicolon" format="2">
  <advance width="418"/>
  <unicode hex="003B"/>
  <outline>
    <contour>
      <point x="-102" y="-270" type="curve"/>
      <point x="20" y="-270" type="line"/>
      <point x="111" y="-121"/>
      <point x="195" y="47"/>
      <point x="258" y="209" type="curve"/>
      <point x="250" y="229" type="line"/>
      <point x="86" y="229" type="line"/>
      <point x="41" y="72"/>
      <point x="-27" y="-102"/>
    </contour>
    <contour>
      <point x="287" y="854" type="curve" smooth="yes"/>
      <point x="360" y="854"/>
      <point x="416" y="924"/>
      <point x="416" y="1016" type="curve" smooth="yes"/>
      <point x="416" y="1067"/>
      <point x="387" y="1106"/>
      <point x="334" y="1106" type="curve" smooth="yes"/>
      <point x="248" y="1106"/>
      <point x="201" y="1028"/>
      <point x="201" y="942" type="curve" smooth="yes"/>
      <point x="201" y="885"/>
      <point x="236" y="854"/>
    </contour>
  </outline>
</glyph>
<glyph name="at" format="2">
  <advance width="1200"/>
  <unicode hex="0040"/>
  <outline>
    <contour>
      <point x="451" y="-172" type="curve" smooth="yes"/>
      <point x="543" y="-172"/>
      <point x="639" y="-147"/>
      <point x="721" y="-106" type="curve"/>
      <point x="721" y="2" type="line"/>
      <point x="643" y="-39"/>
      <point x="547" y="-63"/>
      <point x="455" y="-63" type="curve" smooth="yes"/>
      <point x="248" y="-63"/>
      <point x="170" y="96"/>
      <point x="170" y="317" type="curve" smooth="yes"/>
      <point x="170" y="793"/>
      <point x="399" y="1364"/>
      <point x="793" y="1364" type="curve" smooth="yes"/>
      <point x="967" y="1364"/>
      <point x="1059" y="1241"/>
      <point x="1059" y="993" type="curve" smooth="yes"/>
      <point x="1059" y="788"/>
      <point x="963" y="344"/>
      <point x="827" y="344" type="curve" smooth="yes"/>
      <point x="791" y="344"/>
      <point x="774" y="369"/>
      <point x="774" y="426" type="curve" smooth="yes"/>
      <point x="774" y="453"/>
      <point x="782" y="498"/>
      <point x="797" y="557" type="curve" smooth="yes"/>
      <point x="915" y="1036" type="line"/>
      <point x="866" y="1061"/>
      <point x="805" y="1075"/>
      <point x="731" y="1075" type="curve" smooth="yes"/>
      <point x="473" y="1075"/>
      <point x="344" y="664"/>
      <point x="344" y="438" type="curve" smooth="yes"/>
      <point x="344" y="299"/>
      <point x="395" y="231"/>
      <point x="494" y="231" type="curve" smooth="yes"/>
      <point x="565" y="231"/>
      <point x="633" y="297"/>
      <point x="676" y="395" type="curve"/>
      <point x="678" y="395" type="line"/>
      <point x="686" y="297"/>
      <point x="715" y="236"/>
      <point x="815" y="236" type="curve" smooth="yes"/>
      <point x="1034" y="236"/>
      <point x="1178" y="700"/>
      <point x="1178" y="1006" type="curve" smooth="yes"/>
      <point x="1178" y="1286"/>
      <point x="1042" y="1475"/>
      <point x="805" y="1475" type="curve" smooth="yes"/>
      <point x="338" y="1475"/>
      <point x="49" y="862"/>
      <point x="49" y="305" type="curve" smooth="yes"/>
      <point x="49" y="23"/>
      <point x="184" y="-172"/>
    </contour>
    <contour>
      <point x="526" y="344" type="curve" smooth="yes"/>
      <point x="489" y="344"/>
      <point x="469" y="379"/>
      <point x="469" y="455" type="curve" smooth="yes"/>
      <point x="469" y="621"/>
      <point x="559" y="967"/>
      <point x="711" y="967" type="curve" smooth="yes"/>
      <point x="735" y="967"/>
      <point x="754" y="965"/>
      <point x="770" y="958" type="curve"/>
      <point x="694" y="662" type="line" smooth="yes"/>
      <point x="637" y="446"/>
      <point x="586" y="344"/>
    </contour>
  </outline>
</glyph>
<glyph name="B" format="2">
  <advance width="881"/>
  <unicode hex="0042"/>
  <anchor x="334" y="0" name="bottom"/>
  <anchor x="637" y="1462" name="top"/>
  <anchor x="1034" y="1462" name="topright"/>
  <outline>
    <contour>
      <point x="0" y="0" type="line"/>
      <point x="322" y="0" type="line" smooth="yes"/>
      <point x="618" y="0"/>
      <point x="778" y="221"/>
      <point x="778" y="494" type="curve" smooth="yes"/>
      <point x="778" y="621"/>
      <point x="723" y="731"/>
      <point x="618" y="762" type="curve"/>
      <point x="618" y="768" type="line"/>
      <point x="811" y="819"/>
      <point x="895" y="995"/>
      <point x="895" y="1178" type="curve" smooth="yes"/>
      <point x="895" y="1368"/>
      <point x="758" y="1462"/>
      <point x="580" y="1462" type="curve" smooth="yes"/>
      <point x="309" y="1462" type="line"/>
    </contour>
    <contour>
      <point x="195" y="145" type="line"/>
      <point x="311" y="694" type="line"/>
      <point x="434" y="694" type="line" smooth="yes"/>
      <point x="543" y="694"/>
      <point x="608" y="627"/>
      <point x="608" y="498" type="curve" smooth="yes"/>
      <point x="608" y="305"/>
      <point x="520" y="145"/>
      <point x="322" y="145" type="curve" smooth="yes"/>
    </contour>
    <contour>
      <point x="340" y="834" type="line"/>
      <point x="442" y="1319" type="line"/>
      <point x="547" y="1319" type="line" smooth="yes"/>
      <point x="666" y="1319"/>
      <point x="721" y="1264"/>
      <point x="721" y="1153" type="curve" smooth="yes"/>
      <point x="721" y="983"/>
      <point x="625" y="834"/>
      <point x="457" y="834" type="curve" smooth="yes"/>
    </contour>
  </outline>
</glyph>
<glyph name="D" format="2">
  <advance width="952"/>
  <unicode hex="0044"/>
  <anchor x="362" y="0" name="bottom"/>
  <anchor x="528" y="731" name="center"/>
  <anchor x="672" y="1462" name="top"/>
  <anchor x="1104" y="1462" name="topright"/>
  <outline>
    <contour>
      <point x="0" y="0" type="line"/>
      <point x="242" y="0" type="line" smooth="yes"/>
      <point x="737" y="0"/>
      <point x="922" y="586"/>
      <point x="922" y="1030" type="curve" smooth="yes"/>
      <point x="922" y="1315"/>
      <point x="791" y="1462"/>
      <point x="549" y="1462" type="curve" smooth="yes"/>
      <point x="309" y="1462" type="line"/>
    </contour>
    <contour>
      <point x="195" y="150" type="line"/>
      <point x="442" y="1313" type="line"/>
      <point x="530" y="1313" type="line" smooth="yes"/>
      <point x="676" y="1313"/>
      <point x="748" y="1223"/>
      <point x="748" y="1020" type="curve" smooth="yes"/>
      <point x="748" y="653"/>
      <point x="606" y="150"/>
      <point x="266" y="150" type="curve" smooth="yes"/>
    </contour>
  </outline>
</glyph>
<glyph name="E" format="2">
  <advance width="750"/>
  <unicode hex="0045"/>
  <anchor x="262" y="0" name="bottom"/>
  <anchor x="571" y="1462" name="top"/>
  <anchor x="905" y="1462" name="topright"/>
  <outline>
    <contour>
      <point x="0" y="0" type="line"/>
      <point x="530" y="0" type="line"/>
      <point x="561" y="147" type="line"/>
      <point x="195" y="147" type="line"/>
      <point x="309" y="690" type="line"/>
      <point x="651" y="690" type="line"/>
      <point x="684" y="838" type="line"/>
      <point x="342" y="838" type="line"/>
      <point x="442" y="1315" type="line"/>
      <point x="809" y="1315" type="line"/>
      <point x="840" y="1462" type="line"/>
      <point x="309" y="1462" type="line"/>
    </contour>
  </outline>
</glyph>
<glyph name="F" format="2">
  <advance width="707"/>
  <unicode hex="0046"/>
  <anchor x="240" y="0" name="bottom"/>
  <anchor x="549" y="1462" name="top"/>
  <anchor x="860" y="1462" name="topright"/>
  <outline>
    <contour>
      <point x="0" y="0" type="line"/>
      <point x="164" y="0" type="line"/>
      <point x="297" y="631" type="line"/>
      <point x="641" y="631" type="line"/>
      <point x="672" y="778" type="line"/>
      <point x="330" y="778" type="line"/>
      <point x="442" y="1315" type="line"/>
      <point x="809" y="1315" type="line"/>
      <point x="842" y="1462" type="line"/>
      <point x="309" y="1462" type="line"/>
    </contour>
  </outline>
</glyph>
<glyph name="G" format="2">
  <advance width="1008"/>
  <unicode hex="0047"/>
  <anchor x="389" y="0" name="bottom"/>
  <anchor x="698" y="1462" name="top"/>
  <anchor x="1159" y="1462" name="topright"/>
  <outline>
    <contour>
      <point x="465" y="-20" type="curve" smooth="yes"/>
      <point x="563" y="-20"/>
      <point x="674" y="2"/>
      <point x="780" y="43" type="curve"/>
      <point x="936" y="772" type="line"/>
      <point x="592" y="772" type="line"/>
      <point x="561" y="627" type="line"/>
      <point x="741" y="627" type="line"/>
      <point x="641" y="152" type="line"/>
      <point x="590" y="135"/>
      <point x="537" y="127"/>
      <point x="479" y="127" type="curve" smooth="yes"/>
      <point x="322" y="127"/>
      <point x="244" y="225"/>
      <point x="244" y="453" type="curve" smooth="yes"/>
      <point x="244" y="866"/>
      <point x="434" y="1335"/>
      <point x="731" y="1335" type="curve" smooth="yes"/>
      <point x="817" y="1335"/>
      <point x="891" y="1311"/>
      <point x="971" y="1251" type="curve"/>
      <point x="1053" y="1393" type="line"/>
      <point x="975" y="1448"/>
      <point x="866" y="1485"/>
      <point x="745" y="1485" type="curve" smooth="yes"/>
      <point x="356" y="1485"/>
      <point x="74" y="1020"/>
      <point x="74" y="444" type="curve" smooth="yes"/>
      <point x="74" y="139"/>
      <point x="201" y="-20"/>
    </contour>
  </outline>
</glyph>
<glyph name="H" format="2">
  <advance width="989"/>
  <unicode hex="0048"/>
  <anchor x="381" y="0" name="bottom"/>
  <anchor x="547" y="731" name="center"/>
  <anchor x="690" y="1462" name="top"/>
  <anchor x="1143" y="1462" name="topright"/>
  <outline>
    <contour>
      <point x="0" y="0" type="line"/>
      <point x="164" y="0" type="line"/>
      <point x="309" y="690" type="line"/>
      <point x="705" y="690" type="line"/>
      <point x="559" y="0" type="line"/>
      <point x="723" y="0" type="line"/>
      <point x="1034" y="1462" type="line"/>
      <point x="870" y="1462" type="line"/>
      <point x="737" y="840" type="line"/>
      <point x="342" y="840" type="line"/>
      <point x="473" y="1462" type="line"/>
      <point x="309" y="1462" type="line"/>
    </contour>
  </outline>
</glyph>
<glyph name="I" format="2">
  <advance width="430"/>
  <unicode hex="0049"/>
  <anchor x="100" y="0" name="bottom"/>
  <anchor x="408" y="1462" name="top"/>
  <anchor x="584" y="1462" name="topright"/>
  <outline>
    <contour>
      <point x="0" y="0" type="line"/>
      <point x="164" y="0" type="line"/>
      <point x="473" y="1462" type="line"/>
      <point x="309" y="1462" type="line"/>
    </contour>
  </outline>
</glyph>
<glyph name="K" format="2">
  <advance width="829"/>
  <unicode hex="004B"/>
  <anchor x="301" y="0" name="bottom"/>
  <anchor x="610" y="1462" name="top"/>
  <anchor x="983" y="1462" name="topright"/>
  <outline>
    <contour>
      <point x="0" y="0" type="line"/>
      <point x="164" y="0" type="line"/>
      <point x="281" y="553" type="line"/>
      <point x="393" y="668" type="line"/>
      <point x="524" y="0" type="line"/>
      <point x="702" y="0" type="line"/>
      <point x="535" y="793" type="line"/>
      <point x="995" y="1462" type="line"/>
      <point x="817" y="1462" type="line"/>
      <point x="432" y="909" type="line"/>
      <point x="319" y="735" type="line"/>
      <point x="473" y="1462" type="line"/>
      <point x="309" y="1462" type="line"/>
    </contour>
  </outline>
</glyph>
<glyph name="M" format="2">
  <advance width="1325"/>
  <unicode hex="004D"/>
  <anchor x="549" y="0" name="bottom"/>
  <anchor x="858" y="1462" name="top"/>
  <anchor x="1479" y="1462" name="topright"/>
  <outline>
    <contour>
      <point x="0" y="0" type="line"/>
      <point x="156" y="0" type="line"/>
      <point x="358" y="954" type="line" smooth="yes"/>
      <point x="373" y="1024"/>
      <point x="383" y="1094"/>
      <point x="399" y="1178" type="curve"/>
      <point x="403" y="1178" type="line"/>
      <point x="449" y="0" type="line"/>
      <point x="612" y="0" type="line"/>
      <point x="1149" y="1180" type="line"/>
      <point x="1153" y="1180" type="line"/>
      <point x="1137" y="1114"/>
      <point x="1122" y="1053"/>
      <point x="1108" y="991" type="curve" smooth="yes"/>
      <point x="897" y="0" type="line"/>
      <point x="1059" y="0" type="line"/>
      <point x="1370" y="1462" type="line"/>
      <point x="1124" y="1462" type="line"/>
      <point x="586" y="266" type="line"/>
      <point x="582" y="266" type="line"/>
      <point x="539" y="1462" type="line"/>
      <point x="309" y="1462" type="line"/>
    </contour>
  </outline>
</glyph>
<glyph name="N" format="2">
  <advance width="1051"/>
  <unicode hex="004E"/>
  <anchor x="412" y="0" name="bottom"/>
  <anchor x="723" y="1462" name="top"/>
  <anchor x="1206" y="1462" name="topright"/>
  <outline>
    <contour>
      <point x="0" y="0" type="line"/>
      <point x="158" y="0" type="line"/>
      <point x="315" y="750" type="line"/>
      <point x="332" y="827"/>
      <point x="377" y="1028"/>
      <point x="397" y="1184" type="curve"/>
      <point x="403" y="1184" type="line"/>
      <point x="598" y="0" type="line"/>
      <point x="786" y="0" type="line"/>
      <point x="1098" y="1462" type="line"/>
      <point x="938" y="1462" type="line"/>
      <point x="772" y="676" type="line"/>
      <point x="756" y="594"/>
      <point x="725" y="444"/>
      <point x="700" y="297" type="curve"/>
      <point x="694" y="297" type="line"/>
      <point x="504" y="1462" type="line"/>
      <point x="309" y="1462" type="line"/>
    </contour>
  </outline>
</glyph>
<glyph name="O" format="2">
  <advance width="1016"/>
  <unicode hex="004F"/>
  <anchor x="393" y="0" name="bottom"/>
  <anchor x="559" y="731" name="center"/>
  <anchor x="702" y="1462" name="top"/>
  <anchor x="1169" y="1462" name="topright"/>
  <outline>
    <contour>
      <point x="391" y="-20" type="curve" smooth="yes"/>
      <point x="817" y="-20"/>
      <point x="985" y="684"/>
      <point x="985" y="1069" type="curve" smooth="yes"/>
      <point x="985" y="1348"/>
      <point x="883" y="1483"/>
      <point x="670" y="1483" type="curve" smooth="yes"/>
      <point x="268" y="1483"/>
      <point x="72" y="852"/>
      <point x="72" y="410" type="curve" smooth="yes"/>
      <point x="72" y="117"/>
      <point x="176" y="-20"/>
    </contour>
    <contour>
      <point x="403" y="129" type="curve" smooth="yes"/>
      <point x="297" y="129"/>
      <point x="242" y="211"/>
      <point x="242" y="408" type="curve" smooth="yes"/>
      <point x="242" y="670"/>
      <point x="354" y="1335"/>
      <point x="655" y="1335" type="curve" smooth="yes"/>
      <point x="764" y="1335"/>
      <point x="817" y="1251"/>
      <point x="817" y="1071" type="curve" smooth="yes"/>
      <point x="817" y="743"/>
      <point x="682" y="129"/>
    </contour>
  </outline>
</glyph>
<glyph name="P" format="2">
  <advance width="827"/>
  <unicode hex="0050"/>
  <anchor x="299" y="0" name="bottom"/>
  <anchor x="610" y="1462" name="top"/>
  <anchor x="981" y="1462" name="topright"/>
  <outline>
    <contour>
      <point x="0" y="0" type="line"/>
      <point x="164" y="0" type="line"/>
      <point x="285" y="571" type="line"/>
      <point x="377" y="571" type="line" smooth="yes"/>
      <point x="686" y="571"/>
      <point x="864" y="817"/>
      <point x="864" y="1143" type="curve" smooth="yes"/>
      <point x="864" y="1337"/>
      <point x="750" y="1462"/>
      <point x="530" y="1462" type="curve" smooth="yes"/>
      <point x="309" y="1462" type="line"/>
    </contour>
    <contour>
      <point x="315" y="719" type="line"/>
      <point x="442" y="1315" type="line"/>
      <point x="504" y="1315" type="line" smooth="yes"/>
      <point x="629" y="1315"/>
      <point x="694" y="1249"/>
      <point x="694" y="1122" type="curve" smooth="yes"/>
      <point x="694" y="883"/>
      <point x="584" y="719"/>
      <point x="375" y="719" type="curve" smooth="yes"/>
    </contour>
  </outline>
</glyph>
<glyph name="Q" format="2">
  <advance width="1016"/>
  <unicode hex="0051"/>
  <anchor x="319" y="-348" name="bottom"/>
  <anchor x="702" y="1462" name="top"/>
  <anchor x="1169" y="1462" name="topright"/>
  <outline>
    <contour>
      <point x="485" y="-348" type="line"/>
      <point x="674" y="-348" type="line"/>
      <point x="555" y="18" type="line"/>
      <point x="862" y="162"/>
      <point x="985" y="737"/>
      <point x="985" y="1069" type="curve" smooth="yes"/>
      <point x="985" y="1348"/>
      <point x="883" y="1483"/>
      <point x="670" y="1483" type="curve" smooth="yes"/>
      <point x="268" y="1483"/>
      <point x="72" y="852"/>
      <point x="72" y="410" type="curve" smooth="yes"/>
      <point x="72" y="131"/>
      <point x="166" y="-8"/>
      <point x="358" y="-18" type="curve" smooth="yes"/>
      <point x="371" y="-18"/>
      <point x="381" y="-18"/>
      <point x="393" y="-16" type="curve"/>
    </contour>
    <contour>
      <point x="403" y="129" type="curve" smooth="yes"/>
      <point x="297" y="129"/>
      <point x="242" y="211"/>
      <point x="242" y="408" type="curve" smooth="yes"/>
      <point x="242" y="670"/>
      <point x="354" y="1335"/>
      <point x="655" y="1335" type="curve" smooth="yes"/>
      <point x="764" y="1335"/>
      <point x="817" y="1251"/>
      <point x="817" y="1071" type="curve" smooth="yes"/>
      <point x="817" y="743"/>
      <point x="682" y="129"/>
    </contour>
  </outline>
</glyph>
<glyph name="R" format="2">
  <advance width="856"/>
  <unicode hex="0052"/>
  <anchor x="313" y="0" name="bottom"/>
  <anchor x="623" y="1462" name="top"/>
  <anchor x="1010" y="1462" name="topright"/>
  <outline>
    <contour>
      <point x="0" y="0" type="line"/>
      <point x="164" y="0" type="line"/>
      <point x="293" y="612" type="line"/>
      <point x="408" y="612" type="line"/>
      <point x="518" y="0" type="line"/>
      <point x="696" y="0" type="line"/>
      <point x="565" y="645" type="line"/>
      <point x="750" y="692"/>
      <point x="866" y="901"/>
      <point x="866" y="1145" type="curve" smooth="yes"/>
      <point x="866" y="1346"/>
      <point x="748" y="1462"/>
      <point x="530" y="1462" type="curve" smooth="yes"/>
      <point x="309" y="1462" type="line"/>
    </contour>
    <contour>
      <point x="324" y="752" type="line"/>
      <point x="442" y="1317" type="line"/>
      <point x="506" y="1317" type="line" smooth="yes"/>
      <point x="629" y="1317"/>
      <point x="694" y="1251"/>
      <point x="694" y="1124" type="curve" smooth="yes"/>
      <point x="694" y="936"/>
      <point x="608" y="752"/>
      <point x="414" y="752" type="curve" smooth="yes"/>
    </contour>
  </outline>
</glyph>
<glyph name="U" format="2">
  <advance width="967"/>
  <unicode hex="0055"/>
  <anchor x="369" y="0" name="bottom"/>
  <anchor x="678" y="1462" name="top"/>
  <anchor x="1118" y="1462" name="topright"/>
  <outline>
    <contour>
      <point x="360" y="-20" type="curve" smooth="yes"/>
      <point x="625" y="-20"/>
      <point x="741" y="164"/>
      <point x="803" y="457" type="curve" smooth="yes"/>
      <point x="1020" y="1462" type="line"/>
      <point x="856" y="1462" type="line"/>
      <point x="643" y="473" type="line" smooth="yes"/>
      <point x="590" y="233"/>
      <point x="520" y="129"/>
      <point x="381" y="129" type="curve" smooth="yes"/>
      <point x="285" y="129"/>
      <point x="233" y="186"/>
      <point x="233" y="307" type="curve" smooth="yes"/>
      <point x="233" y="348"/>
      <point x="240" y="399"/>
      <point x="250" y="451" type="curve" smooth="yes"/>
      <point x="465" y="1462" type="line"/>
      <point x="301" y="1462" type="line"/>
      <point x="88" y="459" type="line" smooth="yes"/>
      <point x="74" y="397"/>
      <point x="68" y="336"/>
      <point x="68" y="287" type="curve" smooth="yes"/>
      <point x="68" y="92"/>
      <point x="176" y="-20"/>
    </contour>
  </outline>
</glyph>
<glyph name="V" format="2">
  <advance width="827"/>
  <unicode hex="0056"/>
  <anchor x="299" y="0" name="bottom"/>
  <anchor x="608" y="1462" name="top"/>
  <anchor x="981" y="1462" name="topright"/>
  <outline>
    <contour>
      <point x="184" y="0" type="line"/>
      <point x="373" y="0" type="line"/>
      <point x="995" y="1462" type="line"/>
      <point x="819" y="1462" type="line"/>
      <point x="424" y="502" type="line" smooth="yes"/>
      <point x="379" y="389"/>
      <point x="346" y="295"/>
      <point x="326" y="221" type="curve"/>
      <point x="322" y="221" type="line"/>
      <point x="332" y="350"/>
      <point x="336" y="449"/>
      <point x="336" y="543" type="curve" smooth="yes"/>
      <point x="344" y="1462" type="line"/>
      <point x="176" y="1462" type="line"/>
    </contour>
  </outline>
</glyph>
<glyph name="W" format="2">
  <advance width="1337"/>
  <unicode hex="0057"/>
  <anchor x="555" y="0" name="bottom"/>
  <anchor x="864" y="1462" name="top"/>
  <anchor x="1493" y="1462" name="topright"/>
  <outline>
    <contour>
      <point x="143" y="0" type="line"/>
      <point x="336" y="0" type="line"/>
      <point x="700" y="940" type="line" smooth="yes"/>
      <point x="725" y="1004"/>
      <point x="748" y="1073"/>
      <point x="770" y="1139" type="curve"/>
      <point x="774" y="1139" type="line"/>
      <point x="768" y="1065"/>
      <point x="762" y="989"/>
      <point x="760" y="928" type="curve" smooth="yes"/>
      <point x="725" y="0" type="line"/>
      <point x="920" y="0" type="line"/>
      <point x="1499" y="1462" type="line"/>
      <point x="1331" y="1462" type="line"/>
      <point x="979" y="559" type="line" smooth="yes"/>
      <point x="944" y="465"/>
      <point x="909" y="373"/>
      <point x="868" y="258" type="curve"/>
      <point x="864" y="258" type="line"/>
      <point x="870" y="348"/>
      <point x="879" y="442"/>
      <point x="883" y="573" type="curve" smooth="yes"/>
      <point x="913" y="1462" type="line"/>
      <point x="764" y="1462" type="line"/>
      <point x="406" y="545" type="line" smooth="yes"/>
      <point x="369" y="449"/>
      <point x="332" y="352"/>
      <point x="299" y="258" type="curve"/>
      <point x="295" y="258" type="line"/>
      <point x="301" y="330"/>
      <point x="307" y="424"/>
      <point x="311" y="545" type="curve" smooth="yes"/>
      <point x="338" y="1462" type="line"/>
      <point x="178" y="1462" type="line"/>
    </contour>
  </outline>
</glyph>
<glyph name="X" format="2">
  <advance width="760"/>
  <unicode hex="0058"/>
  <anchor x="264" y="0" name="bottom"/>
  <anchor x="575" y="1462" name="top"/>
  <anchor x="913" y="1462" name="topright"/>
  <outline>
    <contour>
      <point x="-121" y="0" type="line"/>
      <point x="53" y="0" type="line"/>
      <point x="377" y="588" type="line"/>
      <point x="434" y="0" type="line"/>
      <point x="608" y="0" type="line"/>
      <point x="508" y="748" type="line"/>
      <point x="905" y="1462" type="line"/>
      <point x="731" y="1462" type="line"/>
      <point x="451" y="924" type="line"/>
      <point x="389" y="1462" type="line"/>
      <point x="219" y="1462" type="line"/>
      <point x="319" y="770" type="line"/>
    </contour>
  </outline>
</glyph>
<glyph name="Y" format="2">
  <advance width="729"/>
  <unicode hex="0059"/>
  <anchor x="252" y="0" name="bottom"/>
  <anchor x="561" y="1462" name="top"/>
  <anchor x="883" y="1462" name="topright"/>
  <outline>
    <contour>
      <point x="150" y="0" type="line"/>
      <point x="313" y="0" type="line"/>
      <point x="434" y="567" type="line"/>
      <point x="905" y="1462" type="line"/>
      <point x="731" y="1462" type="line"/>
      <point x="395" y="784" type="line"/>
      <point x="344" y="1462" type="line"/>
      <point x="174" y="1462" type="line"/>
      <point x="268" y="563" type="line"/>
    </contour>
  </outline>
</glyph>
<glyph name="Z" format="2">
  <advance width="686"/>
  <unicode hex="005A"/>
  <anchor x="229" y="0" name="bottom"/>
  <anchor x="539" y="1462" name="top"/>
  <anchor x="840" y="1462" name="topright"/>
  <outline>
    <contour>
      <point x="-84" y="0" type="line"/>
      <point x="516" y="0" type="line"/>
      <point x="547" y="147" type="line"/>
      <point x="127" y="147" type="line"/>
      <point x="786" y="1333" type="line"/>
      <point x="813" y="1462" type="line"/>
      <point x="236" y="1462" type="line"/>
      <point x="205" y="1315" type="line"/>
      <point x="598" y="1315" type="line"/>
      <point x="-57" y="127" type="line"/>
    </contour>
  </outline>
</glyph>
<glyph name="bracketleft" format="2">
  <advance width="578"/>
  <unicode hex="005B"/>
  <outline>
    <contour>
      <point x="-55" y="-330" type="line"/>
      <point x="332" y="-330" type="line"/>
      <point x="360" y="-199" type="line"/>
      <point x="119" y="-199" type="line"/>
      <point x="449" y="1343" type="line"/>
      <point x="688" y="1343" type="line"/>
      <point x="717" y="1475" type="line"/>
      <point x="330" y="1475" type="line"/>
    </contour>
  </outline>
</glyph>
<glyph name="bracketright" format="2">
  <advance width="578"/>
  <unicode hex="005D"/>
  <outline>
    <contour>
      <point x="-135" y="-330" type="line"/>
      <point x="250" y="-330" type="line"/>
      <point x="635" y="1475" type="line"/>
      <point x="248" y="1475" type="line"/>
      <point x="219" y="1343" type="line"/>
      <point x="459" y="1343" type="line"/>
      <point x="131" y="-199" type="line"/>
      <point x="-109" y="-199" type="line"/>
    </contour>
  </outline>
</glyph>
<glyph name="asciicircum" format="2">
  <advance width="815"/>
  <unicode hex="005E"/>
  <outline>
    <contour>
      <point x="23" y="678" type="line"/>
      <point x="180" y="678" type="line"/>
      <point x="512" y="1245" type="line"/>
      <point x="664" y="678" type="line"/>
      <point x="811" y="678" type="line"/>
      <point x="602" y="1462" type="line"/>
      <point x="496" y="1462" type="line"/>
    </contour>
  </outline>
</glyph>
<glyph name="c" format="2">
  <advance width="649"/>
  <unicode hex="0063"/>
  <anchor x="209" y="0" name="bottom"/>
  <anchor x="442" y="1098" name="top"/>
  <anchor x="725" y="1098" name="topright"/>
  <outline>
    <contour>
      <point x="313" y="-20" type="curve" smooth="yes"/>
      <point x="389" y="-20"/>
      <point x="463" y="4"/>
      <point x="516" y="37" type="curve"/>
      <point x="516" y="176" type="line"/>
      <point x="455" y="139"/>
      <point x="399" y="119"/>
      <point x="350" y="119" type="curve" smooth="yes"/>
      <point x="260" y="119"/>
      <point x="213" y="184"/>
      <point x="213" y="328" type="curve" smooth="yes"/>
      <point x="213" y="584"/>
      <point x="315" y="979"/>
      <point x="526" y="979" type="curve" smooth="yes"/>
      <point x="567" y="979"/>
      <point x="612" y="965"/>
      <point x="647" y="940" type="curve"/>
      <point x="711" y="1071" type="line"/>
      <point x="659" y="1104"/>
      <point x="600" y="1118"/>
      <point x="528" y="1118" type="curve" smooth="yes"/>
      <point x="190" y="1118"/>
      <point x="51" y="635"/>
      <point x="51" y="311" type="curve" smooth="yes"/>
      <point x="51" y="94"/>
      <point x="143" y="-20"/>
    </contour>
  </outline>
</glyph>
<glyph name="e" format="2">
  <advance width="782"/>
  <unicode hex="0065"/>
  <anchor x="276" y="0" name="bottom"/>
  <anchor x="506" y="1083" name="top"/>
  <anchor x="854" y="1083" name="topright"/>
  <outline>
    <contour>
      <point x="336" y="-20" type="curve" smooth="yes"/>
      <point x="430" y="-20"/>
      <point x="512" y="-2"/>
      <point x="584" y="43" type="curve"/>
      <point x="584" y="176" type="line"/>
      <point x="504" y="131"/>
      <point x="449" y="113"/>
      <point x="375" y="113" type="curve" smooth="yes"/>
      <point x="262" y="113"/>
      <point x="207" y="180"/>
      <point x="207" y="334" type="curve" smooth="yes"/>
      <point x="207" y="387"/>
      <point x="213" y="442"/>
      <point x="223" y="494" type="curve"/>
      <point x="238" y="494" type="line" smooth="yes"/>
      <point x="557" y="494"/>
      <point x="748" y="647"/>
      <point x="748" y="891" type="curve" smooth="yes"/>
      <point x="748" y="1040"/>
      <point x="662" y="1118"/>
      <point x="526" y="1118" type="curve" smooth="yes"/>
      <point x="254" y="1118"/>
      <point x="49" y="758"/>
      <point x="49" y="315" type="curve" smooth="yes"/>
      <point x="49" y="100"/>
      <point x="156" y="-20"/>
    </contour>
    <contour>
      <point x="246" y="616" type="line"/>
      <point x="297" y="831"/>
      <point x="397" y="985"/>
      <point x="504" y="985" type="curve" smooth="yes"/>
      <point x="569" y="985"/>
      <point x="598" y="946"/>
      <point x="598" y="883" type="curve" smooth="yes"/>
      <point x="598" y="723"/>
      <point x="496" y="616"/>
      <point x="252" y="616" type="curve"/>
    </contour>
  </outline>
</glyph>
<glyph name="g" format="2">
  <advance width="796"/>
  <unicode hex="0067"/>
  <note>
g
</note>
  <anchor x="179" y="-492" name="bottom"/>
  <anchor x="510" y="1098" name="top"/>
  <anchor x="888" y="1093" name="topright"/>
  <outline>
    <contour>
      <point x="185" y="-492" type="curve" smooth="yes"/>
      <point x="293" y="-491"/>
      <point x="397" y="-459"/>
      <point x="477" y="-399" type="curve" smooth="yes"/>
      <point x="586" y="-324"/>
      <point x="657" y="-198"/>
      <point x="657" y="-49" type="curve" smooth="yes"/>
      <point x="657" y="86"/>
      <point x="597" y="177"/>
      <point x="436" y="177" type="curve"/>
      <point x="284" y="177" type="line"/>
      <point x="257" y="178"/>
      <point x="236" y="181"/>
      <point x="222" y="188" type="curve" smooth="yes"/>
      <point x="202" y="198"/>
      <point x="193" y="216"/>
      <point x="193" y="240" type="curve" smooth="yes"/>
      <point x="193" y="283"/>
      <point x="227" y="341"/>
      <point x="302" y="376" type="curve" smooth="yes"/>
      <point x="313" y="381"/>
      <point x="338" y="381"/>
      <point x="368" y="381" type="curve" smooth="yes"/>
      <point x="477" y="381"/>
      <point x="567" y="430"/>
      <point x="633" y="510" type="curve" smooth="yes"/>
      <point x="703" y="598"/>
      <point x="748" y="730"/>
      <point x="748" y="844" type="curve" smooth="yes"/>
      <point x="748" y="892"/>
      <point x="740" y="935"/>
      <point x="723" y="965" type="curve"/>
      <point x="854" y="992" type="line"/>
      <point x="874" y="1093" type="line"/>
      <point x="625" y="1093" type="line"/>
      <point x="600" y="1105"/>
      <point x="560" y="1118"/>
      <point x="502" y="1118" type="curve" smooth="yes"/>
      <point x="426" y="1118"/>
      <point x="353" y="1089"/>
      <point x="297" y="1041" type="curve" smooth="yes"/>
      <point x="181" y="951"/>
      <point x="117" y="790"/>
      <point x="117" y="642" type="curve" smooth="yes"/>
      <point x="117" y="538"/>
      <point x="152" y="462"/>
      <point x="205" y="429" type="curve"/>
      <point x="102" y="360"/>
      <point x="54" y="290"/>
      <point x="54" y="219" type="curve" smooth="yes"/>
      <point x="54" y="163"/>
      <point x="81" y="116"/>
      <point x="122" y="96" type="curve"/>
      <point x="-38" y="32"/>
      <point x="-133" y="-90"/>
      <point x="-135" y="-235" type="curve" smooth="yes"/>
      <point x="-137" y="-410"/>
      <point x="-22" y="-494"/>
    </contour>
    <contour>
      <point x="191" y="-367" type="curve" smooth="yes"/>
      <point x="82" y="-370"/>
      <point x="18" y="-334"/>
      <point x="18" y="-222" type="curve" smooth="yes"/>
      <point x="18" y="-103"/>
      <point x="137" y="33"/>
      <point x="235" y="33" type="curve"/>
      <point x="364" y="33" type="line"/>
      <point x="415" y="31"/>
      <point x="450" y="21"/>
      <point x="469" y="3" type="curve" smooth="yes"/>
      <point x="492" y="-20"/>
      <point x="499" y="-51"/>
      <point x="499" y="-87" type="curve" smooth="yes"/>
      <point x="499" y="-168"/>
      <point x="458" y="-246"/>
      <point x="399" y="-294" type="curve" smooth="yes"/>
      <point x="344" y="-341"/>
      <point x="268" y="-366"/>
    </contour>
    <contour>
      <point x="369" y="499" type="curve" smooth="yes"/>
      <point x="331" y="499"/>
      <point x="306" y="516"/>
      <point x="293" y="548" type="curve" smooth="yes"/>
      <point x="280" y="575"/>
      <point x="276" y="614"/>
      <point x="279" y="660" type="curve" smooth="yes"/>
      <point x="287" y="807"/>
      <point x="380" y="1001"/>
      <point x="499" y="1001" type="curve" smooth="yes"/>
      <point x="526" y="1001"/>
      <point x="545" y="993"/>
      <point x="559" y="978" type="curve" smooth="yes"/>
      <point x="584" y="952"/>
      <point x="591" y="905"/>
      <point x="586" y="845" type="curve" smooth="yes"/>
      <point x="575" y="659"/>
      <point x="485" y="499"/>
    </contour>
  </outline>
</glyph>
<glyph name="i" format="2">
  <advance width="393"/>
  <unicode hex="0069"/>
  <anchor x="82" y="0" name="bottom"/>
  <anchor x="401" y="1509" name="top"/>
  <anchor x="557" y="1509" name="topright"/>
  <outline>
    <contour>
      <point x="-2" y="0" type="line"/>
      <point x="156" y="0" type="line"/>
      <point x="389" y="1098" type="line"/>
      <point x="231" y="1098" type="line"/>
    </contour>
    <contour>
      <point x="356" y="1282" type="curve" smooth="yes"/>
      <point x="426" y="1282"/>
      <point x="471" y="1350"/>
      <point x="471" y="1434" type="curve" smooth="yes"/>
      <point x="471" y="1485"/>
      <point x="444" y="1509"/>
      <point x="395" y="1509" type="curve" smooth="yes"/>
      <point x="317" y="1509"/>
      <point x="279" y="1434"/>
      <point x="279" y="1362" type="curve" smooth="yes"/>
      <point x="279" y="1309"/>
      <point x="305" y="1282"/>
    </contour>
  </outline>
</glyph>
<glyph name="j" format="2">
  <advance width="395"/>
  <unicode hex="006A"/>
  <anchor x="-160" y="-492" name="bottom"/>
  <anchor x="403" y="1509" name="top"/>
  <anchor x="559" y="1509" name="topright"/>
  <outline>
    <contour>
      <point x="-160" y="-492" type="curve" smooth="yes"/>
      <point x="33" y="-492"/>
      <point x="88" y="-332"/>
      <point x="135" y="-102" type="curve" smooth="yes"/>
      <point x="391" y="1098" type="line"/>
      <point x="233" y="1098" type="line"/>
      <point x="-18" y="-90" type="line" smooth="yes"/>
      <point x="-57" y="-289"/>
      <point x="-86" y="-348"/>
      <point x="-178" y="-348" type="curve" smooth="yes"/>
      <point x="-207" y="-348"/>
      <point x="-242" y="-344"/>
      <point x="-264" y="-334" type="curve"/>
      <point x="-264" y="-477" type="line"/>
      <point x="-233" y="-487"/>
      <point x="-199" y="-492"/>
    </contour>
    <contour>
      <point x="358" y="1282" type="curve" smooth="yes"/>
      <point x="428" y="1282"/>
      <point x="473" y="1350"/>
      <point x="473" y="1434" type="curve" smooth="yes"/>
      <point x="473" y="1485"/>
      <point x="446" y="1509"/>
      <point x="397" y="1509" type="curve" smooth="yes"/>
      <point x="319" y="1509"/>
      <point x="281" y="1434"/>
      <point x="281" y="1362" type="curve" smooth="yes"/>
      <point x="281" y="1309"/>
      <point x="307" y="1282"/>
    </contour>
  </outline>
</glyph>
<glyph name="k" format="2">
  <advance width="739"/>
  <unicode hex="006B"/>
  <anchor x="256" y="0" name="bottom"/>
  <anchor x="586" y="1556" name="top"/>
  <anchor x="915" y="1556" name="topright"/>
  <outline>
    <contour>
      <point x="0" y="0" type="line"/>
      <point x="158" y="0" type="line"/>
      <point x="238" y="387" type="line"/>
      <point x="362" y="522" type="line"/>
      <point x="449" y="0" type="line"/>
      <point x="616" y="0" type="line"/>
      <point x="500" y="653" type="line"/>
      <point x="829" y="1098" type="line"/>
      <point x="657" y="1098" type="line"/>
      <point x="279" y="586" type="line"/>
      <point x="274" y="586" type="line"/>
      <point x="299" y="676"/>
      <point x="315" y="750"/>
      <point x="328" y="805" type="curve" smooth="yes"/>
      <point x="489" y="1556" type="line"/>
      <point x="332" y="1556" type="line"/>
    </contour>
  </outline>
</glyph>
<glyph name="m" format="2">
  <advance width="1255"/>
  <unicode hex="006D"/>
  <anchor x="514" y="0" name="bottom"/>
  <anchor x="743" y="1083" name="top"/>
  <anchor x="1329" y="1083" name="topright"/>
  <outline>
    <contour>
      <point x="-2" y="0" type="line"/>
      <point x="158" y="0" type="line"/>
      <point x="285" y="598" type="line" smooth="yes"/>
      <point x="324" y="793"/>
      <point x="385" y="975"/>
      <point x="524" y="975" type="curve" smooth="yes"/>
      <point x="582" y="975"/>
      <point x="610" y="938"/>
      <point x="610" y="868" type="curve" smooth="yes"/>
      <point x="610" y="840"/>
      <point x="606" y="797"/>
      <point x="596" y="754" type="curve" smooth="yes"/>
      <point x="436" y="0" type="line"/>
      <point x="594" y="0" type="line"/>
      <point x="745" y="711" type="line" smooth="yes"/>
      <point x="772" y="840"/>
      <point x="836" y="975"/>
      <point x="948" y="975" type="curve" smooth="yes"/>
      <point x="1006" y="975"/>
      <point x="1036" y="938"/>
      <point x="1036" y="866" type="curve" smooth="yes"/>
      <point x="1036" y="838"/>
      <point x="1028" y="786"/>
      <point x="1018" y="737" type="curve" smooth="yes"/>
      <point x="862" y="0" type="line"/>
      <point x="1020" y="0" type="line"/>
      <point x="1182" y="768" type="line" smooth="yes"/>
      <point x="1192" y="817"/>
      <point x="1200" y="868"/>
      <point x="1200" y="909" type="curve" smooth="yes"/>
      <point x="1200" y="1047"/>
      <point x="1130" y="1118"/>
      <point x="1014" y="1118" type="curve" smooth="yes"/>
      <point x="915" y="1118"/>
      <point x="836" y="1067"/>
      <point x="774" y="977" type="curve"/>
      <point x="770" y="977" type="line"/>
      <point x="750" y="1073"/>
      <point x="690" y="1118"/>
      <point x="586" y="1118" type="curve" smooth="yes"/>
      <point x="487" y="1118"/>
      <point x="406" y="1061"/>
      <point x="346" y="954" type="curve"/>
      <point x="340" y="954" type="line"/>
      <point x="360" y="1098" type="line"/>
      <point x="231" y="1098" type="line"/>
    </contour>
  </outline>
</glyph>
<glyph name="n" format="2">
  <advance width="842"/>
  <unicode hex="006E"/>
  <anchor x="309" y="0" name="bottom"/>
  <anchor x="541" y="1087" name="top"/>
  <anchor x="913" y="1083" name="topright"/>
  <outline>
    <contour>
      <point x="-2" y="0" type="line"/>
      <point x="158" y="0" type="line"/>
      <point x="283" y="590" type="line" smooth="yes"/>
      <point x="336" y="838"/>
      <point x="410" y="973"/>
      <point x="532" y="973" type="curve" smooth="yes"/>
      <point x="592" y="973"/>
      <point x="621" y="938"/>
      <point x="621" y="877" type="curve" smooth="yes"/>
      <point x="621" y="823"/>
      <point x="606" y="748"/>
      <point x="592" y="682" type="curve" smooth="yes"/>
      <point x="449" y="0" type="line"/>
      <point x="606" y="0" type="line"/>
      <point x="756" y="705" type="line" smooth="yes"/>
      <point x="770" y="776"/>
      <point x="784" y="854"/>
      <point x="784" y="911" type="curve" smooth="yes"/>
      <point x="784" y="1055"/>
      <point x="700" y="1118"/>
      <point x="588" y="1118" type="curve" smooth="yes"/>
      <point x="489" y="1118"/>
      <point x="406" y="1059"/>
      <point x="346" y="950" type="curve"/>
      <point x="340" y="950" type="line"/>
      <point x="360" y="1098" type="line"/>
      <point x="231" y="1098" type="line"/>
    </contour>
  </outline>
</glyph>
<glyph name="q" format="2">
  <advance width="864"/>
  <unicode hex="0071"/>
  <anchor x="215" y="-489" name="bottom"/>
  <anchor x="547" y="1083" name="top"/>
  <anchor x="938" y="1083" name="topright"/>
  <outline>
    <contour>
      <point x="367" y="-489" type="line"/>
      <point x="524" y="-489" type="line"/>
      <point x="860" y="1098" type="line"/>
      <point x="725" y="1098" type="line"/>
      <point x="682" y="958" type="line"/>
      <point x="678" y="958" type="line"/>
      <point x="653" y="1063"/>
      <point x="596" y="1118"/>
      <point x="494" y="1118" type="curve" smooth="yes"/>
      <point x="186" y="1118"/>
      <point x="49" y="578"/>
      <point x="49" y="279" type="curve" smooth="yes"/>
      <point x="49" y="82"/>
      <point x="125" y="-20"/>
      <point x="258" y="-20" type="curve" smooth="yes"/>
      <point x="354" y="-20"/>
      <point x="434" y="35"/>
      <point x="504" y="143" type="curve"/>
      <point x="508" y="143" type="line"/>
      <point x="492" y="84"/>
      <point x="475" y="25"/>
      <point x="467" y="-12" type="curve" smooth="yes"/>
    </contour>
    <contour>
      <point x="317" y="119" type="curve" smooth="yes"/>
      <point x="246" y="119"/>
      <point x="213" y="174"/>
      <point x="213" y="295" type="curve" smooth="yes"/>
      <point x="213" y="539"/>
      <point x="319" y="977"/>
      <point x="508" y="977" type="curve" smooth="yes"/>
      <point x="582" y="977"/>
      <point x="625" y="922"/>
      <point x="625" y="821" type="curve" smooth="yes"/>
      <point x="625" y="588"/>
      <point x="514" y="119"/>
    </contour>
  </outline>
</glyph>
<glyph name="t" format="2">
  <advance width="487"/>
  <unicode hex="0074"/>
  <anchor x="150" y="0" name="bottom"/>
  <anchor x="260" y="543" name="center"/>
  <anchor x="416" y="1348" name="top"/>
  <anchor x="623" y="1348" name="topright"/>
  <outline>
    <contour>
      <point x="209" y="-20" type="curve" smooth="yes"/>
      <point x="254" y="-20"/>
      <point x="313" y="-10"/>
      <point x="358" y="10" type="curve"/>
      <point x="358" y="139" type="line"/>
      <point x="330" y="127"/>
      <point x="293" y="121"/>
      <point x="268" y="121" type="curve" smooth="yes"/>
      <point x="223" y="121"/>
      <point x="207" y="143"/>
      <point x="207" y="190" type="curve" smooth="yes"/>
      <point x="207" y="217"/>
      <point x="215" y="258"/>
      <point x="223" y="299" type="curve" smooth="yes"/>
      <point x="365" y="963" type="line"/>
      <point x="520" y="963" type="line"/>
      <point x="549" y="1098" type="line"/>
      <point x="393" y="1098" type="line"/>
      <point x="446" y="1348" type="line"/>
      <point x="332" y="1348" type="line"/>
      <point x="244" y="1096" type="line"/>
      <point x="127" y="1053" type="line"/>
      <point x="109" y="963" type="line"/>
      <point x="207" y="963" type="line"/>
      <point x="68" y="309" type="line" smooth="yes"/>
      <point x="55" y="252"/>
      <point x="49" y="203"/>
      <point x="49" y="164" type="curve" smooth="yes"/>
      <point x="49" y="49"/>
      <point x="96" y="-20"/>
    </contour>
  </outline>
</glyph>
<glyph name="u" format="2">
  <advance width="846"/>
  <unicode hex="0075"/>
  <anchor x="307" y="0" name="bottom"/>
  <anchor x="541" y="1098" name="top"/>
  <anchor x="922" y="1098" name="topright"/>
  <outline>
    <contour>
      <point x="248" y="-20" type="curve" smooth="yes"/>
      <point x="338" y="-20"/>
      <point x="422" y="37"/>
      <point x="483" y="139" type="curve"/>
      <point x="489" y="139" type="line"/>
      <point x="477" y="0" type="line"/>
      <point x="604" y="0" type="line"/>
      <point x="836" y="1098" type="line"/>
      <point x="678" y="1098" type="line"/>
      <point x="553" y="508" type="line" smooth="yes"/>
      <point x="502" y="262"/>
      <point x="422" y="123"/>
      <point x="301" y="123" type="curve" smooth="yes"/>
      <point x="242" y="123"/>
      <point x="215" y="162"/>
      <point x="215" y="225" type="curve" smooth="yes"/>
      <point x="215" y="276"/>
      <point x="223" y="334"/>
      <point x="238" y="393" type="curve" smooth="yes"/>
      <point x="387" y="1098" type="line"/>
      <point x="229" y="1098" type="line"/>
      <point x="74" y="371" type="line" smooth="yes"/>
      <point x="61" y="313"/>
      <point x="51" y="242"/>
      <point x="51" y="193" type="curve" smooth="yes"/>
      <point x="51" y="55"/>
      <point x="119" y="-20"/>
    </contour>
  </outline>
</glyph>
<glyph name="v" format="2">
  <advance width="688"/>
  <unicode hex="0076"/>
  <anchor x="229" y="0" name="bottom"/>
  <anchor x="459" y="1083" name="top"/>
  <anchor x="762" y="1083" name="topright"/>
  <outline>
    <contour>
      <point x="137" y="0" type="line"/>
      <point x="311" y="0" type="line"/>
      <point x="793" y="1098" type="line"/>
      <point x="629" y="1098" type="line"/>
      <point x="346" y="426" type="line" smooth="yes"/>
      <point x="319" y="362"/>
      <point x="295" y="301"/>
      <point x="272" y="229" type="curve"/>
      <point x="264" y="229" type="line"/>
      <point x="270" y="285"/>
      <point x="274" y="424"/>
      <point x="274" y="489" type="curve" smooth="yes"/>
      <point x="279" y="1098" type="line"/>
      <point x="121" y="1098" type="line"/>
    </contour>
  </outline>
</glyph>
<glyph name="x" format="2">
  <advance width="705"/>
  <unicode hex="0078"/>
  <anchor x="238" y="0" name="bottom"/>
  <anchor x="467" y="1083" name="top"/>
  <anchor x="778" y="1083" name="topright"/>
  <outline>
    <contour>
      <point x="-94" y="0" type="line"/>
      <point x="78" y="0" type="line"/>
      <point x="322" y="420" type="line"/>
      <point x="395" y="0" type="line"/>
      <point x="561" y="0" type="line"/>
      <point x="444" y="557" type="line"/>
      <point x="782" y="1098" type="line"/>
      <point x="608" y="1098" type="line"/>
      <point x="383" y="707" type="line"/>
      <point x="319" y="1098" type="line"/>
      <point x="154" y="1098" type="line"/>
      <point x="258" y="571" type="line"/>
    </contour>
  </outline>
</glyph>
<glyph name="y" format="2">
  <advance width="696"/>
  <unicode hex="0079"/>
  <anchor x="129" y="-494" name="bottom"/>
  <anchor x="465" y="1083" name="top"/>
  <anchor x="770" y="1083" name="topright"/>
  <outline>
    <contour>
      <point x="-84" y="-494" type="curve" smooth="yes"/>
      <point x="74" y="-494"/>
      <point x="150" y="-383"/>
      <point x="227" y="-211" type="curve" smooth="yes"/>
      <point x="803" y="1098" type="line"/>
      <point x="639" y="1098" type="line"/>
      <point x="371" y="463" type="line" smooth="yes"/>
      <point x="348" y="406"/>
      <point x="315" y="322"/>
      <point x="289" y="238" type="curve"/>
      <point x="283" y="238" type="line"/>
      <point x="289" y="322"/>
      <point x="291" y="408"/>
      <point x="291" y="489" type="curve" smooth="yes"/>
      <point x="289" y="1098" type="line"/>
      <point x="131" y="1098" type="line"/>
      <point x="158" y="4" type="line"/>
      <point x="80" y="-174" type="line" smooth="yes"/>
      <point x="33" y="-283"/>
      <point x="-8" y="-348"/>
      <point x="-88" y="-348" type="curve" smooth="yes"/>
      <point x="-119" y="-348"/>
      <point x="-145" y="-342"/>
      <point x="-172" y="-332" type="curve"/>
      <point x="-193" y="-473" type="line"/>
      <point x="-164" y="-485"/>
      <point x="-129" y="-494"/>
    </contour>
  </outline>
</glyph>
<glyph name="z" format="2">
  <advance width="580"/>
  <unicode hex="007A"/>
  <anchor x="176" y="0" name="bottom"/>
  <anchor x="406" y="1083" name="top"/>
  <anchor x="653" y="1083" name="topright"/>
  <outline>
    <contour>
      <point x="-74" y="0" type="line"/>
      <point x="420" y="0" type="line"/>
      <point x="451" y="137" type="line"/>
      <point x="135" y="137" type="line"/>
      <point x="616" y="985" type="line"/>
      <point x="641" y="1098" type="line"/>
      <point x="178" y="1098" type="line"/>
      <point x="150" y="963" type="line"/>
      <point x="436" y="963" type="line"/>
      <point x="-51" y="106" type="line"/>
    </contour>
  </outline>
</glyph>
<glyph name="asciitilde" format="2">
  <advance width="881"/>
  <unicode hex="007E"/>
  <outline>
    <contour>
      <point x="440" y="655" type="curve" smooth="yes"/>
      <point x="516" y="616"/>
      <point x="563" y="596"/>
      <point x="645" y="596" type="curve" smooth="yes"/>
      <point x="723" y="596"/>
      <point x="791" y="633"/>
      <point x="844" y="696" type="curve"/>
      <point x="844" y="854" type="line"/>
      <point x="788" y="784"/>
      <point x="717" y="735"/>
      <point x="653" y="735" type="curve" smooth="yes"/>
      <point x="602" y="735"/>
      <point x="551" y="754"/>
      <point x="481" y="791" type="curve" smooth="yes"/>
      <point x="410" y="827"/>
      <point x="354" y="852"/>
      <point x="279" y="852" type="curve" smooth="yes"/>
      <point x="199" y="852"/>
      <point x="133" y="815"/>
      <point x="80" y="748" type="curve"/>
      <point x="80" y="590" type="line"/>
      <point x="141" y="666"/>
      <point x="211" y="711"/>
      <point x="270" y="711" type="curve" smooth="yes"/>
      <point x="319" y="711"/>
      <point x="379" y="690"/>
    </contour>
  </outline>
</glyph>
<glyph name="exclamdown" format="2">
  <advance width="481"/>
  <unicode hex="00A1"/>
  <outline>
    <contour>
      <point x="-43" y="-379" type="line"/>
      <point x="143" y="-379" type="line"/>
      <point x="342" y="686" type="line"/>
      <point x="215" y="686" type="line"/>
    </contour>
    <contour>
      <point x="317" y="858" type="curve" smooth="yes"/>
      <point x="403" y="858"/>
      <point x="453" y="936"/>
      <point x="453" y="1022" type="curve" smooth="yes"/>
      <point x="453" y="1079"/>
      <point x="418" y="1110"/>
      <point x="365" y="1110" type="curve" smooth="yes"/>
      <point x="293" y="1110"/>
      <point x="238" y="1040"/>
      <point x="238" y="948" type="curve" smooth="yes"/>
      <point x="238" y="893"/>
      <point x="268" y="858"/>
    </contour>
  </outline>
</glyph>
<glyph name="sterling" format="2">
  <advance width="803"/>
  <unicode hex="00A3"/>
  <outline>
    <contour>
      <point x="-47" y="0" type="line"/>
      <point x="602" y="0" type="line"/>
      <point x="633" y="147" type="line"/>
      <point x="164" y="147" type="line"/>
      <point x="242" y="197"/>
      <point x="299" y="285"/>
      <point x="330" y="430" type="curve" smooth="yes"/>
      <point x="381" y="668" type="line"/>
      <point x="608" y="668" type="line"/>
      <point x="635" y="799" type="line"/>
      <point x="408" y="799" type="line"/>
      <point x="473" y="1110" type="line" smooth="yes"/>
      <point x="506" y="1260"/>
      <point x="551" y="1335"/>
      <point x="653" y="1335" type="curve" smooth="yes"/>
      <point x="713" y="1335"/>
      <point x="764" y="1311"/>
      <point x="809" y="1270" type="curve"/>
      <point x="887" y="1401" type="line"/>
      <point x="819" y="1456"/>
      <point x="745" y="1483"/>
      <point x="655" y="1483" type="curve" smooth="yes"/>
      <point x="461" y="1483"/>
      <point x="367" y="1352"/>
      <point x="319" y="1139" type="curve" smooth="yes"/>
      <point x="248" y="799" type="line"/>
      <point x="113" y="799" type="line"/>
      <point x="86" y="668" type="line"/>
      <point x="221" y="668" type="line"/>
      <point x="170" y="428" type="line" smooth="yes"/>
      <point x="135" y="268"/>
      <point x="74" y="178"/>
      <point x="-18" y="135" type="curve"/>
    </contour>
  </outline>
</glyph>
<glyph name="currency" format="2">
  <advance width="1036"/>
  <unicode hex="00A4"/>
  <outline>
    <contour>
      <point x="895" y="291" type="line"/>
      <point x="971" y="367" type="line"/>
      <point x="842" y="498" type="line"/>
      <point x="891" y="565"/>
      <point x="918" y="641"/>
      <point x="918" y="723" type="curve" smooth="yes"/>
      <point x="918" y="805"/>
      <point x="891" y="881"/>
      <point x="840" y="948" type="curve"/>
      <point x="971" y="1077" type="line"/>
      <point x="893" y="1155" type="line"/>
      <point x="762" y="1024" type="line"/>
      <point x="694" y="1075"/>
      <point x="618" y="1100"/>
      <point x="539" y="1100" type="curve" smooth="yes"/>
      <point x="461" y="1100"/>
      <point x="383" y="1075"/>
      <point x="315" y="1024" type="curve"/>
      <point x="184" y="1155" type="line"/>
      <point x="106" y="1077" type="line"/>
      <point x="238" y="946" type="line"/>
      <point x="186" y="877"/>
      <point x="162" y="801"/>
      <point x="162" y="723" type="curve" smooth="yes"/>
      <point x="162" y="643"/>
      <point x="186" y="567"/>
      <point x="238" y="500" type="curve"/>
      <point x="109" y="371" type="line"/>
      <point x="184" y="293" type="line"/>
      <point x="313" y="422" type="line"/>
      <point x="379" y="373"/>
      <point x="457" y="346"/>
      <point x="539" y="346" type="curve" smooth="yes"/>
      <point x="618" y="346"/>
      <point x="694" y="373"/>
      <point x="762" y="420" type="curve"/>
    </contour>
    <contour>
      <point x="537" y="461" type="curve" smooth="yes"/>
      <point x="393" y="461"/>
      <point x="274" y="578"/>
      <point x="274" y="723" type="curve" smooth="yes"/>
      <point x="274" y="868"/>
      <point x="395" y="987"/>
      <point x="539" y="987" type="curve" smooth="yes"/>
      <point x="680" y="987"/>
      <point x="805" y="864"/>
      <point x="803" y="723" type="curve" smooth="yes"/>
      <point x="803" y="582"/>
      <point x="686" y="461"/>
    </contour>
  </outline>
</glyph>
<glyph name="yen" format="2">
  <advance width="795"/>
  <unicode hex="00A5"/>
  <outline>
    <contour>
      <point x="180" y="0" type="line"/>
      <point x="340" y="0" type="line"/>
      <point x="399" y="270" type="line"/>
      <point x="606" y="270" type="line"/>
      <point x="629" y="387" type="line"/>
      <point x="422" y="387" type="line"/>
      <point x="461" y="565" type="line"/>
      <point x="668" y="565" type="line"/>
      <point x="692" y="682" type="line"/>
      <point x="512" y="682" type="line"/>
      <point x="899" y="1462" type="line"/>
      <point x="733" y="1462" type="line"/>
      <point x="430" y="801" type="line"/>
      <point x="403" y="1462" type="line"/>
      <point x="242" y="1462" type="line"/>
      <point x="299" y="682" type="line"/>
      <point x="123" y="682" type="line"/>
      <point x="98" y="565" type="line"/>
      <point x="299" y="565" type="line"/>
      <point x="262" y="387" type="line"/>
      <point x="59" y="387" type="line"/>
      <point x="35" y="270" type="line"/>
      <point x="238" y="270" type="line"/>
    </contour>
  </outline>
</glyph>
<glyph name="brokenbar" format="2">
  <advance width="750"/>
  <unicode hex="00A6"/>
  <outline>
    <contour>
      <point x="299" y="782" type="line"/>
      <point x="442" y="782" type="line"/>
      <point x="442" y="1563" type="line"/>
      <point x="299" y="1563" type="line"/>
    </contour>
    <contour>
      <point x="299" y="-485" type="line"/>
      <point x="442" y="-485" type="line"/>
      <point x="442" y="295" type="line"/>
      <point x="299" y="295" type="line"/>
    </contour>
  </outline>
</glyph>
<glyph name="section" format="2">
  <advance width="707"/>
  <unicode hex="00A7"/>
  <outline>
    <contour>
      <point x="225" y="61" type="curve" smooth="yes"/>
      <point x="416" y="61"/>
      <point x="553" y="197"/>
      <point x="553" y="381" type="curve" smooth="yes"/>
      <point x="553" y="459"/>
      <point x="522" y="520"/>
      <point x="477" y="567" type="curve"/>
      <point x="594" y="645"/>
      <point x="657" y="731"/>
      <point x="657" y="860" type="curve" smooth="yes"/>
      <point x="657" y="950"/>
      <point x="608" y="1020"/>
      <point x="485" y="1106" type="curve" smooth="yes"/>
      <point x="414" y="1157"/>
      <point x="365" y="1202"/>
      <point x="365" y="1278" type="curve" smooth="yes"/>
      <point x="365" y="1376"/>
      <point x="438" y="1438"/>
      <point x="530" y="1438" type="curve" smooth="yes"/>
      <point x="594" y="1438"/>
      <point x="655" y="1417"/>
      <point x="709" y="1374" type="curve"/>
      <point x="774" y="1485" type="line"/>
      <point x="709" y="1532"/>
      <point x="627" y="1556"/>
      <point x="526" y="1556" type="curve" smooth="yes"/>
      <point x="340" y="1550"/>
      <point x="219" y="1425"/>
      <point x="219" y="1272" type="curve" smooth="yes"/>
      <point x="219" y="1192"/>
      <point x="244" y="1130"/>
      <point x="303" y="1073" type="curve"/>
      <point x="176" y="1012"/>
      <point x="106" y="926"/>
      <point x="106" y="801" type="curve" smooth="yes"/>
      <point x="106" y="680"/>
      <point x="190" y="606"/>
      <point x="283" y="541" type="curve" smooth="yes"/>
      <point x="360" y="483"/>
      <point x="406" y="438"/>
      <point x="406" y="367" type="curve" smooth="yes"/>
      <point x="406" y="258"/>
      <point x="326" y="182"/>
      <point x="217" y="182" type="curve" smooth="yes"/>
      <point x="143" y="182"/>
      <point x="55" y="209"/>
      <point x="-8" y="260" type="curve"/>
      <point x="-8" y="119" type="line"/>
      <point x="43" y="84"/>
      <point x="127" y="61"/>
    </contour>
    <contour>
      <point x="406" y="633" type="curve"/>
      <point x="301" y="702"/>
      <point x="250" y="754"/>
      <point x="250" y="829" type="curve" smooth="yes"/>
      <point x="250" y="911"/>
      <point x="295" y="975"/>
      <point x="383" y="1012" type="curve"/>
      <point x="481" y="942"/>
      <point x="514" y="901"/>
      <point x="514" y="827" type="curve" smooth="yes"/>
      <point x="514" y="750"/>
      <point x="475" y="682"/>
    </contour>
  </outline>
</glyph>
<glyph name="dieresis" format="2">
  <advance width="963"/>
  <unicode hex="00A8"/>
  <outline>
    <contour>
      <point x="731" y="1292" type="curve" smooth="yes"/>
      <point x="791" y="1292"/>
      <point x="836" y="1350"/>
      <point x="836" y="1430" type="curve" smooth="yes"/>
      <point x="836" y="1477"/>
      <point x="811" y="1501"/>
      <point x="768" y="1501" type="curve" smooth="yes"/>
      <point x="700" y="1501"/>
      <point x="659" y="1438"/>
      <point x="659" y="1368" type="curve" smooth="yes"/>
      <point x="659" y="1317"/>
      <point x="684" y="1292"/>
    </contour>
    <contour>
      <point x="424" y="1292" type="curve" smooth="yes"/>
      <point x="485" y="1292"/>
      <point x="528" y="1350"/>
      <point x="528" y="1430" type="curve" smooth="yes"/>
      <point x="528" y="1477"/>
      <point x="504" y="1501"/>
      <point x="463" y="1501" type="curve" smooth="yes"/>
      <point x="393" y="1501"/>
      <point x="354" y="1438"/>
      <point x="354" y="1368" type="curve" smooth="yes"/>
      <point x="354" y="1317"/>
      <point x="379" y="1292"/>
    </contour>
  </outline>
</glyph>
<glyph name="guillemotleft" format="2">
  <advance width="858"/>
  <unicode hex="00AB"/>
  <outline>
    <contour>
      <point x="246" y="125" type="line"/>
      <point x="367" y="178" type="line"/>
      <point x="227" y="537" type="line"/>
      <point x="506" y="883" type="line"/>
      <point x="399" y="950" type="line"/>
      <point x="59" y="555" type="line"/>
      <point x="55" y="528" type="line"/>
    </contour>
    <contour>
      <point x="604" y="125" type="line"/>
      <point x="725" y="178" type="line"/>
      <point x="586" y="537" type="line"/>
      <point x="862" y="883" type="line"/>
      <point x="756" y="950" type="line"/>
      <point x="416" y="555" type="line"/>
      <point x="412" y="528" type="line"/>
    </contour>
  </outline>
</glyph>
<glyph name="registered" format="2">
  <advance width="1700"/>
  <unicode hex="00AE"/>
  <outline>
    <contour>
      <point x="580" y="297" type="line"/>
      <point x="725" y="297" type="line"/>
      <point x="725" y="645" type="line"/>
      <point x="862" y="645" type="line"/>
      <point x="1030" y="297" type="line"/>
      <point x="1190" y="297" type="line"/>
      <point x="993" y="678" type="line"/>
      <point x="1092" y="723"/>
      <point x="1139" y="801"/>
      <point x="1139" y="918" type="curve" smooth="yes"/>
      <point x="1139" y="1092"/>
      <point x="1024" y="1176"/>
      <point x="819" y="1176" type="curve" smooth="yes"/>
      <point x="580" y="1176" type="line"/>
    </contour>
    <contour>
      <point x="723" y="756" type="line"/>
      <point x="723" y="1057" type="line"/>
      <point x="811" y="1057" type="line" smooth="yes"/>
      <point x="932" y="1057"/>
      <point x="987" y="1012"/>
      <point x="987" y="911" type="curve" smooth="yes"/>
      <point x="987" y="805"/>
      <point x="920" y="756"/>
      <point x="811" y="756" type="curve" smooth="yes"/>
    </contour>
    <contour>
      <point x="850" y="-20" type="curve" smooth="yes"/>
      <point x="1282" y="-20"/>
      <point x="1602" y="295"/>
      <point x="1602" y="731" type="curve" smooth="yes"/>
      <point x="1602" y="1153"/>
      <point x="1294" y="1483"/>
      <point x="850" y="1483" type="curve" smooth="yes"/>
      <point x="432" y="1483"/>
      <point x="98" y="1178"/>
      <point x="98" y="731" type="curve" smooth="yes"/>
      <point x="98" y="324"/>
      <point x="387" y="-20"/>
    </contour>
    <contour>
      <point x="850" y="88" type="curve" smooth="yes"/>
      <point x="492" y="88"/>
      <point x="213" y="346"/>
      <point x="213" y="731" type="curve" smooth="yes"/>
      <point x="213" y="1092"/>
      <point x="471" y="1374"/>
      <point x="850" y="1374" type="curve" smooth="yes"/>
      <point x="1214" y="1374"/>
      <point x="1485" y="1104"/>
      <point x="1485" y="731" type="curve" smooth="yes"/>
      <point x="1485" y="371"/>
      <point x="1229" y="88"/>
    </contour>
  </outline>
</glyph>
<glyph name="overscore" format="2">
  <advance width="809"/>
  <unicode hex="00AF"/>
  <outline>
    <contour>
      <point x="188" y="1556" type="line"/>
      <point x="1010" y="1556" type="line"/>
      <point x="1036" y="1681" type="line"/>
      <point x="217" y="1681" type="line"/>
    </contour>
  </outline>
</glyph>
<glyph name="degree" format="2">
  <advance width="748"/>
  <unicode hex="00B0"/>
  <outline>
    <contour>
      <point x="373" y="932" type="curve" smooth="yes"/>
      <point x="532" y="932"/>
      <point x="655" y="1036"/>
      <point x="655" y="1206" type="curve" smooth="yes"/>
      <point x="655" y="1374"/>
      <point x="535" y="1481"/>
      <point x="373" y="1481" type="curve" smooth="yes"/>
      <point x="213" y="1481"/>
      <point x="92" y="1376"/>
      <point x="92" y="1206" type="curve" smooth="yes"/>
      <point x="92" y="1038"/>
      <point x="209" y="932"/>
    </contour>
    <contour>
      <point x="375" y="1038" type="curve" smooth="yes"/>
      <point x="279" y="1038"/>
      <point x="211" y="1102"/>
      <point x="211" y="1206" type="curve" smooth="yes"/>
      <point x="211" y="1300"/>
      <point x="268" y="1374"/>
      <point x="375" y="1374" type="curve" smooth="yes"/>
      <point x="475" y="1374"/>
      <point x="537" y="1307"/>
      <point x="537" y="1206" type="curve" smooth="yes"/>
      <point x="537" y="1104"/>
      <point x="473" y="1038"/>
    </contour>
  </outline>
</glyph>
<glyph name="threesuperior" format="2">
  <advance width="569"/>
  <unicode hex="00B3"/>
  <outline>
    <contour>
      <point x="274" y="836" type="curve" smooth="yes"/>
      <point x="463" y="836"/>
      <point x="580" y="954"/>
      <point x="580" y="1126" type="curve" smooth="yes"/>
      <point x="580" y="1221"/>
      <point x="537" y="1276"/>
      <point x="473" y="1305" type="curve"/>
      <point x="475" y="1313" type="line"/>
      <point x="588" y="1352"/>
      <point x="653" y="1440"/>
      <point x="653" y="1556" type="curve" smooth="yes"/>
      <point x="653" y="1669"/>
      <point x="586" y="1751"/>
      <point x="453" y="1751" type="curve" smooth="yes"/>
      <point x="365" y="1751"/>
      <point x="289" y="1720"/>
      <point x="225" y="1667" type="curve"/>
      <point x="274" y="1577" type="line"/>
      <point x="326" y="1616"/>
      <point x="373" y="1638"/>
      <point x="430" y="1638" type="curve" smooth="yes"/>
      <point x="489" y="1638"/>
      <point x="524" y="1602"/>
      <point x="524" y="1536" type="curve" smooth="yes"/>
      <point x="524" y="1438"/>
      <point x="459" y="1358"/>
      <point x="342" y="1358" type="curve" smooth="yes"/>
      <point x="281" y="1358" type="line"/>
      <point x="260" y="1253" type="line"/>
      <point x="326" y="1253" type="line" smooth="yes"/>
      <point x="401" y="1253"/>
      <point x="453" y="1210"/>
      <point x="453" y="1124" type="curve" smooth="yes"/>
      <point x="453" y="1022"/>
      <point x="385" y="948"/>
      <point x="276" y="948" type="curve" smooth="yes"/>
      <point x="197" y="948"/>
      <point x="139" y="969"/>
      <point x="90" y="1006" type="curve"/>
      <point x="90" y="881" type="line"/>
      <point x="133" y="852"/>
      <point x="195" y="836"/>
    </contour>
  </outline>
</glyph>
<glyph name="acute" format="2">
  <advance width="516"/>
  <unicode hex="00B4"/>
  <anchor x="326" y="1085" name="_top"/>
  <outline>
    <contour>
      <point x="231" y="1241" type="line"/>
      <point x="336" y="1241" type="line"/>
      <point x="416" y="1305"/>
      <point x="590" y="1473"/>
      <point x="647" y="1552" type="curve"/>
      <point x="649" y="1569" type="line"/>
      <point x="457" y="1569" type="line"/>
      <point x="406" y="1479"/>
      <point x="326" y="1370"/>
      <point x="233" y="1260" type="curve"/>
    </contour>
  </outline>
</glyph>
<glyph name="paragraph" format="2">
  <advance width="934"/>
  <unicode hex="00B6"/>
  <outline>
    <contour>
      <point x="475" y="-260" type="line"/>
      <point x="584" y="-260" type="line"/>
      <point x="584" y="1450" type="line"/>
      <point x="719" y="1450" type="line"/>
      <point x="719" y="-260" type="line"/>
      <point x="827" y="-260" type="line"/>
      <point x="827" y="1556" type="line"/>
      <point x="467" y="1556" type="line" smooth="yes"/>
      <point x="266" y="1556"/>
      <point x="166" y="1362"/>
      <point x="166" y="1083" type="curve" smooth="yes"/>
      <point x="166" y="848"/>
      <point x="221" y="616"/>
      <point x="406" y="616" type="curve" smooth="yes"/>
      <point x="436" y="616"/>
      <point x="457" y="621"/>
      <point x="473" y="629" type="curve"/>
    </contour>
  </outline>
</glyph>
<glyph name="cedilla" format="2">
  <advance width="385"/>
  <unicode hex="00B8"/>
  <outline>
    <contour>
      <point x="-23" y="-492" type="curve" smooth="yes"/>
      <point x="123" y="-492"/>
      <point x="233" y="-410"/>
      <point x="233" y="-260" type="curve" smooth="yes"/>
      <point x="233" y="-178"/>
      <point x="180" y="-123"/>
      <point x="92" y="-104" type="curve"/>
      <point x="164" y="0" type="line"/>
      <point x="66" y="0" type="line"/>
      <point x="-39" y="-164" type="line"/>
      <point x="57" y="-176"/>
      <point x="102" y="-209"/>
      <point x="102" y="-268" type="curve" smooth="yes"/>
      <point x="102" y="-340"/>
      <point x="49" y="-387"/>
      <point x="-41" y="-387" type="curve" smooth="yes"/>
      <point x="-92" y="-387"/>
      <point x="-129" y="-381"/>
      <point x="-152" y="-373" type="curve"/>
      <point x="-152" y="-477" type="line"/>
      <point x="-113" y="-487"/>
      <point x="-70" y="-492"/>
    </contour>
  </outline>
</glyph>
<glyph name="onesuperior" format="2">
  <advance width="569"/>
  <unicode hex="00B9"/>
  <outline>
    <contour>
      <point x="297" y="852" type="line"/>
      <point x="424" y="852" type="line"/>
      <point x="612" y="1729" type="line"/>
      <point x="496" y="1729" type="line"/>
      <point x="223" y="1526" type="line"/>
      <point x="276" y="1440" type="line"/>
      <point x="399" y="1528" type="line" smooth="yes"/>
      <point x="414" y="1538"/>
      <point x="434" y="1554"/>
      <point x="459" y="1577" type="curve"/>
      <point x="451" y="1546"/>
      <point x="442" y="1520"/>
      <point x="434" y="1481" type="curve" smooth="yes"/>
    </contour>
  </outline>
</glyph>
<glyph name="ordmasculine" format="2">
  <advance width="569"/>
  <unicode hex="00BA"/>
  <anchor x="313" y="784" name="bottom"/>
  <anchor x="455" y="1491" name="top"/>
  <outline>
    <contour>
      <point x="330" y="784" type="curve" smooth="yes"/>
      <point x="537" y="784"/>
      <point x="635" y="1038"/>
      <point x="635" y="1245" type="curve" smooth="yes"/>
      <point x="635" y="1407"/>
      <point x="555" y="1479"/>
      <point x="444" y="1479" type="curve" smooth="yes"/>
      <point x="240" y="1479"/>
      <point x="139" y="1233"/>
      <point x="139" y="1022" type="curve" smooth="yes"/>
      <point x="139" y="874"/>
      <point x="201" y="784"/>
    </contour>
    <contour>
      <point x="346" y="891" type="curve" smooth="yes"/>
      <point x="287" y="891"/>
      <point x="260" y="934"/>
      <point x="260" y="1030" type="curve" smooth="yes"/>
      <point x="260" y="1180"/>
      <point x="315" y="1372"/>
      <point x="428" y="1372" type="curve" smooth="yes"/>
      <point x="492" y="1372"/>
      <point x="514" y="1321"/>
      <point x="514" y="1235" type="curve" smooth="yes"/>
      <point x="514" y="1090"/>
      <point x="467" y="891"/>
    </contour>
  </outline>
</glyph>
<glyph name="guillemotright" format="2">
  <advance width="860"/>
  <unicode hex="00BB"/>
  <outline>
    <contour>
      <point x="451" y="125" type="line"/>
      <point x="791" y="520" type="line"/>
      <point x="795" y="547" type="line"/>
      <point x="602" y="950" type="line"/>
      <point x="481" y="897" type="line"/>
      <point x="621" y="539" type="line"/>
      <point x="344" y="195" type="line"/>
    </contour>
    <contour>
      <point x="92" y="125" type="line"/>
      <point x="432" y="520" type="line"/>
      <point x="434" y="547" type="line"/>
      <point x="244" y="950" type="line"/>
      <point x="123" y="897" type="line"/>
      <point x="262" y="539" type="line"/>
      <point x="-14" y="195" type="line"/>
    </contour>
  </outline>
</glyph>
<glyph name="AE" format="2">
  <advance width="1137"/>
  <unicode hex="00C6"/>
  <anchor x="453" y="0" name="bottom"/>
  <anchor x="764" y="1462" name="top"/>
  <outline>
    <contour>
      <point x="-137" y="0" type="line"/>
      <point x="37" y="0" type="line"/>
      <point x="254" y="467" type="line"/>
      <point x="487" y="467" type="line"/>
      <point x="387" y="0" type="line"/>
      <point x="918" y="0" type="line"/>
      <point x="948" y="147" type="line"/>
      <point x="582" y="147" type="line"/>
      <point x="696" y="690" type="line"/>
      <point x="1040" y="690" type="line"/>
      <point x="1073" y="838" type="line"/>
      <point x="729" y="838" type="line"/>
      <point x="829" y="1315" type="line"/>
      <point x="1196" y="1315" type="line"/>
      <point x="1227" y="1462" type="line"/>
      <point x="557" y="1462" type="line"/>
    </contour>
    <contour>
      <point x="322" y="616" type="line"/>
      <point x="641" y="1313" type="line"/>
      <point x="668" y="1313" type="line"/>
      <point x="520" y="616" type="line"/>
    </contour>
  </outline>
</glyph>
<glyph name="Eth" format="2">
  <advance width="952"/>
  <unicode hex="00D0"/>
  <anchor x="362" y="0" name="bottom"/>
  <anchor x="672" y="1462" name="top"/>
  <outline>
    <contour>
      <point x="0" y="0" type="line"/>
      <point x="242" y="0" type="line" smooth="yes"/>
      <point x="733" y="0"/>
      <point x="922" y="580"/>
      <point x="922" y="1030" type="curve" smooth="yes"/>
      <point x="922" y="1315"/>
      <point x="791" y="1462"/>
      <point x="549" y="1462" type="curve" smooth="yes"/>
      <point x="309" y="1462" type="line"/>
      <point x="174" y="827" type="line"/>
      <point x="76" y="827" type="line"/>
      <point x="47" y="692" type="line"/>
      <point x="145" y="692" type="line"/>
    </contour>
    <contour>
      <point x="195" y="150" type="line"/>
      <point x="307" y="692" type="line"/>
      <point x="483" y="692" type="line"/>
      <point x="512" y="827" type="line"/>
      <point x="338" y="827" type="line"/>
      <point x="442" y="1313" type="line"/>
      <point x="530" y="1313" type="line" smooth="yes"/>
      <point x="676" y="1313"/>
      <point x="748" y="1223"/>
      <point x="748" y="1020" type="curve" smooth="yes"/>
      <point x="748" y="707"/>
      <point x="629" y="150"/>
      <point x="266" y="150" type="curve" smooth="yes"/>
    </contour>
  </outline>
</glyph>
<glyph name="multiply" format="2">
  <advance width="881"/>
  <unicode hex="00D7"/>
  <outline>
    <contour>
      <point x="739" y="1100" type="line"/>
      <point x="459" y="819" type="line"/>
      <point x="180" y="1096" type="line"/>
      <point x="86" y="999" type="line"/>
      <point x="362" y="723" type="line"/>
      <point x="86" y="444" type="line"/>
      <point x="180" y="348" type="line"/>
      <point x="459" y="627" type="line"/>
      <point x="737" y="350" type="line"/>
      <point x="831" y="444" type="line"/>
      <point x="557" y="723" type="line"/>
      <point x="838" y="1006" type="line"/>
    </contour>
  </outline>
</glyph>
<glyph name="Oslash" format="2">
  <advance width="1016"/>
  <unicode hex="00D8"/>
  <anchor x="393" y="0" name="bottom"/>
  <anchor x="702" y="1462" name="top"/>
  <outline>
    <contour>
      <point x="68" y="-98" type="line"/>
      <point x="176" y="70" type="line"/>
      <point x="225" y="10"/>
      <point x="297" y="-20"/>
      <point x="391" y="-20" type="curve" smooth="yes"/>
      <point x="817" y="-20"/>
      <point x="985" y="684"/>
      <point x="985" y="1069" type="curve" smooth="yes"/>
      <point x="985" y="1157"/>
      <point x="975" y="1233"/>
      <point x="952" y="1292" type="curve"/>
      <point x="1081" y="1495" type="line"/>
      <point x="991" y="1550" type="line"/>
      <point x="891" y="1389" type="line"/>
      <point x="840" y="1452"/>
      <point x="768" y="1483"/>
      <point x="672" y="1483" type="curve" smooth="yes"/>
      <point x="268" y="1483"/>
      <point x="72" y="852"/>
      <point x="72" y="410" type="curve" smooth="yes"/>
      <point x="72" y="309"/>
      <point x="86" y="227"/>
      <point x="113" y="164" type="curve"/>
      <point x="-20" y="-47" type="line"/>
    </contour>
    <contour>
      <point x="403" y="129" type="curve" smooth="yes"/>
      <point x="340" y="129"/>
      <point x="295" y="158"/>
      <point x="268" y="223" type="curve"/>
      <point x="811" y="1083" type="line"/>
      <point x="813" y="1063"/>
      <point x="813" y="1040"/>
      <point x="811" y="1014" type="curve" smooth="yes"/>
      <point x="801" y="686"/>
      <point x="668" y="129"/>
    </contour>
    <contour>
      <point x="246" y="367" type="line"/>
      <point x="244" y="395"/>
      <point x="244" y="426"/>
      <point x="246" y="463" type="curve" smooth="yes"/>
      <point x="256" y="725"/>
      <point x="367" y="1335"/>
      <point x="655" y="1335" type="curve" smooth="yes"/>
      <point x="723" y="1335"/>
      <point x="768" y="1303"/>
      <point x="795" y="1235" type="curve"/>
    </contour>
  </outline>
</glyph>
<glyph name="Thorn" format="2">
  <advance width="819"/>
  <unicode hex="00DE"/>
  <anchor x="295" y="0" name="bottom"/>
  <anchor x="606" y="1462" name="top"/>
  <outline>
    <contour>
      <point x="0" y="0" type="line"/>
      <point x="164" y="0" type="line"/>
      <point x="229" y="319" type="line"/>
      <point x="322" y="319" type="line" smooth="yes"/>
      <point x="627" y="319"/>
      <point x="811" y="569"/>
      <point x="811" y="891" type="curve" smooth="yes"/>
      <point x="811" y="1085"/>
      <point x="692" y="1208"/>
      <point x="473" y="1208" type="curve" smooth="yes"/>
      <point x="420" y="1208" type="line"/>
      <point x="473" y="1462" type="line"/>
      <point x="309" y="1462" type="line"/>
    </contour>
    <contour>
      <point x="262" y="465" type="line"/>
      <point x="389" y="1061" type="line"/>
      <point x="451" y="1061" type="line" smooth="yes"/>
      <point x="580" y="1061"/>
      <point x="641" y="997"/>
      <point x="641" y="868" type="curve" smooth="yes"/>
      <point x="641" y="629"/>
      <point x="530" y="465"/>
      <point x="322" y="465" type="curve" smooth="yes"/>
    </contour>
  </outline>
</glyph>
<glyph name="germandbls" format="2">
  <advance width="844"/>
  <unicode hex="00DF"/>
  <anchor x="203" y="-492" name="bottom"/>
  <anchor x="639" y="1567" name="top"/>
  <outline>
    <contour>
      <point x="-170" y="-492" type="curve" smooth="yes"/>
      <point x="23" y="-492"/>
      <point x="72" y="-330"/>
      <point x="117" y="-123" type="curve" smooth="yes"/>
      <point x="395" y="1176" type="line" smooth="yes"/>
      <point x="432" y="1343"/>
      <point x="489" y="1425"/>
      <point x="586" y="1425" type="curve" smooth="yes"/>
      <point x="649" y="1425"/>
      <point x="690" y="1386"/>
      <point x="690" y="1315" type="curve" smooth="yes"/>
      <point x="690" y="1202"/>
      <point x="635" y="1135"/>
      <point x="545" y="1040" type="curve" smooth="yes"/>
      <point x="461" y="954"/>
      <point x="416" y="868"/>
      <point x="416" y="770" type="curve" smooth="yes"/>
      <point x="416" y="692"/>
      <point x="444" y="629"/>
      <point x="496" y="541" type="curve" smooth="yes"/>
      <point x="545" y="455"/>
      <point x="571" y="391"/>
      <point x="571" y="317" type="curve" smooth="yes"/>
      <point x="571" y="199"/>
      <point x="508" y="121"/>
      <point x="406" y="121" type="curve" smooth="yes"/>
      <point x="350" y="121"/>
      <point x="291" y="139"/>
      <point x="236" y="182" type="curve"/>
      <point x="215" y="29" type="line"/>
      <point x="260" y="-2"/>
      <point x="328" y="-20"/>
      <point x="401" y="-20" type="curve" smooth="yes"/>
      <point x="608" y="-20"/>
      <point x="735" y="125"/>
      <point x="735" y="334" type="curve" smooth="yes"/>
      <point x="735" y="444"/>
      <point x="696" y="524"/>
      <point x="651" y="598" type="curve" smooth="yes"/>
      <point x="612" y="670"/>
      <point x="580" y="733"/>
      <point x="580" y="791" type="curve" smooth="yes"/>
      <point x="580" y="879"/>
      <point x="629" y="936"/>
      <point x="705" y="1018" type="curve" smooth="yes"/>
      <point x="801" y="1120"/>
      <point x="852" y="1206"/>
      <point x="852" y="1331" type="curve" smooth="yes"/>
      <point x="852" y="1470"/>
      <point x="762" y="1567"/>
      <point x="598" y="1567" type="curve" smooth="yes"/>
      <point x="403" y="1567"/>
      <point x="291" y="1432"/>
      <point x="238" y="1184" type="curve" smooth="yes"/>
      <point x="-37" y="-111" type="line" smooth="yes"/>
      <point x="-70" y="-272"/>
      <point x="-100" y="-348"/>
      <point x="-188" y="-348" type="curve" smooth="yes"/>
      <point x="-219" y="-348"/>
      <point x="-252" y="-342"/>
      <point x="-276" y="-334" type="curve"/>
      <point x="-276" y="-477" type="line"/>
      <point x="-244" y="-487"/>
      <point x="-211" y="-492"/>
    </contour>
  </outline>
</glyph>
<glyph name="ae" format="2">
  <advance width="1262"/>
  <unicode hex="00E6"/>
  <anchor x="516" y="0" name="bottom"/>
  <anchor x="745" y="1083" name="top"/>
  <outline>
    <contour>
      <point x="254" y="-20" type="curve" smooth="yes"/>
      <point x="358" y="-20"/>
      <point x="436" y="41"/>
      <point x="502" y="150" type="curve"/>
      <point x="506" y="150" type="line"/>
      <point x="481" y="0" type="line"/>
      <point x="598" y="0" type="line"/>
      <point x="625" y="135" type="line"/>
      <point x="649" y="37"/>
      <point x="723" y="-20"/>
      <point x="836" y="-20" type="curve" smooth="yes"/>
      <point x="928" y="-20"/>
      <point x="993" y="-2"/>
      <point x="1069" y="43" type="curve"/>
      <point x="1087" y="182" type="line"/>
      <point x="1008" y="135"/>
      <point x="938" y="113"/>
      <point x="866" y="113" type="curve" smooth="yes"/>
      <point x="741" y="113"/>
      <point x="696" y="199"/>
      <point x="696" y="334" type="curve" smooth="yes"/>
      <point x="696" y="387"/>
      <point x="702" y="442"/>
      <point x="713" y="494" type="curve"/>
      <point x="727" y="494" type="line" smooth="yes"/>
      <point x="1044" y="494"/>
      <point x="1237" y="641"/>
      <point x="1237" y="891" type="curve" smooth="yes"/>
      <point x="1237" y="1036"/>
      <point x="1157" y="1118"/>
      <point x="1026" y="1118" type="curve" smooth="yes"/>
      <point x="924" y="1118"/>
      <point x="848" y="1049"/>
      <point x="793" y="973" type="curve"/>
      <point x="819" y="1098" type="line"/>
      <point x="702" y="1098" type="line"/>
      <point x="668" y="971" type="line"/>
      <point x="664" y="971" type="line"/>
      <point x="635" y="1073"/>
      <point x="573" y="1118"/>
      <point x="492" y="1118" type="curve" smooth="yes"/>
      <point x="229" y="1118"/>
      <point x="49" y="676"/>
      <point x="49" y="285" type="curve" smooth="yes"/>
      <point x="49" y="88"/>
      <point x="125" y="-20"/>
    </contour>
    <contour>
      <point x="315" y="117" type="curve" smooth="yes"/>
      <point x="246" y="117"/>
      <point x="213" y="174"/>
      <point x="213" y="293" type="curve" smooth="yes"/>
      <point x="213" y="592"/>
      <point x="344" y="977"/>
      <point x="510" y="977" type="curve" smooth="yes"/>
      <point x="573" y="977"/>
      <point x="608" y="922"/>
      <point x="608" y="821" type="curve" smooth="yes"/>
      <point x="608" y="723"/>
      <point x="594" y="616"/>
      <point x="563" y="485" type="curve" smooth="yes"/>
      <point x="516" y="285"/>
      <point x="438" y="117"/>
    </contour>
    <contour>
      <point x="735" y="616" type="line"/>
      <point x="791" y="831"/>
      <point x="881" y="985"/>
      <point x="991" y="985" type="curve" smooth="yes"/>
      <point x="1059" y="985"/>
      <point x="1087" y="946"/>
      <point x="1087" y="883" type="curve" smooth="yes"/>
      <point x="1087" y="725"/>
      <point x="983" y="616"/>
      <point x="741" y="616" type="curve" smooth="yes"/>
    </contour>
  </outline>
</glyph>
<glyph name="eth" format="2">
  <advance width="827"/>
  <unicode hex="00F0"/>
  <anchor x="299" y="0" name="bottom"/>
  <anchor x="633" y="1573" name="top"/>
  <outline>
    <contour>
      <point x="291" y="-20" type="curve" smooth="yes"/>
      <point x="659" y="-20"/>
      <point x="764" y="528"/>
      <point x="764" y="866" type="curve" smooth="yes"/>
      <point x="764" y="1053"/>
      <point x="721" y="1214"/>
      <point x="627" y="1356" type="curve"/>
      <point x="821" y="1477" type="line"/>
      <point x="766" y="1556" type="line"/>
      <point x="567" y="1432" type="line"/>
      <point x="510" y="1489"/>
      <point x="453" y="1536"/>
      <point x="389" y="1573" type="curve"/>
      <point x="307" y="1481" type="line"/>
      <point x="369" y="1438"/>
      <point x="420" y="1393"/>
      <point x="449" y="1358" type="curve"/>
      <point x="250" y="1235" type="line"/>
      <point x="301" y="1153" type="line"/>
      <point x="502" y="1276" type="line"/>
      <point x="594" y="1155"/>
      <point x="618" y="1001"/>
      <point x="618" y="805" type="curve"/>
      <point x="616" y="805" type="line"/>
      <point x="594" y="893"/>
      <point x="555" y="971"/>
      <point x="451" y="971" type="curve" smooth="yes"/>
      <point x="158" y="971"/>
      <point x="20" y="569"/>
      <point x="20" y="305" type="curve" smooth="yes"/>
      <point x="20" y="96"/>
      <point x="119" y="-20"/>
    </contour>
    <contour>
      <point x="305" y="117" type="curve" smooth="yes"/>
      <point x="225" y="117"/>
      <point x="182" y="178"/>
      <point x="182" y="313" type="curve" smooth="yes"/>
      <point x="182" y="537"/>
      <point x="281" y="831"/>
      <point x="455" y="831" type="curve" smooth="yes"/>
      <point x="535" y="831"/>
      <point x="578" y="760"/>
      <point x="578" y="633" type="curve" smooth="yes"/>
      <point x="578" y="422"/>
      <point x="479" y="117"/>
    </contour>
  </outline>
</glyph>
<glyph name="divide" format="2">
  <advance width="881"/>
  <unicode hex="00F7"/>
  <outline>
    <contour>
      <point x="82" y="653" type="line"/>
      <point x="836" y="653" type="line"/>
      <point x="836" y="793" type="line"/>
      <point x="82" y="793" type="line"/>
    </contour>
    <contour>
      <point x="463" y="229" type="curve" smooth="yes"/>
      <point x="522" y="229"/>
      <point x="563" y="270"/>
      <point x="563" y="356" type="curve" smooth="yes"/>
      <point x="563" y="440"/>
      <point x="528" y="483"/>
      <point x="463" y="483" type="curve" smooth="yes"/>
      <point x="393" y="483"/>
      <point x="358" y="440"/>
      <point x="358" y="356" type="curve" smooth="yes"/>
      <point x="358" y="272"/>
      <point x="395" y="229"/>
    </contour>
    <contour>
      <point x="463" y="961" type="curve" smooth="yes"/>
      <point x="522" y="961"/>
      <point x="563" y="1001"/>
      <point x="563" y="1087" type="curve" smooth="yes"/>
      <point x="563" y="1171"/>
      <point x="528" y="1214"/>
      <point x="463" y="1214" type="curve" smooth="yes"/>
      <point x="393" y="1214"/>
      <point x="358" y="1171"/>
      <point x="358" y="1087" type="curve" smooth="yes"/>
      <point x="358" y="1004"/>
      <point x="395" y="961"/>
    </contour>
  </outline>
</glyph>
<glyph name="oslash" format="2">
  <advance width="834"/>
  <unicode hex="00F8"/>
  <anchor x="303" y="0" name="bottom"/>
  <anchor x="532" y="1083" name="top"/>
  <outline>
    <contour>
      <point x="55" y="-123" type="line"/>
      <point x="156" y="35" type="line"/>
      <point x="197" y="-2"/>
      <point x="250" y="-20"/>
      <point x="313" y="-20" type="curve" smooth="yes"/>
      <point x="657" y="-20"/>
      <point x="782" y="504"/>
      <point x="782" y="782" type="curve" smooth="yes"/>
      <point x="782" y="854"/>
      <point x="770" y="915"/>
      <point x="748" y="965" type="curve"/>
      <point x="862" y="1143" type="line"/>
      <point x="776" y="1196" type="line"/>
      <point x="686" y="1051" type="line"/>
      <point x="645" y="1096"/>
      <point x="590" y="1118"/>
      <point x="522" y="1118" type="curve" smooth="yes"/>
      <point x="168" y="1118"/>
      <point x="51" y="571"/>
      <point x="51" y="311" type="curve" smooth="yes"/>
      <point x="51" y="231"/>
      <point x="66" y="166"/>
      <point x="90" y="115" type="curve"/>
      <point x="-29" y="-70" type="line"/>
    </contour>
    <contour>
      <point x="330" y="113" type="curve" smooth="yes"/>
      <point x="289" y="113"/>
      <point x="256" y="131"/>
      <point x="236" y="168" type="curve"/>
      <point x="623" y="784" type="line"/>
      <point x="625" y="766"/>
      <point x="625" y="743"/>
      <point x="623" y="723" type="curve" smooth="yes"/>
      <point x="608" y="469"/>
      <point x="506" y="113"/>
    </contour>
    <contour>
      <point x="211" y="291" type="line"/>
      <point x="209" y="307"/>
      <point x="209" y="328"/>
      <point x="209" y="350" type="curve" smooth="yes"/>
      <point x="219" y="600"/>
      <point x="324" y="985"/>
      <point x="504" y="985" type="curve" smooth="yes"/>
      <point x="551" y="985"/>
      <point x="586" y="963"/>
      <point x="604" y="918" type="curve"/>
    </contour>
  </outline>
</glyph>
<glyph name="thorn" format="2">
  <advance width="854"/>
  <unicode hex="00FE"/>
  <anchor x="211" y="-477" name="bottom"/>
  <anchor x="643" y="1556" name="top"/>
  <outline>
    <contour>
      <point x="-98" y="-477" type="line"/>
      <point x="57" y="-477" type="line"/>
      <point x="158" y="-2" type="line" smooth="yes"/>
      <point x="164" y="35"/>
      <point x="174" y="88"/>
      <point x="180" y="135" type="curve"/>
      <point x="186" y="135" type="line"/>
      <point x="209" y="41"/>
      <point x="276" y="-20"/>
      <point x="369" y="-20" type="curve" smooth="yes"/>
      <point x="668" y="-20"/>
      <point x="811" y="500"/>
      <point x="811" y="813" type="curve" smooth="yes"/>
      <point x="811" y="1018"/>
      <point x="735" y="1118"/>
      <point x="600" y="1118" type="curve" smooth="yes"/>
      <point x="506" y="1118"/>
      <point x="426" y="1059"/>
      <point x="362" y="958" type="curve"/>
      <point x="356" y="958" type="line"/>
      <point x="362" y="981"/>
      <point x="369" y="1006"/>
      <point x="375" y="1034" type="curve" smooth="yes"/>
      <point x="487" y="1556" type="line"/>
      <point x="332" y="1556" type="line"/>
    </contour>
    <contour>
      <point x="352" y="119" type="curve" smooth="yes"/>
      <point x="276" y="119"/>
      <point x="238" y="176"/>
      <point x="238" y="285" type="curve" smooth="yes"/>
      <point x="238" y="371"/>
      <point x="252" y="492"/>
      <point x="285" y="612" type="curve" smooth="yes"/>
      <point x="332" y="795"/>
      <point x="418" y="983"/>
      <point x="545" y="983" type="curve" smooth="yes"/>
      <point x="616" y="983"/>
      <point x="649" y="926"/>
      <point x="649" y="805" type="curve" smooth="yes"/>
      <point x="649" y="592"/>
      <point x="553" y="119"/>
    </contour>
  </outline>
</glyph>
<glyph name="Hbar" format="2">
  <advance width="985"/>
  <unicode hex="0126"/>
  <anchor x="379" y="0" name="bottom"/>
  <anchor x="688" y="1462" name="top"/>
  <outline>
    <contour>
      <point x="0" y="0" type="line"/>
      <point x="164" y="0" type="line"/>
      <point x="309" y="690" type="line"/>
      <point x="705" y="690" type="line"/>
      <point x="559" y="0" type="line"/>
      <point x="723" y="0" type="line"/>
      <point x="954" y="1085" type="line"/>
      <point x="1081" y="1085" type="line"/>
      <point x="1108" y="1214" type="line"/>
      <point x="981" y="1214" type="line"/>
      <point x="1034" y="1462" type="line"/>
      <point x="868" y="1462" type="line"/>
      <point x="815" y="1214" type="line"/>
      <point x="420" y="1214" type="line"/>
      <point x="473" y="1462" type="line"/>
      <point x="309" y="1462" type="line"/>
      <point x="256" y="1214" type="line"/>
      <point x="123" y="1214" type="line"/>
      <point x="96" y="1085" type="line"/>
      <point x="229" y="1085" type="line"/>
    </contour>
    <contour>
      <point x="340" y="834" type="line"/>
      <point x="393" y="1085" type="line"/>
      <point x="788" y="1085" type="line"/>
      <point x="735" y="834" type="line"/>
    </contour>
  </outline>
</glyph>
<glyph name="hbar" format="2">
  <advance width="844"/>
  <unicode hex="0127"/>
  <anchor x="309" y="0" name="bottom"/>
  <anchor x="639" y="1556" name="top"/>
  <outline>
    <contour>
      <point x="0" y="0" type="line"/>
      <point x="158" y="0" type="line"/>
      <point x="285" y="592" type="line" smooth="yes"/>
      <point x="336" y="842"/>
      <point x="410" y="958"/>
      <point x="528" y="958" type="curve" smooth="yes"/>
      <point x="584" y="958"/>
      <point x="618" y="924"/>
      <point x="618" y="862" type="curve" smooth="yes"/>
      <point x="618" y="801"/>
      <point x="604" y="727"/>
      <point x="588" y="655" type="curve" smooth="yes"/>
      <point x="449" y="0" type="line"/>
      <point x="606" y="0" type="line"/>
      <point x="750" y="678" type="line" smooth="yes"/>
      <point x="764" y="750"/>
      <point x="780" y="838"/>
      <point x="780" y="895" type="curve" smooth="yes"/>
      <point x="780" y="1032"/>
      <point x="709" y="1104"/>
      <point x="590" y="1104" type="curve" smooth="yes"/>
      <point x="489" y="1104"/>
      <point x="410" y="1049"/>
      <point x="350" y="944" type="curve"/>
      <point x="346" y="944" type="line"/>
      <point x="362" y="1001"/>
      <point x="381" y="1061"/>
      <point x="422" y="1251" type="curve"/>
      <point x="614" y="1251" type="line"/>
      <point x="639" y="1374" type="line"/>
      <point x="449" y="1374" type="line"/>
      <point x="487" y="1556" type="line"/>
      <point x="330" y="1556" type="line"/>
      <point x="291" y="1374" type="line"/>
      <point x="168" y="1374" type="line"/>
      <point x="141" y="1251" type="line"/>
      <point x="266" y="1251" type="line"/>
    </contour>
  </outline>
</glyph>
<glyph name="Lslash" format="2">
  <advance width="700"/>
  <unicode hex="0141"/>
  <anchor x="236" y="0" name="bottom"/>
  <anchor x="545" y="1462" name="top"/>
  <outline>
    <contour>
      <point x="14" y="0" type="line"/>
      <point x="539" y="0" type="line"/>
      <point x="567" y="147" type="line"/>
      <point x="209" y="147" type="line"/>
      <point x="319" y="676" type="line"/>
      <point x="616" y="862" type="line"/>
      <point x="551" y="967" type="line"/>
      <point x="358" y="850" type="line"/>
      <point x="487" y="1462" type="line"/>
      <point x="324" y="1462" type="line"/>
      <point x="168" y="723" type="line"/>
      <point x="-47" y="590" type="line"/>
      <point x="14" y="483" type="line"/>
      <point x="131" y="551" type="line"/>
    </contour>
  </outline>
</glyph>
<glyph name="lslash" format="2">
  <advance width="444"/>
  <unicode hex="0142"/>
  <anchor x="109" y="0" name="bottom"/>
  <anchor x="438" y="1556" name="top"/>
  <outline>
    <contour>
      <point x="16" y="0" type="line"/>
      <point x="172" y="0" type="line"/>
      <point x="330" y="739" type="line"/>
      <point x="557" y="866" type="line"/>
      <point x="506" y="975" type="line"/>
      <point x="362" y="893" type="line"/>
      <point x="504" y="1556" type="line"/>
      <point x="346" y="1556" type="line"/>
      <point x="186" y="809" type="line"/>
      <point x="-12" y="698" type="line"/>
      <point x="37" y="588" type="line"/>
      <point x="156" y="655" type="line"/>
    </contour>
  </outline>
</glyph>
<glyph name="Eng" format="2">
  <advance width="1051"/>
  <unicode hex="014A"/>
  <anchor x="328" y="-391" name="bottom"/>
  <anchor x="721" y="1462" name="top"/>
  <outline>
    <contour>
      <point x="453" y="-391" type="curve" smooth="yes"/>
      <point x="672" y="-391"/>
      <point x="735" y="-233"/>
      <point x="791" y="14" type="curve" smooth="yes"/>
      <point x="1098" y="1462" type="line"/>
      <point x="938" y="1462" type="line"/>
      <point x="750" y="565" type="line"/>
      <point x="731" y="483"/>
      <point x="719" y="403"/>
      <point x="707" y="328" type="curve"/>
      <point x="700" y="328" type="line"/>
      <point x="508" y="1462" type="line"/>
      <point x="309" y="1462" type="line"/>
      <point x="0" y="0" type="line"/>
      <point x="158" y="0" type="line"/>
      <point x="352" y="930" type="line" smooth="yes"/>
      <point x="373" y="1022"/>
      <point x="391" y="1118"/>
      <point x="401" y="1202" type="curve"/>
      <point x="408" y="1202" type="line"/>
      <point x="618" y="-14" type="line"/>
      <point x="594" y="-166"/>
      <point x="549" y="-240"/>
      <point x="461" y="-240" type="curve" smooth="yes"/>
      <point x="422" y="-240"/>
      <point x="389" y="-231"/>
      <point x="358" y="-215" type="curve"/>
      <point x="326" y="-365" type="line"/>
      <point x="358" y="-381"/>
      <point x="408" y="-391"/>
    </contour>
  </outline>
</glyph>
<glyph name="oe" format="2">
  <advance width="1292"/>
  <unicode hex="0153"/>
  <anchor x="532" y="0" name="bottom"/>
  <anchor x="762" y="1083" name="top"/>
  <outline>
    <contour>
      <point x="303" y="-20" type="curve" smooth="yes"/>
      <point x="434" y="-20"/>
      <point x="535" y="63"/>
      <point x="606" y="205" type="curve"/>
      <point x="633" y="55"/>
      <point x="713" y="-20"/>
      <point x="852" y="-20" type="curve" smooth="yes"/>
      <point x="944" y="-20"/>
      <point x="1028" y="4"/>
      <point x="1102" y="47" type="curve"/>
      <point x="1102" y="176" type="line"/>
      <point x="1032" y="135"/>
      <point x="965" y="113"/>
      <point x="891" y="113" type="curve" smooth="yes"/>
      <point x="778" y="113"/>
      <point x="723" y="180"/>
      <point x="723" y="334" type="curve" smooth="yes"/>
      <point x="723" y="385"/>
      <point x="727" y="440"/>
      <point x="737" y="494" type="curve"/>
      <point x="754" y="494" type="line" smooth="yes"/>
      <point x="1073" y="494"/>
      <point x="1264" y="647"/>
      <point x="1264" y="891" type="curve" smooth="yes"/>
      <point x="1264" y="1040"/>
      <point x="1178" y="1118"/>
      <point x="1042" y="1118" type="curve" smooth="yes"/>
      <point x="922" y="1118"/>
      <point x="809" y="1032"/>
      <point x="729" y="889" type="curve"/>
      <point x="713" y="1040"/>
      <point x="645" y="1118"/>
      <point x="516" y="1118" type="curve" smooth="yes"/>
      <point x="162" y="1118"/>
      <point x="51" y="563"/>
      <point x="51" y="315" type="curve" smooth="yes"/>
      <point x="51" y="96"/>
      <point x="147" y="-20"/>
    </contour>
    <contour>
      <point x="330" y="117" type="curve" smooth="yes"/>
      <point x="252" y="117"/>
      <point x="211" y="178"/>
      <point x="211" y="305" type="curve" smooth="yes"/>
      <point x="211" y="551"/>
      <point x="311" y="979"/>
      <point x="502" y="979" type="curve" smooth="yes"/>
      <point x="582" y="979"/>
      <point x="621" y="918"/>
      <point x="621" y="793" type="curve" smooth="yes"/>
      <point x="621" y="539"/>
      <point x="514" y="117"/>
    </contour>
    <contour>
      <point x="762" y="616" type="line"/>
      <point x="795" y="788"/>
      <point x="899" y="985"/>
      <point x="1020" y="985" type="curve" smooth="yes"/>
      <point x="1085" y="985"/>
      <point x="1114" y="946"/>
      <point x="1114" y="883" type="curve" smooth="yes"/>
      <point x="1114" y="725"/>
      <point x="1014" y="616"/>
      <point x="770" y="616" type="curve" smooth="yes"/>
    </contour>
  </outline>
</glyph>
<glyph name="Tbar" format="2">
  <advance width="702"/>
  <unicode hex="0166"/>
  <anchor x="238" y="0" name="bottom"/>
  <anchor x="547" y="1462" name="top"/>
  <outline>
    <contour>
      <point x="135" y="0" type="line"/>
      <point x="301" y="0" type="line"/>
      <point x="444" y="684" type="line"/>
      <point x="637" y="684" type="line"/>
      <point x="662" y="811" type="line"/>
      <point x="471" y="811" type="line"/>
      <point x="578" y="1313" type="line"/>
      <point x="829" y="1313" type="line"/>
      <point x="862" y="1462" type="line"/>
      <point x="195" y="1462" type="line"/>
      <point x="164" y="1313" type="line"/>
      <point x="414" y="1313" type="line"/>
      <point x="307" y="811" type="line"/>
      <point x="127" y="811" type="line"/>
      <point x="100" y="684" type="line"/>
      <point x="281" y="684" type="line"/>
    </contour>
  </outline>
</glyph>
<glyph name="tbar" format="2">
  <advance width="483"/>
  <unicode hex="0167"/>
  <anchor x="127" y="0" name="bottom"/>
  <anchor x="414" y="1348" name="top"/>
  <outline>
    <contour>
      <point x="207" y="-20" type="curve" smooth="yes"/>
      <point x="254" y="-20"/>
      <point x="313" y="-10"/>
      <point x="358" y="10" type="curve"/>
      <point x="358" y="139" type="line"/>
      <point x="328" y="127"/>
      <point x="297" y="121"/>
      <point x="274" y="121" type="curve" smooth="yes"/>
      <point x="227" y="121"/>
      <point x="207" y="143"/>
      <point x="207" y="197" type="curve" smooth="yes"/>
      <point x="207" y="223"/>
      <point x="213" y="258"/>
      <point x="221" y="299" type="curve" smooth="yes"/>
      <point x="281" y="571" type="line"/>
      <point x="442" y="571" type="line"/>
      <point x="469" y="696" type="line"/>
      <point x="305" y="696" type="line"/>
      <point x="362" y="963" type="line"/>
      <point x="520" y="963" type="line"/>
      <point x="549" y="1098" type="line"/>
      <point x="391" y="1098" type="line"/>
      <point x="444" y="1348" type="line"/>
      <point x="332" y="1348" type="line"/>
      <point x="244" y="1096" type="line"/>
      <point x="127" y="1053" type="line"/>
      <point x="109" y="963" type="line"/>
      <point x="207" y="963" type="line"/>
      <point x="150" y="696" type="line"/>
      <point x="43" y="696" type="line"/>
      <point x="16" y="571" type="line"/>
      <point x="123" y="571" type="line"/>
      <point x="66" y="301" type="line" smooth="yes"/>
      <point x="53" y="244"/>
      <point x="47" y="197"/>
      <point x="47" y="162" type="curve" smooth="yes"/>
      <point x="47" y="49"/>
      <point x="96" y="-20"/>
    </contour>
  </outline>
</glyph>
<glyph name="uni0181" format="2">
  <advance width="1090"/>
  <unicode hex="0181"/>
  <anchor x="432" y="0" name="bottom"/>
  <anchor x="741" y="1462" name="top"/>
  <outline>
    <contour>
      <point x="213" y="0" type="line"/>
      <point x="532" y="0" type="line" smooth="yes"/>
      <point x="817" y="0"/>
      <point x="989" y="221"/>
      <point x="989" y="504" type="curve" smooth="yes"/>
      <point x="989" y="623"/>
      <point x="936" y="733"/>
      <point x="829" y="766" type="curve"/>
      <point x="829" y="772" type="line"/>
      <point x="1024" y="823"/>
      <point x="1106" y="999"/>
      <point x="1106" y="1186" type="curve" smooth="yes"/>
      <point x="1106" y="1370"/>
      <point x="963" y="1462"/>
      <point x="793" y="1462" type="curve" smooth="yes"/>
      <point x="467" y="1462" type="line" smooth="yes"/>
      <point x="262" y="1462"/>
      <point x="162" y="1343"/>
      <point x="162" y="1188" type="curve" smooth="yes"/>
      <point x="162" y="1149"/>
      <point x="166" y="1116"/>
      <point x="174" y="1094" type="curve"/>
      <point x="317" y="1094" type="line"/>
      <point x="311" y="1118"/>
      <point x="307" y="1147"/>
      <point x="307" y="1178" type="curve" smooth="yes"/>
      <point x="307" y="1257"/>
      <point x="344" y="1319"/>
      <point x="465" y="1319" type="curve" smooth="yes"/>
      <point x="489" y="1319" type="line"/>
    </contour>
    <contour>
      <point x="408" y="145" type="line"/>
      <point x="524" y="694" type="line"/>
      <point x="647" y="694" type="line" smooth="yes"/>
      <point x="756" y="694"/>
      <point x="821" y="627"/>
      <point x="821" y="498" type="curve" smooth="yes"/>
      <point x="821" y="305"/>
      <point x="737" y="145"/>
      <point x="537" y="145" type="curve" smooth="yes"/>
    </contour>
    <contour>
      <point x="553" y="834" type="line"/>
      <point x="655" y="1319" type="line"/>
      <point x="760" y="1319" type="line" smooth="yes"/>
      <point x="879" y="1319"/>
      <point x="934" y="1264"/>
      <point x="934" y="1153" type="curve" smooth="yes"/>
      <point x="934" y="983"/>
      <point x="838" y="834"/>
      <point x="670" y="834" type="curve" smooth="yes"/>
    </contour>
  </outline>
</glyph>
<glyph name="uni0183" format="2">
  <advance width="854"/>
  <unicode hex="0183"/>
  <anchor x="313" y="0" name="bottom"/>
  <anchor x="643" y="1556" name="top"/>
  <outline>
    <contour>
      <point x="367" y="-20" type="curve" smooth="yes"/>
      <point x="672" y="-20"/>
      <point x="811" y="512"/>
      <point x="811" y="815" type="curve" smooth="yes"/>
      <point x="811" y="1014"/>
      <point x="733" y="1118"/>
      <point x="600" y="1118" type="curve" smooth="yes"/>
      <point x="504" y="1118"/>
      <point x="420" y="1059"/>
      <point x="354" y="950" type="curve"/>
      <point x="350" y="950" type="line"/>
      <point x="362" y="993"/>
      <point x="375" y="1036"/>
      <point x="381" y="1067" type="curve"/>
      <point x="459" y="1434" type="line"/>
      <point x="860" y="1434" type="line"/>
      <point x="887" y="1556" type="line"/>
      <point x="328" y="1556" type="line"/>
      <point x="-2" y="0" type="line"/>
      <point x="125" y="0" type="line"/>
      <point x="174" y="135" type="line"/>
      <point x="180" y="135" type="line"/>
      <point x="203" y="41"/>
      <point x="268" y="-20"/>
    </contour>
    <contour>
      <point x="352" y="117" type="curve" smooth="yes"/>
      <point x="274" y="117"/>
      <point x="236" y="174"/>
      <point x="236" y="289" type="curve" smooth="yes"/>
      <point x="236" y="520"/>
      <point x="342" y="979"/>
      <point x="543" y="979" type="curve" smooth="yes"/>
      <point x="614" y="979"/>
      <point x="647" y="924"/>
      <point x="647" y="803" type="curve" smooth="yes"/>
      <point x="647" y="559"/>
      <point x="535" y="117"/>
    </contour>
  </outline>
</glyph>
<glyph name="uni0184" format="2">
  <advance width="840"/>
  <unicode hex="0184"/>
  <anchor x="305" y="0" name="bottom"/>
  <anchor x="614" y="1462" name="top"/>
  <outline>
    <contour>
      <point x="324" y="-20" type="curve" smooth="yes"/>
      <point x="586" y="-20"/>
      <point x="745" y="217"/>
      <point x="745" y="502" type="curve" smooth="yes"/>
      <point x="745" y="717"/>
      <point x="635" y="848"/>
      <point x="412" y="848" type="curve" smooth="yes"/>
      <point x="344" y="848" type="line"/>
      <point x="473" y="1462" type="line"/>
      <point x="309" y="1462" type="line"/>
      <point x="72" y="336" type="line" smooth="yes"/>
      <point x="61" y="285"/>
      <point x="57" y="248"/>
      <point x="57" y="213" type="curve" smooth="yes"/>
      <point x="57" y="49"/>
      <point x="164" y="-20"/>
    </contour>
    <contour>
      <point x="332" y="125" type="curve" smooth="yes"/>
      <point x="262" y="125"/>
      <point x="221" y="154"/>
      <point x="221" y="233" type="curve" smooth="yes"/>
      <point x="221" y="258"/>
      <point x="225" y="287"/>
      <point x="233" y="322" type="curve" smooth="yes"/>
      <point x="315" y="702" type="line"/>
      <point x="381" y="702" type="line" smooth="yes"/>
      <point x="510" y="702"/>
      <point x="575" y="627"/>
      <point x="575" y="494" type="curve" smooth="yes"/>
      <point x="575" y="287"/>
      <point x="481" y="125"/>
    </contour>
  </outline>
</glyph>
<glyph name="uni0185" format="2">
  <advance width="854"/>
  <unicode hex="0185"/>
  <anchor x="313" y="0" name="bottom"/>
  <anchor x="643" y="1556" name="top"/>
  <outline>
    <contour>
      <point x="344" y="-20" type="curve"/>
      <point x="682" y="-20"/>
      <point x="811" y="510"/>
      <point x="811" y="815" type="curve" smooth="yes"/>
      <point x="811" y="1014"/>
      <point x="735" y="1118"/>
      <point x="602" y="1118" type="curve" smooth="yes"/>
      <point x="504" y="1118"/>
      <point x="422" y="1059"/>
      <point x="356" y="950" type="curve"/>
      <point x="352" y="950" type="line"/>
      <point x="365" y="991"/>
      <point x="375" y="1032"/>
      <point x="381" y="1067" type="curve" smooth="yes"/>
      <point x="485" y="1556" type="line"/>
      <point x="328" y="1556" type="line"/>
      <point x="113" y="530" type="line" smooth="yes"/>
      <point x="94" y="444"/>
      <point x="80" y="344"/>
      <point x="80" y="285" type="curve" smooth="yes"/>
      <point x="80" y="84"/>
      <point x="168" y="-20"/>
    </contour>
    <contour>
      <point x="352" y="117" type="curve" smooth="yes"/>
      <point x="274" y="117"/>
      <point x="238" y="172"/>
      <point x="238" y="295" type="curve" smooth="yes"/>
      <point x="238" y="518"/>
      <point x="342" y="979"/>
      <point x="543" y="979" type="curve" smooth="yes"/>
      <point x="614" y="979"/>
      <point x="647" y="924"/>
      <point x="647" y="803" type="curve" smooth="yes"/>
      <point x="647" y="559"/>
      <point x="535" y="117"/>
    </contour>
  </outline>
</glyph>
<glyph name="uni0187" format="2">
  <advance width="791"/>
  <unicode hex="0187"/>
  <anchor x="283" y="0" name="bottom"/>
  <anchor x="592" y="1462" name="top"/>
  <outline>
    <contour>
      <point x="401" y="-20" type="curve" smooth="yes"/>
      <point x="477" y="-20"/>
      <point x="557" y="-6"/>
      <point x="633" y="27" type="curve"/>
      <point x="633" y="176" type="line"/>
      <point x="563" y="147"/>
      <point x="500" y="127"/>
      <point x="438" y="127" type="curve" smooth="yes"/>
      <point x="303" y="127"/>
      <point x="244" y="229"/>
      <point x="244" y="465" type="curve" smooth="yes"/>
      <point x="244" y="743"/>
      <point x="389" y="1335"/>
      <point x="709" y="1335" type="curve" smooth="yes"/>
      <point x="774" y="1335"/>
      <point x="834" y="1315"/>
      <point x="901" y="1264" type="curve"/>
      <point x="954" y="1513" type="line" smooth="yes"/>
      <point x="971" y="1585"/>
      <point x="999" y="1620"/>
      <point x="1059" y="1620" type="curve" smooth="yes"/>
      <point x="1085" y="1620"/>
      <point x="1116" y="1614"/>
      <point x="1145" y="1599" type="curve"/>
      <point x="1145" y="1739" type="line"/>
      <point x="1116" y="1751"/>
      <point x="1087" y="1759"/>
      <point x="1036" y="1759" type="curve" smooth="yes"/>
      <point x="918" y="1759"/>
      <point x="844" y="1686"/>
      <point x="813" y="1556" type="curve" smooth="yes"/>
      <point x="795" y="1470" type="line"/>
      <point x="768" y="1479"/>
      <point x="739" y="1485"/>
      <point x="705" y="1485" type="curve" smooth="yes"/>
      <point x="281" y="1485"/>
      <point x="74" y="858"/>
      <point x="74" y="451" type="curve" smooth="yes"/>
      <point x="74" y="139"/>
      <point x="184" y="-20"/>
    </contour>
  </outline>
</glyph>
<glyph name="uni0188" format="2">
  <advance width="649"/>
  <unicode hex="0188"/>
  <anchor x="211" y="0" name="bottom"/>
  <anchor x="543" y="1565" name="top"/>
  <outline>
    <contour>
      <point x="313" y="-20" type="curve" smooth="yes"/>
      <point x="389" y="-20"/>
      <point x="463" y="4"/>
      <point x="516" y="37" type="curve"/>
      <point x="516" y="176" type="line"/>
      <point x="455" y="139"/>
      <point x="399" y="119"/>
      <point x="350" y="119" type="curve" smooth="yes"/>
      <point x="260" y="119"/>
      <point x="213" y="184"/>
      <point x="213" y="328" type="curve" smooth="yes"/>
      <point x="213" y="612"/>
      <point x="324" y="979"/>
      <point x="532" y="979" type="curve" smooth="yes"/>
      <point x="578" y="979"/>
      <point x="637" y="963"/>
      <point x="678" y="936" type="curve"/>
      <point x="760" y="1327" type="line" smooth="yes"/>
      <point x="776" y="1399"/>
      <point x="803" y="1427"/>
      <point x="854" y="1427" type="curve" smooth="yes"/>
      <point x="883" y="1427"/>
      <point x="907" y="1421"/>
      <point x="930" y="1409" type="curve"/>
      <point x="930" y="1546" type="line"/>
      <point x="901" y="1556"/>
      <point x="864" y="1565"/>
      <point x="821" y="1565" type="curve" smooth="yes"/>
      <point x="702" y="1565"/>
      <point x="643" y="1491"/>
      <point x="616" y="1360" type="curve" smooth="yes"/>
      <point x="561" y="1114" type="line"/>
      <point x="549" y="1116"/>
      <point x="535" y="1118"/>
      <point x="518" y="1118" type="curve" smooth="yes"/>
      <point x="190" y="1118"/>
      <point x="51" y="635"/>
      <point x="51" y="311" type="curve" smooth="yes"/>
      <point x="51" y="94"/>
      <point x="143" y="-20"/>
    </contour>
  </outline>
</glyph>
<glyph name="uni018B" format="2">
  <advance width="829"/>
  <unicode hex="018B"/>
  <anchor x="301" y="0" name="bottom"/>
  <anchor x="610" y="1462" name="top"/>
  <outline>
    <contour>
      <point x="342" y="0" type="curve" smooth="yes"/>
      <point x="563" y="0" type="line"/>
      <point x="872" y="1462" type="line"/>
      <point x="285" y="1462" type="line"/>
      <point x="252" y="1313" type="line"/>
      <point x="676" y="1313" type="line"/>
      <point x="588" y="891" type="line"/>
      <point x="496" y="891" type="line" smooth="yes"/>
      <point x="186" y="891"/>
      <point x="8" y="645"/>
      <point x="8" y="319" type="curve" smooth="yes"/>
      <point x="8" y="125"/>
      <point x="123" y="0"/>
    </contour>
    <contour>
      <point x="371" y="147" type="line" smooth="yes"/>
      <point x="246" y="147"/>
      <point x="180" y="213"/>
      <point x="180" y="340" type="curve" smooth="yes"/>
      <point x="180" y="580"/>
      <point x="289" y="743"/>
      <point x="500" y="743" type="curve" smooth="yes"/>
      <point x="559" y="743" type="line"/>
      <point x="430" y="147" type="line"/>
    </contour>
  </outline>
</glyph>
<glyph name="uni018C" format="2">
  <advance width="866"/>
  <unicode hex="018C"/>
  <anchor x="319" y="0" name="bottom"/>
  <anchor x="649" y="1556" name="top"/>
  <outline>
    <contour>
      <point x="260" y="-20" type="curve" smooth="yes"/>
      <point x="360" y="-20"/>
      <point x="432" y="41"/>
      <point x="508" y="152" type="curve"/>
      <point x="512" y="152" type="line"/>
      <point x="500" y="0" type="line"/>
      <point x="627" y="0" type="line"/>
      <point x="956" y="1556" type="line"/>
      <point x="393" y="1556" type="line"/>
      <point x="362" y="1415" type="line"/>
      <point x="770" y="1415" type="line"/>
      <point x="717" y="1167" type="line" smooth="yes"/>
      <point x="705" y="1108"/>
      <point x="692" y="1038"/>
      <point x="680" y="969" type="curve"/>
      <point x="674" y="969" type="line"/>
      <point x="651" y="1063"/>
      <point x="580" y="1118"/>
      <point x="485" y="1118" type="curve" smooth="yes"/>
      <point x="188" y="1118"/>
      <point x="49" y="586"/>
      <point x="49" y="285" type="curve" smooth="yes"/>
      <point x="49" y="88"/>
      <point x="125" y="-20"/>
    </contour>
    <contour>
      <point x="315" y="117" type="curve" smooth="yes"/>
      <point x="246" y="117"/>
      <point x="213" y="174"/>
      <point x="213" y="293" type="curve" smooth="yes"/>
      <point x="213" y="526"/>
      <point x="317" y="977"/>
      <point x="510" y="977" type="curve" smooth="yes"/>
      <point x="588" y="977"/>
      <point x="625" y="922"/>
      <point x="625" y="819" type="curve" smooth="yes"/>
      <point x="625" y="629"/>
      <point x="535" y="117"/>
    </contour>
  </outline>
</glyph>
<glyph name="uni0191" format="2">
  <advance width="981"/>
  <unicode hex="0191"/>
  <anchor x="168" y="0" name="bottom"/>
  <anchor x="842" y="1462" name="top"/>
  <anchor x="1153" y="1462" name="topright"/>
  <outline>
    <contour>
      <point x="221" y="-23" type="curve" smooth="yes"/>
      <point x="395" y="-23"/>
      <point x="479" y="92"/>
      <point x="516" y="274" type="curve" smooth="yes"/>
      <point x="602" y="692" type="line"/>
      <point x="926" y="692" type="line"/>
      <point x="956" y="840" type="line"/>
      <point x="635" y="840" type="line"/>
      <point x="735" y="1315" type="line"/>
      <point x="1083" y="1315" type="line"/>
      <point x="1114" y="1462" type="line"/>
      <point x="602" y="1462" type="line"/>
      <point x="350" y="281" type="line" smooth="yes"/>
      <point x="328" y="178"/>
      <point x="295" y="117"/>
      <point x="219" y="117" type="curve" smooth="yes"/>
      <point x="147" y="117"/>
      <point x="115" y="174"/>
      <point x="115" y="242" type="curve" smooth="yes"/>
      <point x="115" y="270"/>
      <point x="119" y="301"/>
      <point x="131" y="324" type="curve"/>
      <point x="0" y="369" type="line"/>
      <point x="-18" y="332"/>
      <point x="-29" y="287"/>
      <point x="-29" y="238" type="curve" smooth="yes"/>
      <point x="-29" y="90"/>
      <point x="57" y="-23"/>
    </contour>
  </outline>
</glyph>
<glyph name="florin" format="2">
  <advance width="801"/>
  <unicode hex="0192"/>
  <anchor x="68" y="-492" name="bottom"/>
  <anchor x="487" y="1483" name="top"/>
  <outline>
    <contour>
      <point x="14" y="-492" type="curve" smooth="yes"/>
      <point x="184" y="-492"/>
      <point x="252" y="-383"/>
      <point x="307" y="-123" type="curve" smooth="yes"/>
      <point x="512" y="825" type="line"/>
      <point x="682" y="825" type="line"/>
      <point x="711" y="961" type="line"/>
      <point x="541" y="961" type="line"/>
      <point x="573" y="1118" type="line" smooth="yes"/>
      <point x="606" y="1270"/>
      <point x="635" y="1341"/>
      <point x="711" y="1341" type="curve" smooth="yes"/>
      <point x="743" y="1341"/>
      <point x="770" y="1333"/>
      <point x="809" y="1313" type="curve"/>
      <point x="872" y="1442" type="line"/>
      <point x="815" y="1468"/>
      <point x="768" y="1483"/>
      <point x="713" y="1483" type="curve" smooth="yes"/>
      <point x="549" y="1483"/>
      <point x="477" y="1393"/>
      <point x="420" y="1133" type="curve" smooth="yes"/>
      <point x="381" y="963" type="line"/>
      <point x="233" y="911" type="line"/>
      <point x="215" y="825" type="line"/>
      <point x="352" y="825" type="line"/>
      <point x="152" y="-123" type="line" smooth="yes"/>
      <point x="113" y="-293"/>
      <point x="88" y="-352"/>
      <point x="6" y="-352" type="curve" smooth="yes"/>
      <point x="-23" y="-352"/>
      <point x="-68" y="-344"/>
      <point x="-104" y="-330" type="curve"/>
      <point x="-104" y="-469" type="line"/>
      <point x="-72" y="-483"/>
      <point x="-35" y="-492"/>
    </contour>
  </outline>
</glyph>
<glyph name="uni0193" format="2">
  <advance width="1006"/>
  <unicode hex="0193"/>
  <anchor x="389" y="0" name="bottom"/>
  <anchor x="698" y="1462" name="top"/>
  <outline>
    <contour>
      <point x="465" y="-20" type="curve" smooth="yes"/>
      <point x="563" y="-20"/>
      <point x="674" y="2"/>
      <point x="780" y="43" type="curve"/>
      <point x="936" y="772" type="line"/>
      <point x="592" y="772" type="line"/>
      <point x="561" y="627" type="line"/>
      <point x="741" y="627" type="line"/>
      <point x="641" y="152" type="line"/>
      <point x="590" y="135"/>
      <point x="537" y="127"/>
      <point x="479" y="127" type="curve" smooth="yes"/>
      <point x="322" y="127"/>
      <point x="244" y="225"/>
      <point x="244" y="453" type="curve" smooth="yes"/>
      <point x="244" y="870"/>
      <point x="434" y="1335"/>
      <point x="745" y="1335" type="curve" smooth="yes"/>
      <point x="829" y="1335"/>
      <point x="918" y="1307"/>
      <point x="1001" y="1243" type="curve"/>
      <point x="1061" y="1513" type="line" smooth="yes"/>
      <point x="1075" y="1585"/>
      <point x="1104" y="1620"/>
      <point x="1165" y="1620" type="curve" smooth="yes"/>
      <point x="1192" y="1620"/>
      <point x="1221" y="1614"/>
      <point x="1251" y="1599" type="curve"/>
      <point x="1251" y="1739" type="line"/>
      <point x="1223" y="1751"/>
      <point x="1188" y="1759"/>
      <point x="1143" y="1759" type="curve" smooth="yes"/>
      <point x="1024" y="1759"/>
      <point x="950" y="1686"/>
      <point x="920" y="1556" type="curve" smooth="yes"/>
      <point x="899" y="1456" type="line"/>
      <point x="854" y="1475"/>
      <point x="805" y="1485"/>
      <point x="745" y="1485" type="curve" smooth="yes"/>
      <point x="356" y="1485"/>
      <point x="74" y="1020"/>
      <point x="74" y="444" type="curve" smooth="yes"/>
      <point x="74" y="139"/>
      <point x="201" y="-20"/>
    </contour>
  </outline>
</glyph>
<glyph name="uni0195" format="2">
  <advance width="1290"/>
  <unicode hex="0195"/>
  <anchor x="530" y="0" name="bottom"/>
  <anchor x="760" y="1083" name="top"/>
  <outline>
    <contour>
      <point x="760" y="-18" type="curve" smooth="yes"/>
      <point x="983" y="-18"/>
      <point x="1077" y="119"/>
      <point x="1145" y="436" type="curve" smooth="yes"/>
      <point x="1284" y="1098" type="line"/>
      <point x="1128" y="1098" type="line"/>
      <point x="987" y="438" type="line" smooth="yes"/>
      <point x="938" y="207"/>
      <point x="891" y="123"/>
      <point x="776" y="123" type="curve" smooth="yes"/>
      <point x="711" y="123"/>
      <point x="672" y="168"/>
      <point x="672" y="250" type="curve" smooth="yes"/>
      <point x="672" y="309"/>
      <point x="686" y="379"/>
      <point x="702" y="455" type="curve" smooth="yes"/>
      <point x="754" y="694" type="line" smooth="yes"/>
      <point x="768" y="766"/>
      <point x="784" y="852"/>
      <point x="784" y="909" type="curve" smooth="yes"/>
      <point x="784" y="1047"/>
      <point x="711" y="1118"/>
      <point x="594" y="1118" type="curve" smooth="yes"/>
      <point x="492" y="1118"/>
      <point x="412" y="1063"/>
      <point x="354" y="958" type="curve"/>
      <point x="350" y="958" type="line"/>
      <point x="369" y="1020"/>
      <point x="385" y="1085"/>
      <point x="399" y="1147" type="curve" smooth="yes"/>
      <point x="487" y="1556" type="line"/>
      <point x="330" y="1556" type="line"/>
      <point x="0" y="0" type="line"/>
      <point x="158" y="0" type="line"/>
      <point x="287" y="606" type="line" smooth="yes"/>
      <point x="340" y="862"/>
      <point x="418" y="973"/>
      <point x="530" y="973" type="curve" smooth="yes"/>
      <point x="590" y="973"/>
      <point x="621" y="938"/>
      <point x="621" y="877" type="curve" smooth="yes"/>
      <point x="621" y="815"/>
      <point x="606" y="741"/>
      <point x="592" y="678" type="curve" smooth="yes"/>
      <point x="547" y="465" type="line" smooth="yes"/>
      <point x="528" y="381"/>
      <point x="514" y="293"/>
      <point x="514" y="229" type="curve" smooth="yes"/>
      <point x="514" y="72"/>
      <point x="590" y="-18"/>
    </contour>
  </outline>
</glyph>
<glyph name="uni019A" format="2">
  <advance width="391"/>
  <unicode hex="019A"/>
  <anchor x="82" y="0" name="bottom"/>
  <anchor x="412" y="1556" name="top"/>
  <outline>
    <contour>
      <point x="0" y="0" type="line"/>
      <point x="158" y="0" type="line"/>
      <point x="311" y="717" type="line"/>
      <point x="426" y="717" type="line"/>
      <point x="455" y="850" type="line"/>
      <point x="340" y="850" type="line"/>
      <point x="489" y="1556" type="line"/>
      <point x="332" y="1556" type="line"/>
      <point x="182" y="850" type="line"/>
      <point x="70" y="850" type="line"/>
      <point x="41" y="717" type="line"/>
      <point x="154" y="717" type="line"/>
    </contour>
  </outline>
</glyph>
<glyph name="uni019B" format="2">
  <advance width="741"/>
  <unicode hex="019B"/>
  <anchor x="256" y="0" name="bottom"/>
  <anchor x="590" y="1571" name="top"/>
  <outline>
    <contour>
      <point x="571" y="-20" type="curve" smooth="yes"/>
      <point x="600" y="-20"/>
      <point x="641" y="-14"/>
      <point x="666" y="-6" type="curve"/>
      <point x="666" y="133" type="line"/>
      <point x="645" y="125"/>
      <point x="629" y="123"/>
      <point x="608" y="123" type="curve" smooth="yes"/>
      <point x="565" y="123"/>
      <point x="549" y="156"/>
      <point x="549" y="242" type="curve" smooth="yes"/>
      <point x="553" y="1225" type="line"/>
      <point x="721" y="1253" type="line"/>
      <point x="702" y="1378" type="line"/>
      <point x="547" y="1356" type="line"/>
      <point x="541" y="1493"/>
      <point x="492" y="1571"/>
      <point x="367" y="1571" type="curve" smooth="yes"/>
      <point x="328" y="1571"/>
      <point x="283" y="1563"/>
      <point x="256" y="1554" type="curve"/>
      <point x="256" y="1421" type="line"/>
      <point x="279" y="1430"/>
      <point x="297" y="1434"/>
      <point x="317" y="1434" type="curve" smooth="yes"/>
      <point x="367" y="1434"/>
      <point x="389" y="1407"/>
      <point x="391" y="1331" type="curve"/>
      <point x="229" y="1305" type="line"/>
      <point x="248" y="1178" type="line"/>
      <point x="393" y="1200" type="line"/>
      <point x="391" y="1047" type="line"/>
      <point x="-104" y="0" type="line"/>
      <point x="59" y="0" type="line"/>
      <point x="354" y="662" type="line" smooth="yes"/>
      <point x="375" y="705"/>
      <point x="391" y="756"/>
      <point x="406" y="799" type="curve"/>
      <point x="403" y="731"/>
      <point x="403" y="670"/>
      <point x="401" y="600" type="curve" smooth="yes"/>
      <point x="397" y="221" type="line" smooth="yes"/>
      <point x="399" y="66"/>
      <point x="436" y="-20"/>
    </contour>
  </outline>
</glyph>
<glyph name="uni019C" format="2">
  <advance width="1368"/>
  <unicode hex="019C"/>
  <anchor x="569" y="0" name="bottom"/>
  <anchor x="881" y="1462" name="top"/>
  <outline>
    <contour>
      <point x="264" y="-20" type="curve" smooth="yes"/>
      <point x="369" y="-20"/>
      <point x="455" y="33"/>
      <point x="520" y="143" type="curve"/>
      <point x="524" y="143" type="line"/>
      <point x="541" y="39"/>
      <point x="614" y="-20"/>
      <point x="733" y="-20" type="curve" smooth="yes"/>
      <point x="836" y="-20"/>
      <point x="924" y="35"/>
      <point x="985" y="139" type="curve"/>
      <point x="989" y="139" type="line"/>
      <point x="969" y="0" type="line"/>
      <point x="1102" y="0" type="line"/>
      <point x="1411" y="1462" type="line"/>
      <point x="1247" y="1462" type="line"/>
      <point x="1047" y="510" type="line" smooth="yes"/>
      <point x="991" y="258"/>
      <point x="918" y="131"/>
      <point x="788" y="131" type="curve" smooth="yes"/>
      <point x="723" y="131"/>
      <point x="690" y="168"/>
      <point x="690" y="231" type="curve" smooth="yes"/>
      <point x="690" y="274"/>
      <point x="702" y="340"/>
      <point x="715" y="397" type="curve" smooth="yes"/>
      <point x="940" y="1462" type="line"/>
      <point x="776" y="1462" type="line"/>
      <point x="565" y="473" type="line" smooth="yes"/>
      <point x="516" y="242"/>
      <point x="440" y="131"/>
      <point x="322" y="131" type="curve" smooth="yes"/>
      <point x="254" y="131"/>
      <point x="219" y="168"/>
      <point x="219" y="231" type="curve" smooth="yes"/>
      <point x="219" y="276"/>
      <point x="231" y="342"/>
      <point x="246" y="403" type="curve" smooth="yes"/>
      <point x="469" y="1462" type="line"/>
      <point x="305" y="1462" type="line"/>
      <point x="74" y="373" type="line" smooth="yes"/>
      <point x="61" y="311"/>
      <point x="49" y="242"/>
      <point x="49" y="190" type="curve" smooth="yes"/>
      <point x="49" y="55"/>
      <point x="131" y="-20"/>
    </contour>
  </outline>
</glyph>
<glyph name="uni019D" format="2">
  <advance width="1053"/>
  <unicode hex="019D"/>
  <anchor x="330" y="-389" name="bottom"/>
  <anchor x="723" y="1462" name="top"/>
  <outline>
    <contour>
      <point x="-113" y="-389" type="curve" smooth="yes"/>
      <point x="35" y="-389"/>
      <point x="100" y="-279"/>
      <point x="127" y="-147" type="curve" smooth="yes"/>
      <point x="315" y="750" type="line" smooth="yes"/>
      <point x="332" y="827"/>
      <point x="377" y="1028"/>
      <point x="397" y="1184" type="curve"/>
      <point x="403" y="1184" type="line"/>
      <point x="598" y="0" type="line"/>
      <point x="788" y="0" type="line"/>
      <point x="1098" y="1462" type="line"/>
      <point x="940" y="1462" type="line"/>
      <point x="772" y="676" type="line" smooth="yes"/>
      <point x="754" y="588"/>
      <point x="725" y="444"/>
      <point x="700" y="297" type="curve"/>
      <point x="694" y="297" type="line"/>
      <point x="504" y="1462" type="line"/>
      <point x="309" y="1462" type="line"/>
      <point x="-27" y="-129" type="line" smooth="yes"/>
      <point x="-43" y="-211"/>
      <point x="-72" y="-250"/>
      <point x="-133" y="-250" type="curve" smooth="yes"/>
      <point x="-160" y="-250"/>
      <point x="-190" y="-244"/>
      <point x="-221" y="-231" type="curve"/>
      <point x="-221" y="-369" type="line"/>
      <point x="-190" y="-381"/>
      <point x="-162" y="-389"/>
    </contour>
  </outline>
</glyph>
<glyph name="uni01A2" format="2">
  <advance width="1483"/>
  <unicode hex="01A2"/>
  <anchor x="629" y="0" name="bottom"/>
  <anchor x="938" y="1462" name="top"/>
  <outline>
    <contour>
      <point x="391" y="-20" type="curve" smooth="yes"/>
      <point x="817" y="-20"/>
      <point x="985" y="684"/>
      <point x="985" y="1069" type="curve" smooth="yes"/>
      <point x="985" y="1122"/>
      <point x="981" y="1171"/>
      <point x="973" y="1214" type="curve"/>
      <point x="1028" y="1290"/>
      <point x="1098" y="1331"/>
      <point x="1182" y="1331" type="curve" smooth="yes"/>
      <point x="1262" y="1331"/>
      <point x="1300" y="1294"/>
      <point x="1300" y="1231" type="curve" smooth="yes"/>
      <point x="1300" y="1182"/>
      <point x="1288" y="1116"/>
      <point x="1276" y="1057" type="curve" smooth="yes"/>
      <point x="1053" y="0" type="line"/>
      <point x="1217" y="0" type="line"/>
      <point x="1446" y="1090" type="line" smooth="yes"/>
      <point x="1460" y="1153"/>
      <point x="1470" y="1217"/>
      <point x="1470" y="1270" type="curve" smooth="yes"/>
      <point x="1470" y="1407"/>
      <point x="1382" y="1483"/>
      <point x="1239" y="1483" type="curve" smooth="yes"/>
      <point x="1118" y="1483"/>
      <point x="1016" y="1427"/>
      <point x="938" y="1323" type="curve"/>
      <point x="889" y="1430"/>
      <point x="801" y="1483"/>
      <point x="670" y="1483" type="curve" smooth="yes"/>
      <point x="268" y="1483"/>
      <point x="72" y="852"/>
      <point x="72" y="410" type="curve" smooth="yes"/>
      <point x="72" y="117"/>
      <point x="176" y="-20"/>
    </contour>
    <contour>
      <point x="403" y="129" type="curve" smooth="yes"/>
      <point x="297" y="129"/>
      <point x="242" y="211"/>
      <point x="242" y="408" type="curve" smooth="yes"/>
      <point x="242" y="670"/>
      <point x="354" y="1335"/>
      <point x="655" y="1335" type="curve" smooth="yes"/>
      <point x="764" y="1335"/>
      <point x="817" y="1251"/>
      <point x="817" y="1071" type="curve" smooth="yes"/>
      <point x="817" y="743"/>
      <point x="682" y="129"/>
    </contour>
  </outline>
</glyph>
<glyph name="uni01A3" format="2">
  <advance width="1272"/>
  <unicode hex="01A3"/>
  <anchor x="379" y="-492" name="bottom"/>
  <anchor x="713" y="1083" name="top"/>
  <outline>
    <contour>
      <point x="782" y="-492" type="line"/>
      <point x="938" y="-492" type="line"/>
      <point x="1194" y="705" type="line" smooth="yes"/>
      <point x="1208" y="776"/>
      <point x="1223" y="854"/>
      <point x="1223" y="911" type="curve" smooth="yes"/>
      <point x="1223" y="1055"/>
      <point x="1139" y="1118"/>
      <point x="1026" y="1118" type="curve" smooth="yes"/>
      <point x="911" y="1118"/>
      <point x="838" y="1067"/>
      <point x="762" y="928" type="curve"/>
      <point x="727" y="1051"/>
      <point x="643" y="1118"/>
      <point x="522" y="1118" type="curve" smooth="yes"/>
      <point x="168" y="1118"/>
      <point x="51" y="571"/>
      <point x="51" y="311" type="curve" smooth="yes"/>
      <point x="51" y="96"/>
      <point x="147" y="-20"/>
      <point x="313" y="-20" type="curve" smooth="yes"/>
      <point x="655" y="-20"/>
      <point x="782" y="504"/>
      <point x="782" y="782" type="curve" smooth="yes"/>
      <point x="782" y="793"/>
      <point x="782" y="801"/>
      <point x="782" y="809" type="curve"/>
      <point x="829" y="920"/>
      <point x="889" y="973"/>
      <point x="971" y="973" type="curve" smooth="yes"/>
      <point x="1030" y="973"/>
      <point x="1061" y="938"/>
      <point x="1061" y="877" type="curve" smooth="yes"/>
      <point x="1061" y="823"/>
      <point x="1044" y="748"/>
      <point x="1030" y="682" type="curve" smooth="yes"/>
    </contour>
    <contour>
      <point x="330" y="119" type="curve" smooth="yes"/>
      <point x="250" y="119"/>
      <point x="211" y="180"/>
      <point x="211" y="303" type="curve" smooth="yes"/>
      <point x="211" y="549"/>
      <point x="309" y="981"/>
      <point x="502" y="981" type="curve" smooth="yes"/>
      <point x="582" y="981"/>
      <point x="621" y="918"/>
      <point x="621" y="795" type="curve" smooth="yes"/>
      <point x="621" y="541"/>
      <point x="516" y="119"/>
    </contour>
  </outline>
</glyph>
<glyph name="uni01A6" format="2">
  <advance width="858"/>
  <unicode hex="01A6"/>
  <anchor x="285" y="-141" name="bottom"/>
  <anchor x="625" y="1462" name="top"/>
  <outline>
    <contour>
      <point x="475" y="-205" type="line"/>
      <point x="653" y="-205" type="line"/>
      <point x="522" y="440" type="line"/>
      <point x="707" y="487"/>
      <point x="823" y="696"/>
      <point x="823" y="940" type="curve" smooth="yes"/>
      <point x="823" y="1141"/>
      <point x="705" y="1257"/>
      <point x="492" y="1257" type="curve" smooth="yes"/>
      <point x="430" y="1257" type="line"/>
      <point x="473" y="1462" type="line"/>
      <point x="309" y="1462" type="line"/>
      <point x="0" y="0" type="line"/>
      <point x="164" y="0" type="line"/>
      <point x="250" y="408" type="line"/>
      <point x="365" y="408" type="line"/>
    </contour>
    <contour>
      <point x="281" y="547" type="line"/>
      <point x="399" y="1112" type="line"/>
      <point x="463" y="1112" type="line" smooth="yes"/>
      <point x="586" y="1112"/>
      <point x="651" y="1047"/>
      <point x="651" y="920" type="curve" smooth="yes"/>
      <point x="651" y="731"/>
      <point x="565" y="547"/>
      <point x="371" y="547" type="curve" smooth="yes"/>
    </contour>
  </outline>
</glyph>
<glyph name="uni01A7" format="2">
  <advance width="844"/>
  <unicode hex="01A7"/>
  <anchor x="307" y="0" name="bottom"/>
  <anchor x="616" y="1462" name="top"/>
  <outline>
    <contour>
      <point x="336" y="-20" type="curve" smooth="yes"/>
      <point x="442" y="-20"/>
      <point x="561" y="8"/>
      <point x="655" y="51" type="curve"/>
      <point x="655" y="207" type="line"/>
      <point x="557" y="158"/>
      <point x="455" y="131"/>
      <point x="358" y="131" type="curve" smooth="yes"/>
      <point x="244" y="131"/>
      <point x="182" y="201"/>
      <point x="182" y="313" type="curve" smooth="yes"/>
      <point x="182" y="502"/>
      <point x="297" y="592"/>
      <point x="479" y="682" type="curve" smooth="yes"/>
      <point x="709" y="799"/>
      <point x="862" y="938"/>
      <point x="862" y="1174" type="curve" smooth="yes"/>
      <point x="862" y="1368"/>
      <point x="748" y="1483"/>
      <point x="539" y="1483" type="curve" smooth="yes"/>
      <point x="446" y="1483"/>
      <point x="336" y="1456"/>
      <point x="252" y="1411" type="curve"/>
      <point x="274" y="1264" type="line"/>
      <point x="362" y="1309"/>
      <point x="449" y="1331"/>
      <point x="522" y="1331" type="curve" smooth="yes"/>
      <point x="631" y="1331"/>
      <point x="692" y="1264"/>
      <point x="692" y="1157" type="curve" smooth="yes"/>
      <point x="692" y="987"/>
      <point x="575" y="903"/>
      <point x="391" y="809" type="curve" smooth="yes"/>
      <point x="164" y="694"/>
      <point x="12" y="547"/>
      <point x="12" y="297" type="curve" smooth="yes"/>
      <point x="12" y="104"/>
      <point x="125" y="-20"/>
    </contour>
  </outline>
</glyph>
<glyph name="uni01A8" format="2">
  <advance width="682"/>
  <unicode hex="01A8"/>
  <anchor x="227" y="0" name="bottom"/>
  <anchor x="457" y="1083" name="top"/>
  <outline>
    <contour>
      <point x="274" y="-20" type="curve" smooth="yes"/>
      <point x="362" y="-20"/>
      <point x="467" y="8"/>
      <point x="537" y="47" type="curve"/>
      <point x="537" y="195" type="line"/>
      <point x="471" y="154"/>
      <point x="377" y="119"/>
      <point x="291" y="119" type="curve" smooth="yes"/>
      <point x="207" y="119"/>
      <point x="162" y="162"/>
      <point x="162" y="246" type="curve" smooth="yes"/>
      <point x="162" y="358"/>
      <point x="233" y="424"/>
      <point x="383" y="504" type="curve" smooth="yes"/>
      <point x="569" y="602"/>
      <point x="688" y="709"/>
      <point x="688" y="877" type="curve" smooth="yes"/>
      <point x="688" y="1028"/>
      <point x="594" y="1118"/>
      <point x="420" y="1118" type="curve" smooth="yes"/>
      <point x="340" y="1118"/>
      <point x="254" y="1096"/>
      <point x="172" y="1047" type="curve"/>
      <point x="203" y="920" type="line"/>
      <point x="266" y="956"/>
      <point x="336" y="983"/>
      <point x="406" y="983" type="curve" smooth="yes"/>
      <point x="489" y="983"/>
      <point x="530" y="938"/>
      <point x="530" y="870" type="curve" smooth="yes"/>
      <point x="530" y="762"/>
      <point x="459" y="705"/>
      <point x="305" y="623" type="curve" smooth="yes"/>
      <point x="100" y="514"/>
      <point x="0" y="403"/>
      <point x="0" y="231" type="curve" smooth="yes"/>
      <point x="0" y="63"/>
      <point x="94" y="-20"/>
    </contour>
  </outline>
</glyph>
<glyph name="uni01AA" format="2">
  <advance width="434"/>
  <unicode hex="01AA"/>
  <anchor x="-2" y="-492" name="bottom"/>
  <anchor x="436" y="1577" name="top"/>
  <outline>
    <contour>
      <point x="123" y="-492" type="curve" smooth="yes"/>
      <point x="168" y="-492"/>
      <point x="219" y="-479"/>
      <point x="260" y="-459" type="curve"/>
      <point x="260" y="-330" type="line"/>
      <point x="231" y="-340"/>
      <point x="201" y="-350"/>
      <point x="174" y="-350" type="curve" smooth="yes"/>
      <point x="141" y="-350"/>
      <point x="125" y="-328"/>
      <point x="125" y="-291" type="curve" smooth="yes"/>
      <point x="125" y="-266"/>
      <point x="129" y="-240"/>
      <point x="135" y="-211" type="curve" smooth="yes"/>
      <point x="442" y="1233" type="line" smooth="yes"/>
      <point x="451" y="1270"/>
      <point x="455" y="1317"/>
      <point x="455" y="1346" type="curve" smooth="yes"/>
      <point x="455" y="1495"/>
      <point x="389" y="1577"/>
      <point x="248" y="1577" type="curve" smooth="yes"/>
      <point x="92" y="1577"/>
      <point x="14" y="1454"/>
      <point x="14" y="1311" type="curve" smooth="yes"/>
      <point x="14" y="1190"/>
      <point x="74" y="1108"/>
      <point x="219" y="1108" type="curve" smooth="yes"/>
      <point x="258" y="1108" type="line"/>
      <point x="-18" y="-199" type="line" smooth="yes"/>
      <point x="-27" y="-242"/>
      <point x="-35" y="-295"/>
      <point x="-35" y="-326" type="curve" smooth="yes"/>
      <point x="-35" y="-430"/>
      <point x="16" y="-492"/>
    </contour>
    <contour>
      <point x="240" y="1217" type="line" smooth="yes"/>
      <point x="160" y="1217"/>
      <point x="125" y="1247"/>
      <point x="125" y="1319" type="curve" smooth="yes"/>
      <point x="125" y="1399"/>
      <point x="158" y="1466"/>
      <point x="227" y="1466" type="curve" smooth="yes"/>
      <point x="274" y="1466"/>
      <point x="303" y="1440"/>
      <point x="303" y="1358" type="curve" smooth="yes"/>
      <point x="303" y="1339"/>
      <point x="301" y="1313"/>
      <point x="297" y="1288" type="curve" smooth="yes"/>
      <point x="281" y="1217" type="line"/>
    </contour>
  </outline>
</glyph>
<glyph name="uni01AC" format="2">
  <advance width="803"/>
  <unicode hex="01AC"/>
  <anchor x="287" y="0" name="bottom"/>
  <anchor x="598" y="1462" name="top"/>
  <outline>
    <contour>
      <point x="236" y="0" type="line"/>
      <point x="399" y="0" type="line"/>
      <point x="678" y="1313" type="line"/>
      <point x="928" y="1313" type="line"/>
      <point x="961" y="1462" type="line"/>
      <point x="475" y="1462" type="line" smooth="yes"/>
      <point x="262" y="1462"/>
      <point x="162" y="1343"/>
      <point x="162" y="1186" type="curve" smooth="yes"/>
      <point x="162" y="1149"/>
      <point x="166" y="1112"/>
      <point x="172" y="1090" type="curve"/>
      <point x="317" y="1090" type="line"/>
      <point x="311" y="1114"/>
      <point x="307" y="1141"/>
      <point x="307" y="1171" type="curve" smooth="yes"/>
      <point x="307" y="1253"/>
      <point x="346" y="1313"/>
      <point x="469" y="1313" type="curve" smooth="yes"/>
      <point x="512" y="1313" type="line"/>
    </contour>
  </outline>
</glyph>
<glyph name="uni01AD" format="2">
  <advance width="487"/>
  <unicode hex="01AD"/>
  <anchor x="129" y="0" name="bottom"/>
  <anchor x="463" y="1567" name="top"/>
  <outline>
    <contour>
      <point x="209" y="-20" type="curve" smooth="yes"/>
      <point x="254" y="-20"/>
      <point x="313" y="-10"/>
      <point x="358" y="10" type="curve"/>
      <point x="358" y="139" type="line"/>
      <point x="330" y="127"/>
      <point x="293" y="121"/>
      <point x="268" y="121" type="curve" smooth="yes"/>
      <point x="223" y="121"/>
      <point x="207" y="143"/>
      <point x="207" y="190" type="curve" smooth="yes"/>
      <point x="207" y="217"/>
      <point x="215" y="258"/>
      <point x="223" y="299" type="curve" smooth="yes"/>
      <point x="365" y="963" type="line"/>
      <point x="520" y="963" type="line"/>
      <point x="549" y="1098" type="line"/>
      <point x="393" y="1098" type="line"/>
      <point x="426" y="1257" type="line" smooth="yes"/>
      <point x="451" y="1364"/>
      <point x="477" y="1425"/>
      <point x="561" y="1425" type="curve" smooth="yes"/>
      <point x="590" y="1425"/>
      <point x="625" y="1419"/>
      <point x="649" y="1411" type="curve"/>
      <point x="649" y="1552" type="line"/>
      <point x="618" y="1561"/>
      <point x="582" y="1567"/>
      <point x="545" y="1567" type="curve" smooth="yes"/>
      <point x="356" y="1567"/>
      <point x="303" y="1413"/>
      <point x="260" y="1217" type="curve" smooth="yes"/>
      <point x="233" y="1090" type="line"/>
      <point x="127" y="1053" type="line"/>
      <point x="109" y="963" type="line"/>
      <point x="207" y="963" type="line"/>
      <point x="70" y="317" type="line" smooth="yes"/>
      <point x="55" y="252"/>
      <point x="49" y="203"/>
      <point x="49" y="164" type="curve" smooth="yes"/>
      <point x="49" y="49"/>
      <point x="96" y="-20"/>
    </contour>
  </outline>
</glyph>
<glyph name="uni01AE" format="2">
  <advance width="705"/>
  <unicode hex="01AE"/>
  <anchor x="150" y="-412" name="bottom"/>
  <anchor x="547" y="1462" name="top"/>
  <outline>
    <contour>
      <point x="266" y="-412" type="curve" smooth="yes"/>
      <point x="313" y="-412"/>
      <point x="365" y="-401"/>
      <point x="391" y="-393" type="curve"/>
      <point x="391" y="-258" type="line"/>
      <point x="373" y="-268"/>
      <point x="346" y="-274"/>
      <point x="319" y="-274" type="curve" smooth="yes"/>
      <point x="287" y="-274"/>
      <point x="260" y="-258"/>
      <point x="260" y="-215" type="curve" smooth="yes"/>
      <point x="260" y="-188"/>
      <point x="266" y="-156"/>
      <point x="274" y="-127" type="curve" smooth="yes"/>
      <point x="580" y="1313" type="line"/>
      <point x="829" y="1313" type="line"/>
      <point x="862" y="1462" type="line"/>
      <point x="195" y="1462" type="line"/>
      <point x="164" y="1313" type="line"/>
      <point x="414" y="1313" type="line"/>
      <point x="111" y="-121" type="line" smooth="yes"/>
      <point x="98" y="-178"/>
      <point x="92" y="-217"/>
      <point x="92" y="-252" type="curve" smooth="yes"/>
      <point x="92" y="-346"/>
      <point x="154" y="-412"/>
    </contour>
  </outline>
</glyph>
<glyph name="uhorn" format="2">
  <advance width="938"/>
  <unicode hex="01B0"/>
  <anchor x="354" y="0" name="bottom"/>
  <anchor x="584" y="1083" name="top"/>
  <outline>
    <contour>
      <point x="238" y="-20" type="curve" smooth="yes"/>
      <point x="334" y="-20"/>
      <point x="416" y="37"/>
      <point x="479" y="139" type="curve"/>
      <point x="483" y="139" type="line"/>
      <point x="473" y="0" type="line"/>
      <point x="598" y="0" type="line"/>
      <point x="776" y="838" type="line"/>
      <point x="985" y="864"/>
      <point x="1094" y="1018"/>
      <point x="1135" y="1237" type="curve"/>
      <point x="1128" y="1260" type="line"/>
      <point x="985" y="1260" type="line"/>
      <point x="956" y="1094"/>
      <point x="903" y="983"/>
      <point x="801" y="958" type="curve"/>
      <point x="831" y="1098" type="line"/>
      <point x="674" y="1098" type="line"/>
      <point x="547" y="508" type="line" smooth="yes"/>
      <point x="496" y="262"/>
      <point x="416" y="125"/>
      <point x="295" y="125" type="curve" smooth="yes"/>
      <point x="238" y="125"/>
      <point x="209" y="162"/>
      <point x="209" y="231" type="curve" smooth="yes"/>
      <point x="209" y="276"/>
      <point x="219" y="334"/>
      <point x="231" y="393" type="curve" smooth="yes"/>
      <point x="383" y="1098" type="line"/>
      <point x="225" y="1098" type="line"/>
      <point x="72" y="377" type="line" smooth="yes"/>
      <point x="57" y="313"/>
      <point x="47" y="246"/>
      <point x="47" y="193" type="curve" smooth="yes"/>
      <point x="47" y="55"/>
      <point x="115" y="-20"/>
    </contour>
  </outline>
</glyph>
<glyph name="uni01B2" format="2">
  <advance width="967"/>
  <unicode hex="01B2"/>
  <anchor x="352" y="0" name="bottom"/>
  <anchor x="662" y="1462" name="top"/>
  <anchor x="1118" y="1462" name="topright"/>
  <outline>
    <contour>
      <point x="360" y="-20" type="curve" smooth="yes"/>
      <point x="625" y="-20"/>
      <point x="739" y="164"/>
      <point x="803" y="457" type="curve" smooth="yes"/>
      <point x="963" y="1196" type="line" smooth="yes"/>
      <point x="975" y="1249"/>
      <point x="979" y="1290"/>
      <point x="979" y="1325" type="curve" smooth="yes"/>
      <point x="979" y="1421"/>
      <point x="915" y="1483"/>
      <point x="817" y="1483" type="curve" smooth="yes"/>
      <point x="752" y="1483"/>
      <point x="698" y="1468"/>
      <point x="662" y="1454" type="curve"/>
      <point x="662" y="1319" type="line"/>
      <point x="690" y="1335"/>
      <point x="725" y="1346"/>
      <point x="754" y="1346" type="curve" smooth="yes"/>
      <point x="786" y="1346"/>
      <point x="811" y="1325"/>
      <point x="811" y="1282" type="curve" smooth="yes"/>
      <point x="811" y="1253"/>
      <point x="805" y="1223"/>
      <point x="799" y="1198" type="curve" smooth="yes"/>
      <point x="643" y="473" type="line" smooth="yes"/>
      <point x="592" y="233"/>
      <point x="520" y="129"/>
      <point x="381" y="129" type="curve" smooth="yes"/>
      <point x="285" y="129"/>
      <point x="233" y="186"/>
      <point x="233" y="307" type="curve" smooth="yes"/>
      <point x="233" y="348"/>
      <point x="240" y="399"/>
      <point x="250" y="451" type="curve" smooth="yes"/>
      <point x="465" y="1462" type="line"/>
      <point x="301" y="1462" type="line"/>
      <point x="88" y="459" type="line" smooth="yes"/>
      <point x="74" y="395"/>
      <point x="68" y="336"/>
      <point x="68" y="287" type="curve" smooth="yes"/>
      <point x="68" y="92"/>
      <point x="176" y="-20"/>
    </contour>
  </outline>
</glyph>
<glyph name="uni01B5" format="2">
  <advance width="666"/>
  <unicode hex="01B5"/>
  <anchor x="219" y="0" name="bottom"/>
  <anchor x="528" y="1462" name="top"/>
  <outline>
    <contour>
      <point x="-84" y="0" type="line"/>
      <point x="516" y="0" type="line"/>
      <point x="547" y="147" type="line"/>
      <point x="127" y="147" type="line"/>
      <point x="426" y="694" type="line"/>
      <point x="625" y="694" type="line"/>
      <point x="653" y="829" type="line"/>
      <point x="508" y="829" type="line"/>
      <point x="786" y="1333" type="line"/>
      <point x="813" y="1462" type="line"/>
      <point x="236" y="1462" type="line"/>
      <point x="205" y="1315" type="line"/>
      <point x="598" y="1315" type="line"/>
      <point x="334" y="829" type="line"/>
      <point x="133" y="829" type="line"/>
      <point x="104" y="694" type="line"/>
      <point x="252" y="694" type="line"/>
      <point x="-57" y="127" type="line"/>
    </contour>
  </outline>
</glyph>
<glyph name="uni01B6" format="2">
  <advance width="571"/>
  <unicode hex="01B6"/>
  <anchor x="172" y="0" name="bottom"/>
  <anchor x="401" y="1083" name="top"/>
  <outline>
    <contour>
      <point x="-74" y="0" type="line"/>
      <point x="420" y="0" type="line"/>
      <point x="451" y="137" type="line"/>
      <point x="135" y="137" type="line"/>
      <point x="338" y="506" type="line"/>
      <point x="510" y="506" type="line"/>
      <point x="539" y="635" type="line"/>
      <point x="420" y="635" type="line"/>
      <point x="616" y="985" type="line"/>
      <point x="641" y="1098" type="line"/>
      <point x="178" y="1098" type="line"/>
      <point x="150" y="963" type="line"/>
      <point x="436" y="963" type="line"/>
      <point x="256" y="635" type="line"/>
      <point x="86" y="635" type="line"/>
      <point x="59" y="506" type="line"/>
      <point x="172" y="506" type="line"/>
      <point x="-51" y="106" type="line"/>
    </contour>
  </outline>
</glyph>
<glyph name="uni01B9" format="2">
  <advance width="745"/>
  <unicode hex="01B9"/>
  <anchor x="154" y="-492" name="bottom"/>
  <anchor x="487" y="1083" name="top"/>
  <outline>
    <contour>
      <point x="260" y="-492" type="curve" smooth="yes"/>
      <point x="356" y="-492"/>
      <point x="455" y="-467"/>
      <point x="528" y="-426" type="curve"/>
      <point x="528" y="-274" type="line"/>
      <point x="457" y="-326"/>
      <point x="377" y="-352"/>
      <point x="287" y="-352" type="curve" smooth="yes"/>
      <point x="174" y="-352"/>
      <point x="106" y="-266"/>
      <point x="106" y="-106" type="curve" smooth="yes"/>
      <point x="106" y="131"/>
      <point x="227" y="313"/>
      <point x="436" y="313" type="curve" smooth="yes"/>
      <point x="541" y="313" type="line"/>
      <point x="565" y="432" type="line"/>
      <point x="328" y="963" type="line"/>
      <point x="754" y="963" type="line"/>
      <point x="784" y="1098" type="line"/>
      <point x="186" y="1098" type="line"/>
      <point x="158" y="965" type="line"/>
      <point x="395" y="444" type="line"/>
      <point x="111" y="426"/>
      <point x="-57" y="193"/>
      <point x="-57" y="-113" type="curve" smooth="yes"/>
      <point x="-57" y="-348"/>
      <point x="51" y="-492"/>
    </contour>
  </outline>
</glyph>
<glyph name="uni01BA" format="2">
  <advance width="616"/>
  <unicode hex="01BA"/>
  <anchor x="90" y="-492" name="bottom"/>
  <anchor x="424" y="1083" name="top"/>
  <outline>
    <contour>
      <point x="135" y="-492" type="curve" smooth="yes"/>
      <point x="219" y="-492"/>
      <point x="299" y="-471"/>
      <point x="354" y="-449" type="curve"/>
      <point x="354" y="-307" type="line"/>
      <point x="309" y="-332"/>
      <point x="229" y="-354"/>
      <point x="156" y="-354" type="curve" smooth="yes"/>
      <point x="59" y="-354"/>
      <point x="12" y="-301"/>
      <point x="12" y="-207" type="curve" smooth="yes"/>
      <point x="12" y="-106"/>
      <point x="68" y="-41"/>
      <point x="209" y="-4" type="curve" smooth="yes"/>
      <point x="391" y="47"/>
      <point x="508" y="147"/>
      <point x="508" y="348" type="curve" smooth="yes"/>
      <point x="508" y="508"/>
      <point x="432" y="596"/>
      <point x="299" y="627" type="curve"/>
      <point x="602" y="983" type="line"/>
      <point x="627" y="1098" type="line"/>
      <point x="127" y="1098" type="line"/>
      <point x="96" y="963" type="line"/>
      <point x="412" y="963" type="line"/>
      <point x="131" y="627" type="line"/>
      <point x="109" y="514" type="line"/>
      <point x="193" y="514" type="line" smooth="yes"/>
      <point x="287" y="514"/>
      <point x="348" y="459"/>
      <point x="348" y="354" type="curve" smooth="yes"/>
      <point x="348" y="219"/>
      <point x="283" y="166"/>
      <point x="137" y="123" type="curve" smooth="yes"/>
      <point x="-47" y="70"/>
      <point x="-141" y="-39"/>
      <point x="-141" y="-219" type="curve" smooth="yes"/>
      <point x="-141" y="-395"/>
      <point x="-45" y="-492"/>
    </contour>
  </outline>
</glyph>
<glyph name="uni01BB" format="2">
  <advance width="801"/>
  <unicode hex="01BB"/>
  <anchor x="285" y="0" name="bottom"/>
  <anchor x="618" y="1569" name="top"/>
  <outline>
    <contour>
      <point x="-86" y="0" type="line"/>
      <point x="555" y="0" type="line"/>
      <point x="584" y="137" type="line"/>
      <point x="127" y="137" type="line"/>
      <point x="127" y="143" type="line"/>
      <point x="555" y="713" type="line"/>
      <point x="766" y="713" type="line"/>
      <point x="797" y="846" type="line"/>
      <point x="649" y="846" type="line"/>
      <point x="717" y="956"/>
      <point x="788" y="1102"/>
      <point x="788" y="1264" type="curve" smooth="yes"/>
      <point x="788" y="1458"/>
      <point x="680" y="1569"/>
      <point x="514" y="1569" type="curve" smooth="yes"/>
      <point x="383" y="1569"/>
      <point x="287" y="1524"/>
      <point x="201" y="1448" type="curve"/>
      <point x="264" y="1335" type="line"/>
      <point x="342" y="1399"/>
      <point x="399" y="1432"/>
      <point x="477" y="1432" type="curve" smooth="yes"/>
      <point x="573" y="1432"/>
      <point x="629" y="1372"/>
      <point x="629" y="1243" type="curve" smooth="yes"/>
      <point x="629" y="1100"/>
      <point x="561" y="967"/>
      <point x="477" y="846" type="curve"/>
      <point x="186" y="846" type="line"/>
      <point x="158" y="713" type="line"/>
      <point x="379" y="713" type="line"/>
      <point x="-63" y="121" type="line"/>
    </contour>
  </outline>
</glyph>
<glyph name="uni01BE" format="2">
  <advance width="614"/>
  <unicode hex="01BE"/>
  <anchor x="193" y="0" name="bottom"/>
  <anchor x="477" y="1348" name="top"/>
  <outline>
    <contour>
      <point x="170" y="-20" type="curve" smooth="yes"/>
      <point x="377" y="-20"/>
      <point x="496" y="113"/>
      <point x="496" y="317" type="curve" smooth="yes"/>
      <point x="496" y="446"/>
      <point x="459" y="506"/>
      <point x="373" y="592" type="curve" smooth="yes"/>
      <point x="346" y="621"/>
      <point x="336" y="643"/>
      <point x="336" y="674" type="curve" smooth="yes"/>
      <point x="336" y="700"/>
      <point x="342" y="733"/>
      <point x="348" y="764" type="curve" smooth="yes"/>
      <point x="391" y="963" type="line"/>
      <point x="547" y="963" type="line"/>
      <point x="575" y="1098" type="line"/>
      <point x="420" y="1098" type="line"/>
      <point x="473" y="1348" type="line"/>
      <point x="358" y="1348" type="line"/>
      <point x="270" y="1096" type="line"/>
      <point x="154" y="1053" type="line"/>
      <point x="135" y="963" type="line"/>
      <point x="233" y="963" type="line"/>
      <point x="193" y="774" type="line" smooth="yes"/>
      <point x="184" y="729"/>
      <point x="178" y="686"/>
      <point x="178" y="647" type="curve" smooth="yes"/>
      <point x="178" y="586"/>
      <point x="197" y="541"/>
      <point x="242" y="492" type="curve" smooth="yes"/>
      <point x="313" y="420"/>
      <point x="330" y="373"/>
      <point x="330" y="301" type="curve" smooth="yes"/>
      <point x="330" y="184"/>
      <point x="264" y="121"/>
      <point x="154" y="121" type="curve" smooth="yes"/>
      <point x="80" y="121"/>
      <point x="-8" y="154"/>
      <point x="-57" y="193" type="curve"/>
      <point x="-57" y="31" type="line"/>
      <point x="-12" y="2"/>
      <point x="74" y="-20"/>
    </contour>
  </outline>
</glyph>
<glyph name="uni01BF" format="2">
  <advance width="854"/>
  <unicode hex="01BF"/>
  <anchor x="211" y="-477" name="bottom"/>
  <anchor x="543" y="1083" name="top"/>
  <outline>
    <contour>
      <point x="-98" y="-477" type="line"/>
      <point x="57" y="-477" type="line"/>
      <point x="154" y="-20" type="line"/>
      <point x="602" y="82"/>
      <point x="813" y="424"/>
      <point x="813" y="819" type="curve" smooth="yes"/>
      <point x="813" y="1020"/>
      <point x="737" y="1118"/>
      <point x="602" y="1118" type="curve" smooth="yes"/>
      <point x="504" y="1118"/>
      <point x="424" y="1061"/>
      <point x="350" y="942" type="curve"/>
      <point x="344" y="942" type="line"/>
      <point x="365" y="1098" type="line"/>
      <point x="233" y="1098" type="line"/>
    </contour>
    <contour>
      <point x="182" y="121" type="curve"/>
      <point x="274" y="569" type="line" smooth="yes"/>
      <point x="317" y="768"/>
      <point x="406" y="983"/>
      <point x="545" y="983" type="curve" smooth="yes"/>
      <point x="618" y="983"/>
      <point x="649" y="926"/>
      <point x="649" y="807" type="curve" smooth="yes"/>
      <point x="649" y="475"/>
      <point x="477" y="207"/>
    </contour>
  </outline>
</glyph>
<glyph name="uni01F6" format="2">
  <advance width="1444"/>
  <unicode hex="01F6"/>
  <anchor x="606" y="0" name="bottom"/>
  <anchor x="918" y="1462" name="top"/>
  <outline>
    <contour>
      <point x="881" y="-18" type="curve" smooth="yes"/>
      <point x="1104" y="-18"/>
      <point x="1231" y="113"/>
      <point x="1292" y="422" type="curve" smooth="yes"/>
      <point x="1427" y="1098" type="line"/>
      <point x="1264" y="1098" type="line"/>
      <point x="1120" y="420" type="line" smooth="yes"/>
      <point x="1075" y="201"/>
      <point x="1008" y="129"/>
      <point x="897" y="129" type="curve" smooth="yes"/>
      <point x="825" y="129"/>
      <point x="791" y="170"/>
      <point x="791" y="254" type="curve" smooth="yes"/>
      <point x="791" y="309"/>
      <point x="803" y="371"/>
      <point x="817" y="438" type="curve" smooth="yes"/>
      <point x="1034" y="1462" type="line"/>
      <point x="870" y="1462" type="line"/>
      <point x="737" y="840" type="line"/>
      <point x="342" y="840" type="line"/>
      <point x="473" y="1462" type="line"/>
      <point x="309" y="1462" type="line"/>
      <point x="0" y="0" type="line"/>
      <point x="164" y="0" type="line"/>
      <point x="309" y="690" type="line"/>
      <point x="705" y="690" type="line"/>
      <point x="655" y="457" type="line" smooth="yes"/>
      <point x="639" y="373"/>
      <point x="625" y="289"/>
      <point x="625" y="231" type="curve" smooth="yes"/>
      <point x="625" y="72"/>
      <point x="707" y="-18"/>
    </contour>
  </outline>
</glyph>
<glyph name="uni01F7" format="2">
  <advance width="979"/>
  <unicode hex="01F7"/>
  <anchor x="272" y="-492" name="bottom"/>
  <anchor x="686" y="1462" name="top"/>
  <outline>
    <contour>
      <point x="-102" y="-492" type="line"/>
      <point x="61" y="-492" type="line"/>
      <point x="162" y="-20" type="line"/>
      <point x="766" y="348"/>
      <point x="995" y="680"/>
      <point x="995" y="1110" type="curve" smooth="yes"/>
      <point x="995" y="1366"/>
      <point x="877" y="1483"/>
      <point x="690" y="1483" type="curve" smooth="yes"/>
      <point x="573" y="1483"/>
      <point x="489" y="1425"/>
      <point x="428" y="1321" type="curve"/>
      <point x="424" y="1321" type="line"/>
      <point x="444" y="1462" type="line"/>
      <point x="309" y="1462" type="line"/>
    </contour>
    <contour>
      <point x="199" y="170" type="curve"/>
      <point x="367" y="952" type="line" smooth="yes"/>
      <point x="424" y="1217"/>
      <point x="504" y="1331"/>
      <point x="651" y="1331" type="curve" smooth="yes"/>
      <point x="760" y="1331"/>
      <point x="825" y="1257"/>
      <point x="825" y="1079" type="curve" smooth="yes"/>
      <point x="825" y="770"/>
      <point x="672" y="492"/>
    </contour>
  </outline>
</glyph>
<glyph name="Aringacute" format="2">
  <advance width="827"/>
  <unicode hex="01FA"/>
  <anchor x="299" y="0" name="bottom"/>
  <anchor x="713" y="1950" name="top"/>
  <outline>
    <contour>
      <point x="-129" y="0" type="line"/>
      <point x="49" y="0" type="line"/>
      <point x="238" y="451" type="line"/>
      <point x="518" y="451" type="line"/>
      <point x="528" y="0" type="line"/>
      <point x="698" y="0" type="line"/>
      <point x="662" y="1255" type="line"/>
      <point x="727" y="1280"/>
      <point x="766" y="1339"/>
      <point x="766" y="1423" type="curve" smooth="yes"/>
      <point x="766" y="1536"/>
      <point x="684" y="1622"/>
      <point x="559" y="1622" type="curve" smooth="yes"/>
      <point x="428" y="1622"/>
      <point x="350" y="1542"/>
      <point x="350" y="1419" type="curve" smooth="yes"/>
      <point x="350" y="1354"/>
      <point x="375" y="1305"/>
      <point x="420" y="1278" type="curve"/>
    </contour>
    <contour>
      <point x="295" y="600" type="line"/>
      <point x="473" y="1047" type="line" smooth="yes"/>
      <point x="492" y="1096"/>
      <point x="510" y="1147"/>
      <point x="520" y="1192" type="curve"/>
      <point x="526" y="1192" type="line"/>
      <point x="522" y="1145"/>
      <point x="524" y="1092"/>
      <point x="524" y="1044" type="curve" smooth="yes"/>
      <point x="526" y="600" type="line"/>
    </contour>
    <contour>
      <point x="559" y="1309" type="curve" smooth="yes"/>
      <point x="483" y="1309"/>
      <point x="451" y="1352"/>
      <point x="451" y="1417" type="curve" smooth="yes"/>
      <point x="451" y="1483"/>
      <point x="492" y="1530"/>
      <point x="559" y="1530" type="curve" smooth="yes"/>
      <point x="629" y="1530"/>
      <point x="670" y="1483"/>
      <point x="670" y="1417" type="curve" smooth="yes"/>
      <point x="670" y="1352"/>
      <point x="625" y="1309"/>
    </contour>
    <contour>
      <point x="510" y="1679" type="line"/>
      <point x="623" y="1679" type="line"/>
      <point x="709" y="1739"/>
      <point x="842" y="1860"/>
      <point x="907" y="1935" type="curve"/>
      <point x="907" y="1950" type="line"/>
      <point x="709" y="1950" type="line"/>
      <point x="653" y="1858"/>
      <point x="580" y="1772"/>
      <point x="510" y="1694" type="curve"/>
    </contour>
  </outline>
</glyph>
<glyph name="uni021C" format="2">
  <advance width="928"/>
  <unicode hex="021C"/>
  <anchor x="223" y="-225" name="bottom"/>
  <anchor x="625" y="1462" name="top"/>
  <outline>
    <contour>
      <point x="-123" y="-369" type="line"/>
      <point x="391" y="-219"/>
      <point x="823" y="0"/>
      <point x="823" y="463" type="curve" smooth="yes"/>
      <point x="823" y="608"/>
      <point x="750" y="702"/>
      <point x="678" y="758" type="curve"/>
      <point x="848" y="852"/>
      <point x="952" y="1012"/>
      <point x="952" y="1194" type="curve" smooth="yes"/>
      <point x="952" y="1378"/>
      <point x="813" y="1483"/>
      <point x="637" y="1483" type="curve" smooth="yes"/>
      <point x="489" y="1483"/>
      <point x="352" y="1436"/>
      <point x="215" y="1331" type="curve"/>
      <point x="287" y="1208" type="line"/>
      <point x="391" y="1288"/>
      <point x="494" y="1327"/>
      <point x="610" y="1327" type="curve" smooth="yes"/>
      <point x="698" y="1327"/>
      <point x="774" y="1278"/>
      <point x="774" y="1167" type="curve" smooth="yes"/>
      <point x="774" y="918"/>
      <point x="563" y="825"/>
      <point x="279" y="741" type="curve"/>
      <point x="279" y="606" type="line"/>
      <point x="371" y="631"/>
      <point x="457" y="657"/>
      <point x="537" y="690" type="curve"/>
      <point x="604" y="633"/>
      <point x="647" y="567"/>
      <point x="647" y="467" type="curve" smooth="yes"/>
      <point x="647" y="109"/>
      <point x="338" y="-74"/>
      <point x="-88" y="-207" type="curve"/>
    </contour>
  </outline>
</glyph>
<glyph name="uni021D" format="2">
  <advance width="766"/>
  <unicode hex="021D"/>
  <anchor x="178" y="-362" name="bottom"/>
  <anchor x="473" y="1098" name="top"/>
  <outline>
    <contour>
      <point x="-164" y="-492" type="line"/>
      <point x="260" y="-383"/>
      <point x="631" y="-193"/>
      <point x="631" y="203" type="curve" smooth="yes"/>
      <point x="631" y="332"/>
      <point x="575" y="416"/>
      <point x="518" y="463" type="curve"/>
      <point x="657" y="555"/>
      <point x="745" y="698"/>
      <point x="745" y="846" type="curve" smooth="yes"/>
      <point x="745" y="1014"/>
      <point x="635" y="1120"/>
      <point x="467" y="1120" type="curve" smooth="yes"/>
      <point x="362" y="1120"/>
      <point x="256" y="1087"/>
      <point x="162" y="1038" type="curve"/>
      <point x="211" y="913" type="line"/>
      <point x="287" y="954"/>
      <point x="360" y="975"/>
      <point x="444" y="975" type="curve" smooth="yes"/>
      <point x="516" y="975"/>
      <point x="578" y="930"/>
      <point x="578" y="827" type="curve" smooth="yes"/>
      <point x="578" y="621"/>
      <point x="424" y="522"/>
      <point x="186" y="455" type="curve"/>
      <point x="186" y="324" type="line"/>
      <point x="256" y="344"/>
      <point x="322" y="365"/>
      <point x="381" y="389" type="curve"/>
      <point x="432" y="346"/>
      <point x="467" y="293"/>
      <point x="467" y="203" type="curve" smooth="yes"/>
      <point x="467" y="-94"/>
      <point x="199" y="-254"/>
      <point x="-131" y="-344" type="curve"/>
    </contour>
  </outline>
</glyph>
<glyph name="uni0222" format="2">
  <advance width="918"/>
  <unicode hex="0222"/>
  <anchor x="344" y="0" name="bottom"/>
  <anchor x="655" y="1462" name="top"/>
  <outline>
    <contour>
      <point x="375" y="-20" type="curve" smooth="yes"/>
      <point x="694" y="-20"/>
      <point x="827" y="313"/>
      <point x="827" y="598" type="curve" smooth="yes"/>
      <point x="827" y="745"/>
      <point x="782" y="844"/>
      <point x="702" y="899" type="curve"/>
      <point x="801" y="944"/>
      <point x="856" y="1036"/>
      <point x="891" y="1206" type="curve" smooth="yes"/>
      <point x="946" y="1462" type="line"/>
      <point x="782" y="1462" type="line"/>
      <point x="729" y="1208" type="line" smooth="yes"/>
      <point x="698" y="1063"/>
      <point x="659" y="981"/>
      <point x="530" y="983" type="curve" smooth="yes"/>
      <point x="434" y="981"/>
      <point x="391" y="1022"/>
      <point x="391" y="1122" type="curve" smooth="yes"/>
      <point x="391" y="1151"/>
      <point x="397" y="1188"/>
      <point x="406" y="1229" type="curve" smooth="yes"/>
      <point x="453" y="1462" type="line"/>
      <point x="289" y="1462" type="line"/>
      <point x="246" y="1247" type="line" smooth="yes"/>
      <point x="236" y="1202"/>
      <point x="229" y="1149"/>
      <point x="229" y="1112" type="curve" smooth="yes"/>
      <point x="229" y="1018"/>
      <point x="258" y="954"/>
      <point x="311" y="915" type="curve"/>
      <point x="125" y="831"/>
      <point x="41" y="584"/>
      <point x="41" y="354" type="curve" smooth="yes"/>
      <point x="41" y="102"/>
      <point x="172" y="-20"/>
    </contour>
    <contour>
      <point x="377" y="129" type="curve" smooth="yes"/>
      <point x="272" y="129"/>
      <point x="209" y="199"/>
      <point x="209" y="371" type="curve" smooth="yes"/>
      <point x="209" y="571"/>
      <point x="285" y="844"/>
      <point x="492" y="844" type="curve" smooth="yes"/>
      <point x="598" y="844"/>
      <point x="657" y="764"/>
      <point x="657" y="606" type="curve" smooth="yes"/>
      <point x="657" y="406"/>
      <point x="580" y="129"/>
    </contour>
  </outline>
</glyph>
<glyph name="uni0223" format="2">
  <advance width="831"/>
  <unicode hex="0223"/>
  <anchor x="303" y="0" name="bottom"/>
  <anchor x="532" y="1083" name="top"/>
  <outline>
    <contour>
      <point x="328" y="-20" type="curve" smooth="yes"/>
      <point x="641" y="-20"/>
      <point x="760" y="348"/>
      <point x="760" y="635" type="curve" smooth="yes"/>
      <point x="760" y="768"/>
      <point x="721" y="862"/>
      <point x="643" y="911" type="curve"/>
      <point x="748" y="956"/>
      <point x="795" y="1063"/>
      <point x="829" y="1231" type="curve" smooth="yes"/>
      <point x="897" y="1556" type="line"/>
      <point x="741" y="1556" type="line"/>
      <point x="674" y="1235" type="line" smooth="yes"/>
      <point x="637" y="1059"/>
      <point x="588" y="987"/>
      <point x="496" y="987" type="curve" smooth="yes"/>
      <point x="428" y="987"/>
      <point x="397" y="1028"/>
      <point x="397" y="1083" type="curve" smooth="yes"/>
      <point x="397" y="1137"/>
      <point x="406" y="1180"/>
      <point x="420" y="1249" type="curve" smooth="yes"/>
      <point x="485" y="1556" type="line"/>
      <point x="328" y="1556" type="line"/>
      <point x="266" y="1266" type="line" smooth="yes"/>
      <point x="248" y="1188"/>
      <point x="240" y="1137"/>
      <point x="240" y="1071" type="curve" smooth="yes"/>
      <point x="240" y="993"/>
      <point x="272" y="942"/>
      <point x="319" y="913" type="curve"/>
      <point x="139" y="834"/>
      <point x="47" y="567"/>
      <point x="47" y="309" type="curve" smooth="yes"/>
      <point x="47" y="100"/>
      <point x="150" y="-20"/>
    </contour>
    <contour>
      <point x="338" y="119" type="curve" smooth="yes"/>
      <point x="240" y="119"/>
      <point x="207" y="203"/>
      <point x="207" y="324" type="curve" smooth="yes"/>
      <point x="207" y="545"/>
      <point x="289" y="848"/>
      <point x="467" y="848" type="curve" smooth="yes"/>
      <point x="553" y="848"/>
      <point x="598" y="770"/>
      <point x="598" y="649" type="curve" smooth="yes"/>
      <point x="598" y="432"/>
      <point x="512" y="119"/>
    </contour>
  </outline>
</glyph>
<glyph name="uni0224" format="2">
  <advance width="686"/>
  <unicode hex="0224"/>
  <anchor x="143" y="-399" name="bottom"/>
  <anchor x="539" y="1462" name="top"/>
  <outline>
    <contour>
      <point x="270" y="-399" type="curve" smooth="yes"/>
      <point x="387" y="-399"/>
      <point x="449" y="-332"/>
      <point x="477" y="-201" type="curve" smooth="yes"/>
      <point x="553" y="147" type="line"/>
      <point x="127" y="147" type="line"/>
      <point x="786" y="1333" type="line"/>
      <point x="813" y="1462" type="line"/>
      <point x="236" y="1462" type="line"/>
      <point x="205" y="1315" type="line"/>
      <point x="598" y="1315" type="line"/>
      <point x="-57" y="127" type="line"/>
      <point x="-84" y="0" type="line"/>
      <point x="365" y="0" type="line"/>
      <point x="330" y="-162" type="line" smooth="yes"/>
      <point x="313" y="-233"/>
      <point x="287" y="-262"/>
      <point x="236" y="-262" type="curve" smooth="yes"/>
      <point x="209" y="-262"/>
      <point x="182" y="-256"/>
      <point x="162" y="-246" type="curve"/>
      <point x="162" y="-381" type="line"/>
      <point x="188" y="-391"/>
      <point x="227" y="-399"/>
    </contour>
  </outline>
</glyph>
<glyph name="uni0234" format="2">
  <advance width="696"/>
  <unicode hex="0234"/>
  <anchor x="233" y="0" name="bottom"/>
  <anchor x="565" y="1556" name="top"/>
  <outline>
    <contour>
      <point x="-23" y="-86" type="line"/>
      <point x="18" y="-14"/>
      <point x="53" y="47"/>
      <point x="88" y="96" type="curve"/>
      <point x="133" y="23"/>
      <point x="223" y="-20"/>
      <point x="352" y="-20" type="curve" smooth="yes"/>
      <point x="516" y="-20"/>
      <point x="637" y="76"/>
      <point x="635" y="229" type="curve" smooth="yes"/>
      <point x="637" y="350"/>
      <point x="557" y="440"/>
      <point x="418" y="440" type="curve" smooth="yes"/>
      <point x="346" y="440"/>
      <point x="285" y="420"/>
      <point x="236" y="381" type="curve"/>
      <point x="489" y="1556" type="line"/>
      <point x="332" y="1556" type="line"/>
      <point x="72" y="346" type="line" smooth="yes"/>
      <point x="61" y="303"/>
      <point x="57" y="262"/>
      <point x="57" y="233" type="curve"/>
      <point x="4" y="166"/>
      <point x="-55" y="74"/>
      <point x="-113" y="-33" type="curve"/>
    </contour>
    <contour>
      <point x="377" y="88" type="curve" smooth="yes"/>
      <point x="289" y="86"/>
      <point x="219" y="133"/>
      <point x="221" y="240" type="curve"/>
      <point x="285" y="315"/>
      <point x="346" y="334"/>
      <point x="401" y="334" type="curve" smooth="yes"/>
      <point x="475" y="334"/>
      <point x="520" y="287"/>
      <point x="520" y="219" type="curve" smooth="yes"/>
      <point x="520" y="143"/>
      <point x="463" y="88"/>
    </contour>
  </outline>
</glyph>
<glyph name="uni0235" format="2">
  <advance width="1145"/>
  <unicode hex="0235"/>
  <anchor x="457" y="0" name="bottom"/>
  <anchor x="686" y="1083" name="top"/>
  <outline>
    <contour>
      <point x="426" y="-86" type="line"/>
      <point x="465" y="-14"/>
      <point x="502" y="47"/>
      <point x="537" y="96" type="curve"/>
      <point x="582" y="23"/>
      <point x="672" y="-20"/>
      <point x="799" y="-20" type="curve" smooth="yes"/>
      <point x="965" y="-20"/>
      <point x="1085" y="76"/>
      <point x="1083" y="229" type="curve" smooth="yes"/>
      <point x="1085" y="350"/>
      <point x="1004" y="440"/>
      <point x="866" y="440" type="curve" smooth="yes"/>
      <point x="795" y="440"/>
      <point x="739" y="424"/>
      <point x="684" y="381" type="curve"/>
      <point x="756" y="705" type="line" smooth="yes"/>
      <point x="770" y="776"/>
      <point x="784" y="854"/>
      <point x="784" y="911" type="curve" smooth="yes"/>
      <point x="784" y="1055"/>
      <point x="700" y="1118"/>
      <point x="588" y="1118" type="curve" smooth="yes"/>
      <point x="489" y="1118"/>
      <point x="406" y="1059"/>
      <point x="346" y="950" type="curve"/>
      <point x="340" y="950" type="line"/>
      <point x="360" y="1098" type="line"/>
      <point x="231" y="1098" type="line"/>
      <point x="-2" y="0" type="line"/>
      <point x="158" y="0" type="line"/>
      <point x="283" y="590" type="line" smooth="yes"/>
      <point x="336" y="838"/>
      <point x="410" y="973"/>
      <point x="532" y="973" type="curve" smooth="yes"/>
      <point x="592" y="973"/>
      <point x="621" y="938"/>
      <point x="621" y="877" type="curve" smooth="yes"/>
      <point x="621" y="823"/>
      <point x="606" y="748"/>
      <point x="592" y="682" type="curve" smooth="yes"/>
      <point x="520" y="348" type="line" smooth="yes"/>
      <point x="510" y="303"/>
      <point x="506" y="262"/>
      <point x="504" y="233" type="curve"/>
      <point x="453" y="166"/>
      <point x="393" y="74"/>
      <point x="336" y="-33" type="curve"/>
    </contour>
    <contour>
      <point x="823" y="88" type="curve" smooth="yes"/>
      <point x="735" y="86"/>
      <point x="666" y="133"/>
      <point x="668" y="240" type="curve"/>
      <point x="731" y="315"/>
      <point x="793" y="334"/>
      <point x="848" y="334" type="curve" smooth="yes"/>
      <point x="922" y="334"/>
      <point x="967" y="287"/>
      <point x="967" y="219" type="curve" smooth="yes"/>
      <point x="967" y="143"/>
      <point x="909" y="88"/>
    </contour>
  </outline>
</glyph>
<glyph name="uni0236" format="2">
  <advance width="700"/>
  <unicode hex="0236"/>
  <anchor x="236" y="0" name="bottom"/>
  <anchor x="520" y="1348" name="top"/>
  <outline>
    <contour>
      <point x="-18" y="-86" type="line"/>
      <point x="20" y="-14"/>
      <point x="57" y="47"/>
      <point x="92" y="96" type="curve"/>
      <point x="137" y="23"/>
      <point x="227" y="-20"/>
      <point x="356" y="-20" type="curve" smooth="yes"/>
      <point x="520" y="-20"/>
      <point x="641" y="76"/>
      <point x="639" y="229" type="curve" smooth="yes"/>
      <point x="641" y="350"/>
      <point x="561" y="440"/>
      <point x="422" y="440" type="curve" smooth="yes"/>
      <point x="350" y="440"/>
      <point x="295" y="424"/>
      <point x="240" y="381" type="curve"/>
      <point x="365" y="963" type="line"/>
      <point x="520" y="963" type="line"/>
      <point x="549" y="1098" type="line"/>
      <point x="393" y="1098" type="line"/>
      <point x="446" y="1348" type="line"/>
      <point x="332" y="1348" type="line"/>
      <point x="244" y="1096" type="line"/>
      <point x="127" y="1053" type="line"/>
      <point x="109" y="963" type="line"/>
      <point x="207" y="963" type="line"/>
      <point x="76" y="346" type="line" smooth="yes"/>
      <point x="66" y="303"/>
      <point x="61" y="262"/>
      <point x="61" y="233" type="curve"/>
      <point x="8" y="166"/>
      <point x="-51" y="74"/>
      <point x="-109" y="-33" type="curve"/>
    </contour>
    <contour>
      <point x="379" y="88" type="curve" smooth="yes"/>
      <point x="291" y="86"/>
      <point x="221" y="133"/>
      <point x="223" y="240" type="curve"/>
      <point x="287" y="315"/>
      <point x="348" y="334"/>
      <point x="403" y="334" type="curve" smooth="yes"/>
      <point x="477" y="334"/>
      <point x="522" y="287"/>
      <point x="522" y="219" type="curve" smooth="yes"/>
      <point x="522" y="143"/>
      <point x="465" y="88"/>
    </contour>
  </outline>
</glyph>
<glyph name="uni023A" format="2">
  <advance width="827"/>
  <unicode hex="023A"/>
  <anchor x="299" y="0" name="bottom"/>
  <anchor x="582" y="1464" name="top"/>
  <outline>
    <contour>
      <point x="53" y="-156" type="line"/>
      <point x="162" y="-156" type="line"/>
      <point x="852" y="1559" type="line"/>
      <point x="743" y="1559" type="line"/>
    </contour>
    <component base="A"/>
  </outline>
</glyph>
<glyph name="uni023B" format="2">
  <advance width="791"/>
  <unicode hex="023B"/>
  <anchor x="303" y="0" name="bottom"/>
  <anchor x="614" y="1462" name="top"/>
  <outline>
    <contour>
      <point x="135" y="-156" type="line"/>
      <point x="238" y="-156" type="line"/>
      <point x="848" y="1559" type="line"/>
      <point x="745" y="1559" type="line"/>
    </contour>
    <component base="C"/>
  </outline>
</glyph>
<glyph name="uni023C" format="2">
  <advance width="649"/>
  <unicode hex="023C"/>
  <anchor x="145" y="-297" name="bottom"/>
  <anchor x="510" y="1413" name="top"/>
  <outline>
    <contour>
      <point x="117" y="-297" type="line"/>
      <point x="219" y="-297" type="line"/>
      <point x="717" y="1413" type="line"/>
      <point x="614" y="1413" type="line"/>
    </contour>
    <component base="c"/>
  </outline>
</glyph>
<glyph name="uni023D" format="2">
  <advance width="688"/>
  <unicode hex="023D"/>
  <anchor x="229" y="0" name="bottom"/>
  <anchor x="539" y="1462" name="top"/>
  <outline>
    <contour>
      <point x="0" y="0" type="line"/>
      <point x="524" y="0" type="line"/>
      <point x="553" y="147" type="line"/>
      <point x="195" y="147" type="line"/>
      <point x="309" y="694" type="line"/>
      <point x="506" y="694" type="line"/>
      <point x="535" y="829" type="line"/>
      <point x="338" y="829" type="line"/>
      <point x="473" y="1462" type="line"/>
      <point x="309" y="1462" type="line"/>
      <point x="174" y="829" type="line"/>
      <point x="80" y="829" type="line"/>
      <point x="51" y="694" type="line"/>
      <point x="147" y="694" type="line"/>
    </contour>
  </outline>
</glyph>
<glyph name="uni023E" format="2">
  <advance width="705"/>
  <unicode hex="023E"/>
  <anchor x="238" y="0" name="bottom"/>
  <anchor x="547" y="1462" name="top"/>
  <outline>
    <contour>
      <point x="-92" y="-86" type="line"/>
      <point x="16" y="-86" type="line"/>
      <point x="844" y="1626" type="line"/>
      <point x="735" y="1626" type="line"/>
    </contour>
    <component base="T"/>
  </outline>
</glyph>
<glyph name="uni023F" format="2">
  <advance width="647"/>
  <unicode hex="023F"/>
  <anchor x="104" y="-492" name="bottom"/>
  <anchor x="438" y="1083" name="top"/>
  <outline>
    <contour>
      <point x="332" y="-492" type="curve" smooth="yes"/>
      <point x="379" y="-492"/>
      <point x="424" y="-479"/>
      <point x="449" y="-469" type="curve"/>
      <point x="449" y="-344" type="line"/>
      <point x="430" y="-354"/>
      <point x="397" y="-362"/>
      <point x="365" y="-362" type="curve" smooth="yes"/>
      <point x="289" y="-362"/>
      <point x="276" y="-311"/>
      <point x="272" y="-162" type="curve" smooth="yes"/>
      <point x="270" y="-84"/>
      <point x="256" y="-39"/>
      <point x="227" y="-18" type="curve"/>
      <point x="422" y="-6"/>
      <point x="530" y="121"/>
      <point x="530" y="317" type="curve" smooth="yes"/>
      <point x="530" y="455"/>
      <point x="485" y="514"/>
      <point x="377" y="627" type="curve" smooth="yes"/>
      <point x="295" y="709"/>
      <point x="274" y="756"/>
      <point x="274" y="829" type="curve" smooth="yes"/>
      <point x="274" y="922"/>
      <point x="334" y="983"/>
      <point x="428" y="983" type="curve" smooth="yes"/>
      <point x="489" y="983"/>
      <point x="553" y="961"/>
      <point x="604" y="920" type="curve"/>
      <point x="674" y="1047" type="line"/>
      <point x="614" y="1090"/>
      <point x="528" y="1118"/>
      <point x="424" y="1118" type="curve" smooth="yes"/>
      <point x="229" y="1118"/>
      <point x="113" y="981"/>
      <point x="113" y="807" type="curve" smooth="yes"/>
      <point x="113" y="690"/>
      <point x="160" y="612"/>
      <point x="250" y="522" type="curve" smooth="yes"/>
      <point x="342" y="426"/>
      <point x="365" y="379"/>
      <point x="365" y="301" type="curve" smooth="yes"/>
      <point x="365" y="184"/>
      <point x="299" y="121"/>
      <point x="184" y="121" type="curve" smooth="yes"/>
      <point x="115" y="121"/>
      <point x="27" y="154"/>
      <point x="-23" y="193" type="curve"/>
      <point x="-23" y="31" type="line"/>
      <point x="-10" y="23"/>
      <point x="18" y="12"/>
      <point x="35" y="8" type="curve"/>
      <point x="86" y="-16"/>
      <point x="123" y="-57"/>
      <point x="131" y="-190" type="curve" smooth="yes"/>
      <point x="141" y="-397"/>
      <point x="176" y="-492"/>
    </contour>
  </outline>
</glyph>
